<?xml version="1.0" encoding="UTF-8"?>
<svg width="26px" height="26px" viewBox="0 0 26 26" version="1.1" xmlns="http://www.w3.org/2000/svg" xmlns:xlink="http://www.w3.org/1999/xlink">
    <!-- Generator: Sketch 53.1 (72631) - https://sketchapp.com -->
    <title>download</title>
    <desc>Created with Sketch.</desc>
    <g id="Page-1" stroke="none" stroke-width="1" fill="none" fill-rule="evenodd" stroke-linejoin="round">
        <g id="download" transform="translate(1.000000, 1.000000)" stroke="#025169">
            <path d="M0,16 L0,22.9 C0,23.5 0.5,24 1,24 L23,24 C23.6,24 24,23.5 24,22.9 L24,16" id="Shape_111_5_" stroke-linecap="round"></path>
            <path d="M14.5,9 L19.4,9 C19.6,9 19.9,9.2 19.9,9.4 C20,9.6 19.9,9.9 19.8,10.1 L12.9,17.6 C12.4,18.2 11.6,18.2 11,17.6 L4.1,10.1 C4,9.9 4,9.6 4,9.4 C4.1,9.2 4.3,9 4.5,9 L9.4,9" id="Shape_348_1_" stroke-width="1.0451"></path>
            <path d="M9,9.5 L9,0.6 C9,0.3 9.3,0 9.6,0 L14.3,0 C14.6,0 14.9,0.3 14.9,0.6 L14.9,9.5" id="Shape_348_4_"></path>
        </g>
    </g>
</svg>