<?xml version="1.0" encoding="UTF-8"?>
<svg width="46px" height="38px" viewBox="0 0 46 38" version="1.1" xmlns="http://www.w3.org/2000/svg" xmlns:xlink="http://www.w3.org/1999/xlink">
    <!-- Generator: Sketch 52.6 (67491) - http://www.bohemiancoding.com/sketch -->
    <title>Group 6</title>
    <desc>Created with Sketch.</desc>
    <g id="Design-master" stroke="none" stroke-width="1" fill="none" fill-rule="evenodd" stroke-linecap="round" stroke-linejoin="round">
        <g id="SISTE_Helfo-forside---egen-modul-for-pasient-Copy" transform="translate(-120.000000, -1184.000000)" stroke="#E45300" stroke-width="2.5">
            <g id="Group-6" transform="translate(121.000000, 1185.000000)">
                <g id="Group">
                    <g id="Regular">
                        <path d="M3.3125,26.625 L3.3125,3.625 C3.3125,2.03718134 4.59968134,0.75 6.1875,0.75 L37.8125,0.75 C39.4003187,0.75 40.6875,2.03718134 40.6875,3.625 L40.6875,26.625" id="Shape"></path>
                        <path d="M27.7231667,26.625 C27.2708452,26.6256013 26.8450406,26.8385036 26.5731667,27.2 C25.4993392,28.6469889 23.8038274,29.5001218 22.0019167,29.5001218 C20.2000059,29.5001218 18.5044941,28.6469889 17.4306667,27.2 C17.1587928,26.8385036 16.7329881,26.6256013 16.2806667,26.625 L0.4375,26.625 L0.4375,29.5 C0.4375,32.6756373 3.01186269,35.25 6.1875,35.25 L37.8125,35.25 C40.9881373,35.25 43.5625,32.6756373 43.5625,29.5 L43.5625,26.625 L27.7231667,26.625 Z" id="Shape"></path>
                        <path d="M29.1875,12.25 C29.1875,11.4560907 28.5439093,10.8125 27.75,10.8125 L24.875,10.8125 L24.875,7.9375 C24.875,7.14359067 24.2314093,6.5 23.4375,6.5 L20.5625,6.5 C19.7685907,6.5 19.125,7.14359067 19.125,7.9375 L19.125,10.8125 L16.25,10.8125 C15.4560907,10.8125 14.8125,11.4560907 14.8125,12.25 L14.8125,15.125 C14.8125,15.9189093 15.4560907,16.5625 16.25,16.5625 L19.125,16.5625 L19.125,19.4375 C19.125,20.2314093 19.7685907,20.875 20.5625,20.875 L23.4375,20.875 C24.2314093,20.875 24.875,20.2314093 24.875,19.4375 L24.875,16.5625 L27.75,16.5625 C28.5439093,16.5625 29.1875,15.9189093 29.1875,15.125 L29.1875,12.25 Z" id="Shape"></path>
                    </g>
                </g>
            </g>
        </g>
    </g>
</svg>