<?xml version="1.0" encoding="utf-8"?>
<!-- Generator: Adobe Illustrator 23.0.1, SVG Export Plug-In . SVG Version: 6.00 Build 0)  -->
<svg version="1.1" id="Layer_1" xmlns="http://www.w3.org/2000/svg" xmlns:xlink="http://www.w3.org/1999/xlink" x="0px" y="0px"
	 viewBox="0 0 64 64" style="enable-background:new 0 0 64 64;" xml:space="preserve">
<style type="text/css">
	.st0{fill:none;stroke:#0667C6;stroke-width:3;stroke-linejoin:round;stroke-miterlimit:10;}
	.st1{fill:none;stroke:#0667C6;stroke-width:3;stroke-miterlimit:10;}
	.st2{fill:#FFFFFF;stroke:#0667C6;stroke-width:3;stroke-linecap:round;stroke-miterlimit:10;}
	.st3{fill:none;stroke:#0667C6;stroke-width:3;stroke-linecap:round;stroke-linejoin:round;stroke-miterlimit:10;}
	.st4{fill:none;stroke:#0667C6;stroke-width:3;stroke-linecap:round;stroke-linejoin:round;}
</style>
<g id="Food-Drinks__x2F__Fruit__x2F__fruit-apple">
	<g id="Group_80">
		<g id="Light_80">
			<path id="Shape_489" class="st4" d="M48.5,39.3c1.3,0.2,0.3,0.9,2.8,1.4s6-4.1,6.6-7.6s-1-6.4-3.5-6.9c-2.5-0.5-2.7,0.4-3.5,0.2
				c-0.8-0.2-0.7-1-3.2-1.5s-5.1,1.7-5.7,5.1c-0.6,3.4,0.9,9,3.4,9.5C47.9,40.1,47.2,39.1,48.5,39.3z"/>
			<path id="Shape_490" class="st4" d="M50.9,26.5l0.3-1.7c0.2-0.9-0.4-1.8-1.4-2l-1.7-0.3"/>
			<path id="Shape_491" class="st4" d="M53.5,24.8c1.7,0.1,3.3-1,3.8-2.6c0-0.1,0-0.3-0.1-0.4c-0.1-0.1-0.2-0.2-0.3-0.2
				c-1.7-0.1-3.3,1-3.8,2.6c0,0.1,0,0.3,0.1,0.4C53.2,24.7,53.3,24.8,53.5,24.8L53.5,24.8z"/>
		</g>
	</g>
</g>
<path id="Oval_47_1_" class="st4" d="M20.4,16.9c3.4,0.4,6.4-2.1,6.7-5.5s-2.1-6.5-5.4-6.9c-3.4-0.4-6.4,2.1-6.7,5.5
	S17,16.6,20.4,16.9z"/>
<path id="Shape_754" class="st4" d="M43.1,53.4L40,42.6c-1.3-4.3-5-7.5-9.4-8l-1.8-0.2c-0.6-0.1-1.1-0.6-1.1-1.2l-0.3-5
	c0-0.7,0.4-1.2,1.1-1.3l3.5-0.4c2.6-0.3,5.1-1.6,6.9-3.6l2.3-2.4c0.9-1,1.3-2.4,1-3.7c-0.4-1.3-1.4-2.3-2.7-2.6
	c-1.3-0.3-2.7,0.1-3.6,1.1l-2.4,2.5c-0.6,0.7-1.4,1.1-2.3,1.2l-14.5,1.6c-4.6,0.5-8.4,4-9.5,8.6L6.1,34c-0.5,2,0.8,4,2.7,4.5
	c0.1,0,0.3,0.1,0.5,0.1c1.8,0.2,3.5-1,4-2.9l1.1-4.6c0.4-1.5,1.6-2.7,3.2-2.9l1.2-0.1c0.3,0,0.7,0.1,0.9,0.3
	c0.3,0.2,0.4,0.5,0.4,0.9l0.8,12.6c0.1,0.8-0.1,1.6-0.6,2.3l-6.1,9.7c-1.1,1.7-0.6,4.1,1.1,5.2c1.7,1.1,4,0.6,5.1-1.1l6.1-9.6
	c1.2-1.9,1.8-4,1.7-6.2l1.6,0.2c1.5,0.2,2.7,1.2,3.1,2.7l3.1,10.8c0.6,2,2.6,3.1,4.6,2.5C42.6,57.4,43.7,55.3,43.1,53.4L43.1,53.4z"
	/>
</svg>
