<?xml version="1.0" encoding="utf-8"?>
<!-- Generator: Adobe Illustrator 23.0.1, SVG Export Plug-In . SVG Version: 6.00 Build 0)  -->
<svg version="1.1" id="Layer_1" xmlns="http://www.w3.org/2000/svg" xmlns:xlink="http://www.w3.org/1999/xlink" x="0px" y="0px"
	 viewBox="0 0 64 64" style="enable-background:new 0 0 64 64;" xml:space="preserve">
<style type="text/css">
	.st0{fill:none;stroke:#0667C6;stroke-width:3;stroke-linejoin:round;stroke-miterlimit:10;}
	.st1{fill:none;stroke:#0667C6;stroke-width:3;stroke-miterlimit:10;}
	.st2{fill:#FFFFFF;stroke:#0667C6;stroke-width:3;stroke-linecap:round;stroke-miterlimit:10;}
	.st3{fill:none;stroke:#0667C6;stroke-width:3;stroke-linecap:round;stroke-linejoin:round;stroke-miterlimit:10;}
	.st4{fill:none;stroke:#0667C6;stroke-width:3;stroke-linecap:round;stroke-linejoin:round;}
</style>
<path id="Shape_65_1_" class="st4" d="M37.5,37.5h11"/>
<path id="Shape_65_3_" class="st4" d="M35,42.5h16"/>
<path id="Shape_65_4_" class="st4" d="M37.5,47.5h11"/>
<g id="Messages-Chat-Smileys__x2F__Messages-Speech-Bubbles__x2F__messages-bubble-double">
	<g id="Group_45">
		<g id="messages-bubble-double">
			<path id="Shape_236_1_" class="st4" d="M25.9,42.5c0,10.4,12.2,18.3,23.1,13.4l9.7,3.7l-3.7-7.3c3.1-2.3,4.9-5.9,4.9-9.7
				c0-7.7-7.6-14.6-17-14.6S25.9,34.8,25.9,42.5z"/>
			<path id="Shape_237_1_" class="st4" d="M44.5,27.5c0.2-0.8,1-4,0.9-7c0-9.4-9.3-17-20.7-17S4,11.1,4,20.5
				c0.1,4.8,2.4,9.2,6.1,12.1l-4.9,8.6l12-4.8c1.2,0.4,2.4,0.7,3.7,0.9c0.1,0,2.5,0.2,2.6,0.2h3"/>
		</g>
	</g>
</g>
<g>
	<path id="Shape_556" class="st4" d="M20.2,16.2c0-2.1,1.7-3.8,3.8-3.8c2.1,0,3.8,1.7,3.8,3.8c0,2.1-1.7,3.8-3.8,3.8v2"/>
	<path id="Shape_557" class="st4" d="M24,26c0.3,0,0.5,0.2,0.5,0.5c0,0.3-0.2,0.5-0.5,0.5c-0.3,0-0.5-0.2-0.5-0.5
		C23.5,26.2,23.7,26,24,26"/>
</g>
</svg>
