<?xml version="1.0" encoding="utf-8"?>
<!-- Generator: Adobe Illustrator 23.0.2, SVG Export Plug-In . SVG Version: 6.00 Build 0)  -->
<svg version="1.1" id="Layer_1" xmlns="http://www.w3.org/2000/svg" xmlns:xlink="http://www.w3.org/1999/xlink" x="0px" y="0px"
	 viewBox="0 0 64 64" style="enable-background:new 0 0 64 64;" xml:space="preserve">
<style type="text/css">
	.st0{fill:none;stroke:#0667C6;stroke-width:3;stroke-linecap:round;stroke-linejoin:round;}
</style>
<g>
	<g transform="matrix( 1, 0, 0, 1, 0,0) ">
		<g>
			<path class="st0" d="M10,5.3h25.8c2.1,0,3.1,1,3.1,3.1v4.1c0,2.1-1,3.1-3.1,3.1H10c-2.1,0-3.1-1-3.1-3.1V8.4
				C6.9,6.3,8,5.3,10,5.3z M21.6,30.6h3.2c0.8,0,1.2,0.4,1.2,1.2v4.7h4.7c0.8,0,1.2,0.4,1.2,1.3v3.1c0,0.8-0.4,1.2-1.2,1.2H26v4.7
				c0,0.8-0.4,1.2-1.2,1.2h-3.2c-0.8,0-1.2-0.4-1.2-1.2v-4.7h-4.7c-0.8,0-1.2-0.4-1.2-1.2v-3.1c0-0.9,0.4-1.3,1.2-1.3h4.7v-4.7
				C20.4,31,20.8,30.6,21.6,30.6z M2.8,26.6v-4c0-4.1,2.1-6.2,6.2-6.2h27.6c4.1,0,6.2,2.1,6.2,6.2v4v25.8c0,4.1-2.1,6.2-6.2,6.2H9
				c-4.1,0-6.2-2.1-6.2-6.2V26.6h40.1 M23,9.9v1.7 M30.8,9.9v1.7 M14.4,10v1.8 M2.8,52.4h40.1 M49.4,43.9v-4.4
				c0-1.2,0.4-2.3,1.3-3.1c0.9-0.9,1.9-1.3,3.1-1.3h3.1c1.2,0,2.2,0.4,3.1,1.3c0.9,0.8,1.3,1.9,1.3,3.1v4.4v10.4
				c0,1.2-0.4,2.2-1.3,3.1c-0.9,0.8-1.9,1.2-3.1,1.2h-3.1c-1.2,0-2.2-0.4-3.1-1.2c-0.9-0.9-1.3-1.9-1.3-3.1V43.9h11.9"/>
		</g>
	</g>
</g>
</svg>
