<?xml version="1.0" encoding="UTF-8"?>
<svg width="27px" height="25px" viewBox="0 0 27 25" version="1.1" xmlns="http://www.w3.org/2000/svg" xmlns:xlink="http://www.w3.org/1999/xlink">
    <!-- Generator: Sketch 53.1 (72631) - https://sketchapp.com -->
    <title>method</title>
    <desc>Created with Sketch.</desc>
    <g id="Page-1" stroke="none" stroke-width="1" fill="none" fill-rule="evenodd" stroke-linecap="round" stroke-linejoin="round">
        <g id="method" transform="translate(1.000000, 0.000000)" stroke="#025169">
            <path d="M21,0 L21,16.8 C21,19.1 19,21 16.5,21 C14,21 12,19.1 12,16.8 L12,7.2 C12,5.7 11.1,4.3 9.8,3.6 C8.4,2.8 6.7,2.8 5.3,3.6 C3.9,4.4 3.1,5.7 3.1,7.2 L3.1,18" id="Shape_2944_1_"></path>
            <polyline id="Shape_2945_1_" points="25 4 21 0 17 4"></polyline>
            <path d="M3,24 C4.7,24 6,22.7 6,21 C6,19.3 4.7,18 3,18 C1.3,18 0,19.3 0,21 C0,22.7 1.3,24 3,24 Z" id="Oval_329_2_"></path>
        </g>
    </g>
</svg>