<?xml version="1.0" encoding="UTF-8"?>
<svg width="44px" height="56px" viewBox="0 0 44 56" version="1.1" xmlns="http://www.w3.org/2000/svg" xmlns:xlink="http://www.w3.org/1999/xlink">
    <!-- Generator: Sketch 52.6 (67491) - http://www.bohemiancoding.com/sketch -->
    <title>Group</title>
    <desc>Created with Sketch.</desc>
    <g id="Design-master" stroke="none" stroke-width="1" fill="none" fill-rule="evenodd" stroke-linecap="round" stroke-linejoin="round">
        <g id="SISTE_Helfo-forside---egen-modul-for-pasient-Copy" transform="translate(-61.000000, -2164.000000)" stroke="#E45300" stroke-width="2.5">
            <g id="Group" transform="translate(62.000000, 2165.000000)">
                <g id="money-bag-dollar">
                    <path d="M24.6726667,28.7608696 L19.929,28.7608696 C18.429549,28.7619233 17.1412892,29.8324011 16.8567498,31.3137517 C16.5722105,32.7951023 17.3712622,34.2715089 18.7623333,34.8346957 L23.5783333,36.774 C24.9694045,37.3371867 25.7684562,38.8135933 25.4839168,40.294944 C25.1993775,41.7762946 23.9111177,42.8467723 22.4116667,42.8478261 L17.6726667,42.8478261" id="Shape"></path>
                    <path d="M21.1726667,28.7608696 L21.1726667,27" id="Shape"></path>
                    <path d="M21.1726667,44.6086957 L21.1726667,42.8478261" id="Shape"></path>
                    <path d="M8.92266667,18.1956522 L33.4226667,18.1956522" id="Shape"></path>
                    <path d="M29.47,10.6497391 L32.8253333,3.8973913 C33.1615381,3.2196421 33.0293032,2.40148952 32.4969855,1.86586553 C31.9646678,1.33024154 31.1515656,1.19718529 30.478,1.53547826 L26.0446667,3.76121739 C25.2554216,4.15764256 24.296326,3.90103315 23.807,3.16252174 L22.6333333,1.37113043 C22.3087553,0.881335536 21.7623952,0.587148393 21.1773333,0.587148393 C20.5922715,0.587148393 20.0459114,0.881335536 19.7213333,1.37113043 L18.5336667,3.16252174 C18.044988,3.90194248 17.085132,4.15875535 16.296,3.76121739 L11.8696667,1.53547826 C11.1959713,1.19880643 10.3838881,1.33232366 9.85173193,1.86725345 C9.31957572,2.40218324 9.1860759,3.21917735 9.52,3.8973913 L12.81,10.5182609" id="Shape"></path>
                    <path d="M9.88633333,23.4782609 L3.44633333,30.9913043 C0.23144919,35.1962497 -0.329992177,40.8738231 1.99837688,45.6337578 C4.32674594,50.3936925 9.14048391,53.40918 14.413,53.4106957 L27.923,53.4106957 C33.1955161,53.40918 38.0092541,50.3936925 40.3376231,45.6337578 C42.6659922,40.8738231 42.1045508,35.1962497 38.8896667,30.9913043 L32.4496667,23.4782609" id="Shape"></path>
                </g>
            </g>
        </g>
    </g>
</svg>