<?xml version="1.0" encoding="utf-8"?>
<!-- Generator: Adobe Illustrator 23.0.1, SVG Export Plug-In . SVG Version: 6.00 Build 0)  -->
<svg version="1.1" id="Layer_1" xmlns="http://www.w3.org/2000/svg" xmlns:xlink="http://www.w3.org/1999/xlink" x="0px" y="0px"
	 viewBox="0 0 64 64" style="enable-background:new 0 0 64 64;" xml:space="preserve">
<style type="text/css">
	.st0{fill:none;stroke:#0667C6;stroke-width:3;stroke-linejoin:round;stroke-miterlimit:10;}
	.st1{fill:none;stroke:#0667C6;stroke-width:3;stroke-miterlimit:10;}
	.st2{fill:#FFFFFF;stroke:#0667C6;stroke-width:3;stroke-linecap:round;stroke-miterlimit:10;}
	.st3{fill:none;stroke:#0667C6;stroke-width:3;stroke-linecap:round;stroke-linejoin:round;stroke-miterlimit:10;}
	.st4{fill:none;stroke:#0667C6;stroke-width:3;stroke-linecap:round;stroke-linejoin:round;}
</style>
<path id="Shape_339_1_" class="st1" d="M40.7,48.4c-3.3,1-6.4,2.2-9.4,3.8c-0.7,0.3-1.5,0.4-2.3,0.3"/>
<path id="Shape_339" class="st1" d="M29,14.3C36.6,9.9,45.3,7.4,54.2,7c0.3,0,0.6,0.1,0.9,0.3c0.2,0.2,0.4,0.5,0.4,0.8v20.1"/>
<path id="Shape_340" class="st1" d="M29,14.3C21.4,9.9,12.7,7.4,3.8,7C3.4,7,3.1,7.1,2.9,7.3C2.6,7.5,2.5,7.8,2.5,8.1V45
	c0,0.6,0.5,1.1,1.2,1.1c8.1,0.3,15.9,2.4,23,6c0.7,0.3,1.5,0.4,2.3,0.3"/>
<path id="Shape_341" class="st1" d="M29,14v38.5"/>
<path id="Shape_342" class="st1" d="M7.6,46.9v7c0,0.3,0.2,0.7,0.4,0.9C8.3,55,8.7,55,9,55c13.1-2.7,26.8-2.7,39.9,0
	c0.4,0.1,0.7,0,1-0.2c0.3-0.2,0.4-0.5,0.4-0.9v-2.4"/>
<path id="Shape_659_1_" class="st1" d="M8.1,17.8c5.6,0.3,11.1,1.5,16.3,3.5"/>
<path id="Shape_660_1_" class="st1" d="M8.1,27.4c5.6,0.3,11.1,1.5,16.3,3.5"/>
<path id="Shape_661_1_" class="st1" d="M8.1,37.6c5.6,0.3,11.1,1.5,16.3,3.5"/>
<path id="Shape_659_2_" class="st1" d="M49.9,17.8c-5.6,0.3-11.1,1.5-16.3,3.5"/>
<path id="Shape_660_3_" class="st1" d="M42.8,28.3c-3.1,0.6-6.2,1.5-9.2,2.7"/>
<path id="Shape_661_3_" class="st1" d="M36.6,40c-1,0.3-2,0.7-3.1,1.1"/>
<ellipse class="st1" cx="49.4" cy="38.8" rx="12.2" ry="12.1"/>
<path id="Shape_68" class="st1" d="M62.5,53.1l-5.1-5.1"/>
<path id="Shape_630" class="st4" d="M49.5,39.8v-7.5"/>
<path id="Shape_557_1_" class="st4" d="M49.5,44.5c0.3,0,0.5,0.2,0.5,0.5c0,0.3-0.2,0.5-0.5,0.5c-0.3,0-0.5-0.2-0.5-0.5
	C49,44.7,49.2,44.5,49.5,44.5"/>
</svg>
