<?xml version="1.0" encoding="UTF-8"?>
<svg width="26px" height="26px" viewBox="0 0 26 26" version="1.1" xmlns="http://www.w3.org/2000/svg" xmlns:xlink="http://www.w3.org/1999/xlink">
    <!-- Generator: Sketch 53.1 (72631) - https://sketchapp.com -->
    <title>print</title>
    <desc>Created with Sketch.</desc>
    <g id="Page-1" stroke="none" stroke-width="1" fill="none" fill-rule="evenodd" stroke-linecap="round" stroke-linejoin="round">
        <g id="print" transform="translate(1.000000, 1.000000)" stroke="#025169">
            <path d="M8,17 L16,17" id="Shape_2012_1_"></path>
            <path d="M19,9 L22,9" id="Shape_2012_3_"></path>
            <path d="M8,20 L16,20" id="Shape_2012_2_"></path>
            <path d="M5,4 L5,0 L15.4,0 C15.7,0 16,0.1 16.1,0.3 L18.7,2.7 C18.9,2.9 19,3.1 19,3.4 L19,4" id="Shape_2014_1_"></path>
            <polyline id="Shape_2016_1_" stroke-width="0.97" points="15 0 15 4 19 4"></polyline>
            <path d="M5,17 L1.5,17 C0.7,17 0,16.3 0,15.5 L0,8.5 C0,7.7 0.7,7 1.5,7 L22.5,7 C23.3,7 24,7.7 24,8.5 L24,15.5 C24,16.3 23.3,17 22.5,17 L19,17" id="Path"></path>
            <path d="M17.2,24 L6.8,24 C5.8,24 5,23.2 5,22.2 L5,13 L19,13 L19,22.2 C19,23.2 18.2,24 17.2,24 Z" id="Path"></path>
        </g>
    </g>
</svg>