<?xml version="1.0" encoding="utf-8"?>
<!-- Generator: Adobe Illustrator 23.0.1, SVG Export Plug-In . SVG Version: 6.00 Build 0)  -->
<svg version="1.1" id="Layer_1" xmlns="http://www.w3.org/2000/svg" xmlns:xlink="http://www.w3.org/1999/xlink" x="0px" y="0px"
	 viewBox="0 0 64 64" style="enable-background:new 0 0 64 64;" xml:space="preserve">
<style type="text/css">
	.st0{fill:none;stroke:#0667C6;stroke-width:3;stroke-linejoin:round;stroke-miterlimit:10;}
	.st1{fill:none;stroke:#0667C6;stroke-width:3;stroke-miterlimit:10;}
	.st2{fill:#FFFFFF;stroke:#0667C6;stroke-width:3;stroke-linecap:round;stroke-miterlimit:10;}
	.st3{fill:none;stroke:#0667C6;stroke-width:3;stroke-linecap:round;stroke-linejoin:round;stroke-miterlimit:10;}
	.st4{fill:none;stroke:#0667C6;stroke-width:3;stroke-linecap:round;stroke-linejoin:round;}
</style>
<path id="Shape_156_1_" class="st4" d="M32.3,37.7L27.9,44c-0.2,0.3-0.5,0.5-0.8,0.5c-0.3,0-0.6-0.1-0.9-0.4l-2.3-2.4"/>
<g>
	<path id="Shape_530_2_" class="st4" d="M52.6,50.5c1,0,1.9-0.9,1.9-2.1V15c0-6.9-5.1-12.5-11.3-12.5H20.4c-1,0-1.9,0.9-1.9,2.1
		v43.8c0,1.2,0.8,2.1,1.9,2.1H52.6z"/>
	<path id="Shape_531_2_" class="st4" d="M45,2.7v8.2c0,1.2,0.8,2.1,1.9,2.1h7.4"/>
</g>
<path id="Shape_530_3_" class="st4" d="M18.5,7.5h-3.1c-1,0-1.9,0.9-1.9,2.1v43.8c0,1.2,0.8,2.1,1.9,2.1h32.2c1,0,1.9-0.9,1.9-2.1
	V51"/>
<path id="Shape_530_4_" class="st4" d="M13.5,12.5h-3.1c-1,0-1.9,0.9-1.9,2.1v43.8c0,1.2,0.8,2.1,1.9,2.1h32.2c1,0,1.9-0.9,1.9-2.1
	V56"/>
<g>
	<path id="Oval_9_2_" class="st4" d="M32.2,25.4c4.6,0,8.2-4,8.2-8.9s-3.7-8.9-8.2-8.9s-8.2,4-8.2,8.9S27.7,25.4,32.2,25.4z"/>
	<path id="Shape_62_2_" class="st4" d="M32.2,7.6v8.9h8.2"/>
</g>
<path id="Shape_65_2_" class="st4" d="M37.5,44.5h11"/>
<path id="Shape_68_2_" class="st4" d="M38.5,40v-4"/>
<path id="Shape_69_2_" class="st4" d="M43.5,40v-5.3"/>
<path id="Shape_70_2_" class="st4" d="M48.5,40v-8"/>
</svg>
