<?xml version="1.0" encoding="utf-8"?>
<!-- Generator: Adobe Illustrator 23.0.1, SVG Export Plug-In . SVG Version: 6.00 Build 0)  -->
<svg version="1.1" id="Layer_1" xmlns="http://www.w3.org/2000/svg" xmlns:xlink="http://www.w3.org/1999/xlink" x="0px" y="0px"
	 viewBox="0 0 64 64" style="enable-background:new 0 0 64 64;" xml:space="preserve">
<style type="text/css">
	.st0{fill:none;stroke:#0667C6;stroke-width:3;stroke-linejoin:round;stroke-miterlimit:10;}
	.st1{fill:none;stroke:#0667C6;stroke-width:3;stroke-miterlimit:10;}
	.st2{fill:#FFFFFF;stroke:#0667C6;stroke-width:3;stroke-linecap:round;stroke-miterlimit:10;}
	.st3{fill:none;stroke:#0667C6;stroke-width:3;stroke-linecap:round;stroke-linejoin:round;stroke-miterlimit:10;}
	.st4{fill:none;stroke:#0667C6;stroke-width:3;stroke-linecap:round;stroke-linejoin:round;}
</style>
<path class="st3" d="M14.5,17.5v38c0,4-2.2,5-5,5c-3,0-5-1-5-5v-14h10"/>
<line class="st3" x1="22.2" y1="38.5" x2="46.2" y2="38.5"/>
<line class="st3" x1="22.2" y1="45.5" x2="46.2" y2="45.5"/>
<line class="st3" x1="22.2" y1="52.5" x2="46.2" y2="52.5"/>
<line class="st0" x1="38" y1="60.5" x2="10" y2="60.5"/>
<path class="st0" d="M33,7.5h20.5v48.3c0,2.6-2.2,4.7-4.9,4.7H36"/>
<polyline class="st0" points="14.5,55.8 14.5,7.5 33,7.5 "/>
<path class="st1" d="M28.5,17c0-0.9-0.8-2.5-2.6-2.5c-2.3,0-2.7,2.3-2.7,2.8c0,2.8,3.1,3.2,3.8,3.5c1.5,0.7,2.4,1.4,2.4,2.7
	c0,2-1.8,3-2.7,3"/>
<path class="st1" d="M22.5,28c0,0.9,0.7,2.5,2.4,2.5c2.2,0,2.6-2.3,2.6-2.8c0-2.8-3-3.2-3.7-3.5c-1.5-0.7-2.3-1.4-2.3-2.7
	c0-2,1.7-3,2.6-3"/>
</svg>
