<?xml version="1.0" encoding="utf-8"?>
<!-- Generator: Adobe Illustrator 23.0.1, SVG Export Plug-In . SVG Version: 6.00 Build 0)  -->
<svg version="1.1" id="Layer_1" xmlns="http://www.w3.org/2000/svg" xmlns:xlink="http://www.w3.org/1999/xlink" x="0px" y="0px"
	 viewBox="0 0 64 64" style="enable-background:new 0 0 64 64;" xml:space="preserve">
<style type="text/css">
	.st0{fill:none;stroke:#0667C6;stroke-width:3;stroke-linejoin:round;stroke-miterlimit:10;}
	.st1{fill:none;stroke:#0667C6;stroke-width:3;stroke-miterlimit:10;}
	.st2{fill:#FFFFFF;stroke:#0667C6;stroke-width:3;stroke-linecap:round;stroke-miterlimit:10;}
	.st3{fill:none;stroke:#0667C6;stroke-width:3;stroke-linecap:round;stroke-linejoin:round;stroke-miterlimit:10;}
	.st4{fill:none;stroke:#0667C6;stroke-width:3;stroke-linecap:round;stroke-linejoin:round;}
</style>
<g>
	<path class="st0" d="M32.5,32.1c7.3-1.6,14.7-3.4,22-0.6c-0.7-9-1.3-18.9-2-25.9C44.7,5.9,36.8,6.2,29,8.2
		c-7.8,1.6-15.7,4.9-23.5,2.4c0.7,9,1.3,18.9,2,25.9c1.5-0.2,3-0.4,4.5-0.5"/>
</g>
<path id="Oval_5" class="st4" d="M22.5,32.5c5.5,0,10-0.9,10-2s-4.5-2-10-2c-5.5,0-10,0.9-10,2S17,32.5,22.5,32.5z"/>
<path id="Shape_148" class="st4" d="M32.5,30.5v6c0,1.1-4.5,2-10,2s-10-0.9-10-2v-6"/>
<path id="Shape_149" class="st4" d="M32.5,36.5v6c0,1.1-4.5,2-10,2s-10-0.9-10-2v-6"/>
<path id="Oval_5_3_" class="st4" d="M47.5,44.5c5.5,0,10-0.9,10-2s-4.5-2-10-2c-5.5,0-10,0.9-10,2S42,44.5,47.5,44.5z"/>
<path id="Shape_148_1_" class="st4" d="M57.5,42.5v6c0,1.1-4.5,2-10,2s-10-0.9-10-2v-6"/>
<path id="Shape_149_1_" class="st4" d="M57.5,48.5v6c0,1.1-4.5,2-10,2s-10-0.9-10-2v-6"/>
<path id="Shape_150" class="st4" d="M32.5,42.5v6c0,1.1-4.5,2-10,2s-10-0.9-10-2v-6"/>
<path id="Shape_151" class="st4" d="M32.5,48.5v6c0,1.1-4.5,2-10,2s-10-0.9-10-2v-6"/>
</svg>
