<?xml version="1.0" encoding="UTF-8"?>
<svg width="43px" height="43px" viewBox="0 0 43 43" version="1.1" xmlns="http://www.w3.org/2000/svg" xmlns:xlink="http://www.w3.org/1999/xlink">
    <!-- Generator: Sketch 54.1 (76490) - https://sketchapp.com -->
    <title>arrow_right_white</title>
    <desc>Created with Sketch.</desc>
    <g id="Page-1" stroke="none" stroke-width="1" fill="none" fill-rule="evenodd">
        <g id="arrow_right_white" transform="translate(0.000000, 0.256000)" fill="#FFFFFF" fill-rule="nonzero">
            <path d="M23.744,0 C26.7306816,4.9066912 29.6853187,8.97065056 32.608,12.192 C35.5306813,15.4133494 38.8693146,18.3679866 42.624,21.056 L42.624,21.44 C38.8693146,24.1280134 35.5306813,27.0826506 32.608,30.304 C29.6853187,33.5253494 26.7306816,37.5893088 23.744,42.496 L19.712,39.168 C24.5333574,31.8719635 29.2266438,26.5813498 33.792,23.296 C29.9519808,23.637335 26.261351,23.808 22.72,23.808 L-1.42108547e-14,23.808 L-1.42108547e-14,18.688 L22.72,18.688 C26.261351,18.688 29.9519808,18.858665 33.792,19.2 C29.2266438,15.9146502 24.5333574,10.6240365 19.712,3.328 L23.744,0 Z" id="→"></path>
        </g>
    </g>
</svg>