<?xml version="1.0" encoding="UTF-8"?>
<svg width="51px" height="51px" viewBox="0 0 51 51" version="1.1" xmlns="http://www.w3.org/2000/svg" xmlns:xlink="http://www.w3.org/1999/xlink">
    <!-- Generator: Sketch 52.6 (67491) - http://www.bohemiancoding.com/sketch -->
    <title>Group</title>
    <desc>Created with Sketch.</desc>
    <g id="Design-master" stroke="none" stroke-width="1" fill="none" fill-rule="evenodd" stroke-linecap="round" stroke-linejoin="round">
        <g id="SISTE_Helfo-forside---egen-modul-for-pasient-Copy" transform="translate(-120.000000, -1676.000000)" stroke="#E45300" stroke-width="2.5">
            <g id="Group" transform="translate(121.000000, 1677.000000)">
                <g id="task-finger-show">
                    <path d="M42.93225,48.4275 L36.64225,44.702375 C35.5129655,43.8976725 34.9420251,42.5189999 35.17175,41.1515 L35.17175,37.2755 L32.8215,34.923125 C32.2240663,34.3268164 31.9254326,33.4940793 32.007753,32.6539993 C32.0900735,31.8139194 32.5446761,31.0549928 33.2465,30.586 C34.3643852,29.8421619 35.8517094,29.9897386 36.801625,30.93875 L40.116625,34.255875" id="Shape"></path>
                    <path d="M35.703,18.975 L44.54725,26.801375 C45.7057137,28.4234856 46.3283133,30.367066 46.328,32.360375 L46.328,36.995 C46.3282099,38.3261075 46.8571599,39.6026198 47.7985,40.54375 L48.40625,41.1515" id="Shape"></path>
                    <path d="M17.1985,48.4275 L22.35375,42.09075 C23.2691342,40.9572614 23.1195812,39.3018321 22.015875,38.35075 C21.4904388,37.8982402 20.8033767,37.6792289 20.1129928,37.7441779 C19.4226089,37.8091269 18.7884478,38.1524345 18.356625,38.695 L16.578,40.2165 L16.578,27.70875 C16.578,25.9483424 15.1509076,24.5212501 13.3905,24.5212501 C11.6300924,24.5212501 10.203,25.9483424 10.203,27.70875 L10.203,35.6775 L7.570125,35.6775 C3.70298402,35.7230213 0.60272994,38.8907755 0.6405,42.758 L0.6405,48.425375" id="Shape"></path>
                    <path d="M35.703,30.265125 L35.703,8.585875 C35.703,7.70567118 34.9894538,6.992125 34.10925,6.992125 L24.54675,6.992125 C24.54675,3.47130972 21.6925653,0.617125 18.17175,0.617125 C14.6509347,0.617125 11.79675,3.47130972 11.79675,6.992125 L2.23425,6.992125 C1.35404618,6.992125 0.6405,7.70567118 0.6405,8.585875 L0.6405,29.3025" id="Shape"></path>
                    <path d="M18.17175,6.19525 C18.6118519,6.19525 18.968625,6.55202309 18.968625,6.992125 C18.968625,7.43222691 18.6118519,7.789 18.17175,7.789 C17.7316481,7.789 17.374875,7.43222691 17.374875,6.992125 C17.3743087,6.78060751 17.458083,6.57759003 17.607649,6.42802404 C17.757215,6.27845805 17.9602325,6.19468369 18.17175,6.19525" id="Shape"></path>
                </g>
            </g>
        </g>
    </g>
</svg>