<?xml version="1.0" encoding="utf-8"?>
<!-- Generator: Adobe Illustrator 23.0.1, SVG Export Plug-In . SVG Version: 6.00 Build 0)  -->
<svg version="1.1" id="Layer_1" xmlns="http://www.w3.org/2000/svg" xmlns:xlink="http://www.w3.org/1999/xlink" x="0px" y="0px"
	 viewBox="0 0 64 64" style="enable-background:new 0 0 64 64;" xml:space="preserve">
<style type="text/css">
	.st0{fill:none;stroke:#0667C6;stroke-width:3;stroke-linejoin:round;stroke-miterlimit:10;}
	.st1{fill:none;stroke:#0667C6;stroke-width:3;stroke-miterlimit:10;}
	.st2{fill:#FFFFFF;stroke:#0667C6;stroke-width:3;stroke-linecap:round;stroke-miterlimit:10;}
	.st3{fill:none;stroke:#0667C6;stroke-width:3;stroke-linecap:round;stroke-linejoin:round;stroke-miterlimit:10;}
	.st4{fill:none;stroke:#0667C6;stroke-width:3;stroke-linecap:round;stroke-linejoin:round;}
</style>
<path id="Shape_1121_1_" class="st4" d="M53.3,12.8l-7,5.4c-0.7,0.5-1.7,0.7-2.6,0.5l-4.6-1.1c-0.8-0.2-1.7-0.1-2.4,0.3l-6.4,3.8"/>
<path id="Shape_180_1_" class="st4" d="M31.3,36.5h23.3c2.7,0,4.9-1.6,4.9-3.6V9.1c0-2-2.2-3.6-4.9-3.6H23.5"/>
<path class="st0" d="M27.5,47.5c-1-4-1-6.9-2-9.9c-0.6-1.7-1.7-4.7-3-5.9c0,0-2-2-3-2c-1.4,0-2-0.3-2-2c0-1,0-2,1.2-2.3
	c0.5-0.2,3.4-0.2,3.9-0.1c0.7,0.1,0.8-0.8,0.8-1.5c0-2,0-2,0-4.9c0-2.4-1.5-4.5-2-6.9c-1-4.9-7.5-5.6-11-3c-2.7,2-4,4.7-4,7.9
	c0,1.1,0,3.8,0,4.9c0,1,0,2,0,3c0,0,2.4,0,3,0c1,0,1,2,1,3.3c0,0.4-0.5,0.4-1,0.7c-0.1,0.1-6,1-6,6.9c0,0,0,7.9,0,15.8"/>
<polyline class="st0" points="8.5,29.8 14.5,36.7 19.5,30.8 "/>
<path id="Oval_180_2_" class="st4" d="M38.1,52.5c2.8,0,5-2.2,5-5c0-2.8-2.3-5-5-5c-2.8,0-5,2.2-5,5C33.1,50.3,35.3,52.5,38.1,52.5z
	"/>
<path id="Oval_181_2_" class="st4" d="M53.6,52.5c2.8,0,5-2.2,5-5c0-2.8-2.3-5-5-5c-2.8,0-5,2.2-5,5C48.6,50.3,50.8,52.5,53.6,52.5z
	"/>
<path id="Shape_1632_2_" class="st4" d="M61.5,58.5c-1.9-2.4-4.8-3.7-7.8-3.7c-3,0-5.9,1.4-7.8,3.7c-2-2.3-4.9-3.7-8-3.7"/>
<path id="Shape_1633_2_" class="st4" d="M31.5,57c1.8-1.4,4.1-2.2,6.4-2.2"/>
<path id="Shape_68_1_" class="st4" d="M32.4,31.7v-4"/>
<path id="Shape_69_1_" class="st4" d="M38.4,31.7v-7"/>
<path id="Shape_70_6_" class="st4" d="M44.3,31.7v-6"/>
<path id="Shape_70_1_" class="st4" d="M50.3,31.7v-8.9"/>
</svg>
