<?xml version="1.0" encoding="UTF-8"?>
<svg width="27px" height="24px" viewBox="0 0 27 24" version="1.1" xmlns="http://www.w3.org/2000/svg" xmlns:xlink="http://www.w3.org/1999/xlink">
    <!-- Generator: Sketch 52.2 (67145) - http://www.bohemiancoding.com/sketch -->
    <title>Group</title>
    <desc>Created with Sketch.</desc>
    <g id="Page-1" stroke="none" stroke-width="1" fill="none" fill-rule="evenodd">
        <g id="Nivå-2---Kapittel-2-Copy" transform="translate(-618.000000, -2631.000000)" fill="#025169" fill-rule="nonzero" stroke="#025169" stroke-width="0.3">
            <g id="Group-4" transform="translate(619.000000, 2630.000000)">
                <g id="Group" transform="translate(0.000000, 2.000000)">
                    <path d="M16.0756944,8.68633333 C14.8592944,8.68633333 13.8452944,9.50803333 13.6564944,10.5765 C13.6152944,10.5629333 13.5724944,10.5523 13.5264944,10.5515667 L3.84489444,10.4921667 C2.81449444,10.4804333 1.87649444,10.8434333 1.15249444,11.4990333 C0.427694439,12.1542667 0.024894439,13.0258333 0.018094439,13.9531333 L9.44389649e-05,16.3896333 C-0.00710556104,17.3385667 0.397694439,18.2618333 1.10969444,18.9229333 C1.77929444,19.5437 2.65569444,19.8887333 3.57889444,19.8931333 L6.56009444,19.9089 L5.75129444,20.6400333 C5.59369444,20.7826667 5.59249444,21.0144 5.74729444,21.1585 C5.82529444,21.2314667 5.92889444,21.2681333 6.03209444,21.2681333 C6.13369444,21.2681333 6.23529444,21.2329333 6.31289444,21.1621667 L7.80969444,19.8088 C7.88489444,19.7406 7.92809444,19.6478333 7.92889444,19.5503 C7.92969444,19.4531333 7.88809444,19.3596333 7.81369444,19.2903333 L6.33649444,17.9182667 C6.18129444,17.7734333 5.92769444,17.7723333 5.77089444,17.9146 C5.61329444,18.0568667 5.61209444,18.2889667 5.76689444,18.4330667 L6.56609444,19.1755667 L3.58369444,19.1598 C2.87449444,19.1561333 2.19809444,18.8892 1.67889444,18.4077667 C1.11489444,17.8841667 0.794494439,17.1501 0.800094439,16.3947667 L0.818094439,13.9582667 C0.823694439,13.2271333 1.14169444,12.5389 1.71409444,12.0208 C2.28729444,11.5030667 3.05769444,11.2266 3.83929444,11.2255 L13.5208944,11.2849 C13.5216944,11.2849 13.5228944,11.2849 13.5236944,11.2849 C13.5688944,11.2849 13.6108944,11.2742667 13.6512944,11.2614333 C13.8240944,12.3398 14.8328944,13.1743333 16.0580944,13.1820333 L16.0752944,13.1820333 C17.4176944,13.1820333 18.5172944,12.1806667 18.5268944,10.9490333 C18.5356944,9.71006667 17.4432944,8.69513333 16.0756944,8.68633333 Z M16.0752944,12.4487 L16.0752944,12.8153667 L16.0636944,12.4487 C15.6220944,12.4457667 15.2084944,12.2862667 14.8984944,11.9980667 C14.5888944,11.7102333 14.4196944,11.3289 14.4228944,10.9237333 C14.4288944,10.0943333 15.1700944,9.41966667 16.0860944,9.41966667 C16.9968944,9.42553333 17.7328944,10.1093667 17.7272944,10.9439 C17.7204944,11.7740333 16.9792944,12.4487 16.0752944,12.4487 Z" id="Shape"></path>
                    <path d="M11.3600944,17.5017333 C10.0168944,17.5017333 8.91729444,18.5034667 8.90809444,19.7351 C8.89929444,20.9744333 9.99169444,21.989 11.3432944,21.9978 L11.3596944,21.9978 C12.7028944,21.9978 13.8028944,20.9960667 13.8124944,19.7648 C13.8216944,18.5258333 12.7284944,17.5105333 11.3600944,17.5017333 Z M11.3596944,21.2644667 L11.3596944,21.6311333 L11.3488944,21.2644667 C10.4384944,21.2586 9.70249444,20.5747667 9.70809444,19.7398667 C9.71409444,18.9104667 10.4548944,18.2350667 11.3708944,18.2350667 C12.2820944,18.2409333 13.0184944,18.9247667 13.0124944,19.7596667 C13.0060944,20.5898 12.2644944,21.2644667 11.3596944,21.2644667 Z" id="Shape"></path>
                    <path d="M21.9276944,1.9965 L8.57489444,1.89603333 C8.38969444,0.829766667 7.38529444,0.0077 6.15529444,0 C4.81289444,0 3.71289444,1.00136667 3.70329444,2.233 C3.69449444,3.4727 4.78689444,4.48726667 6.13889444,4.4957 L6.15609444,4.4957 C7.36249444,4.4957 8.37009444,3.68646667 8.56969444,2.62936667 L21.9212944,2.72983333 C23.5768944,2.74193333 24.9140944,3.98676667 24.9032944,5.50403333 L24.8860944,7.86976667 C24.8804944,8.6207 24.6380944,9.32323333 24.2028944,9.8483 C23.7964944,10.3389 23.2732944,10.6080333 22.7276944,10.6080333 C22.7240944,10.6080333 22.7204944,10.6080333 22.7176944,10.6080333 L20.6400944,10.5959333 L21.4496944,9.8637 C21.6072944,9.72143333 21.6084944,9.48933333 21.4536944,9.34523333 C21.2984944,9.20076667 21.0448944,9.19966667 20.8880944,9.34156667 L19.3912944,10.6945667 C19.3160944,10.7631333 19.2728944,10.8559 19.2720944,10.9530667 C19.2712944,11.0506 19.3128944,11.1441 19.3872944,11.2130333 L20.8640944,12.5851 C20.9420944,12.6580667 21.0456944,12.6947333 21.1488944,12.6947333 C21.2504944,12.6947333 21.3520944,12.6595333 21.4296944,12.5887667 C21.5872944,12.4465 21.5884944,12.2144 21.4336944,12.0703 L20.6352944,11.3292667 L22.7120944,11.3413667 C22.7176944,11.3413667 22.7224944,11.3413667 22.7280944,11.3413667 C23.5288944,11.3413667 24.2784944,10.9688333 24.8396944,10.2916 C25.3788944,9.6415 25.6792944,8.78313333 25.6856944,7.8749 L25.7028944,5.50916667 C25.7176944,3.58783333 24.0240944,2.0119 21.9276944,1.9965 Z M6.15649444,3.76236667 L6.15649444,4.12903333 L6.14489444,3.76236667 C5.23409444,3.7565 4.49809444,3.07303333 4.50369444,2.23813333 C4.51009444,1.40836667 5.25089444,0.733333333 6.16649444,0.733333333 C7.07729444,0.7392 7.81369444,1.4234 7.80809444,2.2583 C7.80209444,3.0877 7.06089444,3.76236667 6.15649444,3.76236667 Z" id="Shape"></path>
                </g>
            </g>
        </g>
    </g>
</svg>