<?xml version="1.0" encoding="utf-8"?>
<!-- Generator: Adobe Illustrator 23.0.1, SVG Export Plug-In . SVG Version: 6.00 Build 0)  -->
<svg version="1.1" id="Layer_1" xmlns="http://www.w3.org/2000/svg" xmlns:xlink="http://www.w3.org/1999/xlink" x="0px" y="0px"
	 viewBox="0 0 64 64" style="enable-background:new 0 0 64 64;" xml:space="preserve">
<style type="text/css">
	.st0{fill:none;stroke:#0667C6;stroke-width:3;stroke-linecap:round;stroke-linejoin:round;}
	.st1{fill:none;stroke:#0667C6;stroke-width:2.9931;stroke-linecap:round;stroke-linejoin:round;}
</style>
<path id="Rectangle-path_177_4_" class="st0" d="M2.5,51.5c0-1.1,0.8-2,1.7-2h19.5c1,0,1.7,0.9,1.7,2v2c0,1.1-0.8,2-1.7,2H4.2
	c-1,0-1.7-0.9-1.7-2C2.5,53.5,2.5,51.5,2.5,51.5z"/>
<path id="Rectangle-path_177_3_" class="st0" d="M37.5,42.5c0-1.1,0.8-2,1.7-2h19.5c1,0,1.7,0.9,1.7,2v2c0,1.1-0.8,2-1.7,2H39.2
	c-1,0-1.7-0.9-1.7-2V42.5z"/>
<path id="Rectangle-path_177_5_" class="st0" d="M37.5,57.5c0-1.1,0.8-2,1.7-2h19.5c1,0,1.7,0.9,1.7,2v2c0,1.1-0.8,2-1.7,2H39.2
	c-1,0-1.7-0.9-1.7-2V57.5z"/>
<path id="Shape_2844_2_" class="st0" d="M48.5,48.5v7"/>
<path class="st0" d="M14.5,48.5V36.6c0-1.8,1.7-3.1,3.2-3.1h6.1h-1h5.9c1.5,0,2.8-1.4,2.8-3.1v-0.9v0.9c0,1.8,1.1,3.1,2.3,3.1h6.4
	h-1h7.1c1.3,0,2.2,1.4,2.2,3.1v3.9"/>
<path class="st1" d="M42.8,23.1c-0.8-1.5-4.3-1.9-8.7-3.4v-2.8c0.7-0.9,2.4-0.4,2.4-7.2c0-1.3,0.1-6.9-6-6.9s-6,5.6-6,6.9
	c0,6.8,2.8,6.3,3.5,7.2v2.8c-4.4,1.5-7.6,1.9-8.5,3.4c-0.7,1.3-1,4-1.1,5.4h25.5C43.8,27.1,43.5,24.4,42.8,23.1z"/>
</svg>
