<?xml version="1.0" encoding="UTF-8"?>
<svg width="22px" height="27px" viewBox="0 0 22 27" version="1.1" xmlns="http://www.w3.org/2000/svg" xmlns:xlink="http://www.w3.org/1999/xlink">
    <!-- Generator: Sketch 51.3 (57544) - http://www.bohemiancoding.com/sketch -->
    <title>Icon/pdf</title>
    <desc>Created with Sketch.</desc>
    <defs></defs>
    <g id="Page-1" stroke="none" stroke-width="1" fill="none" fill-rule="evenodd">
        <g id="artikkel-1-m-bilde" transform="translate(-621.000000, -8223.000000)" fill-rule="nonzero">
            <g id="Group" transform="translate(520.000000, 8223.000000)">
                <g id="Icon/pdf" transform="translate(102.000000, 1.000000)">
                    <path d="M12.5649712,8.8817842e-16 L20,7.43502884 L20,22.5 C20,23.8807119 18.8807119,25 17.5,25 L2.5,25 C1.11928813,25 1.69088438e-16,23.8807119 0,22.5 L0,2.5 C-1.69088438e-16,1.11928813 1.11928813,2.53632657e-16 2.5,0 L12.5649712,0 Z" id="Combined-Shape" stroke="#025169" stroke-width="1" stroke-linecap="square"></path>
                    <path d="M19,7 L14.2,7 C13.5372583,7 13,6.50253861 13,5.88888889 L13,1" id="Rectangle-5" stroke="#025169" stroke-width="1" stroke-linecap="square"></path>
                    <path d="M16.4241026,15.2713918 C16.1241026,15.3603093 15.6838462,15.3703608 15.2115385,15.3015464 C14.7048718,15.2275773 14.1879487,15.0719072 13.68,14.8425258 C14.5858974,14.7100515 15.2887179,14.7507732 15.8897436,14.9649485 C16.0323077,15.0157216 16.2661538,15.1512887 16.4241026,15.2713918 Z M11.3697436,14.4360825 C11.3328205,14.446134 11.2966667,14.4556701 11.2605128,14.4657216 C11.0166667,14.5324742 10.7794872,14.5974227 10.5510256,14.6554124 L10.2428205,14.7340206 C9.62282051,14.8917526 8.98897436,15.0528351 8.36307692,15.2445876 C8.60102564,14.6677835 8.82205128,14.0847938 9.03846154,13.5146907 C9.19871795,13.0927835 9.36230769,12.6615979 9.53153846,12.2360825 C9.6174359,12.3786082 9.70692308,12.521134 9.80025641,12.6641753 C10.2248718,13.314433 10.7587179,13.9157216 11.3697436,14.4360825 Z M9.79282051,7.93273196 C9.83307692,8.6443299 9.68025641,9.32886598 9.45615385,9.98556701 C9.18025641,9.17345361 9.05153846,8.27680412 9.39666667,7.55283505 C9.48512821,7.36726804 9.55769231,7.26804124 9.60461538,7.21623711 C9.67717949,7.32912371 9.77282051,7.58118557 9.79282051,7.93273196 Z M6.55641026,16.9471649 C6.40128205,17.2260309 6.24307692,17.4871134 6.08076923,17.7335052 C5.68923077,18.3265464 5.04897436,18.9615979 4.72,18.9615979 C4.68769231,18.9615979 4.64846154,18.9564433 4.59128205,18.8956186 C4.55435897,18.856701 4.54846154,18.828866 4.55025641,18.7909794 C4.56128205,18.5729381 4.84871795,18.1845361 5.26512821,17.8244845 C5.64307692,17.4976804 6.07025641,17.2074742 6.55641026,16.9471649 Z M17.4717949,15.3020619 C17.4215385,14.5757732 16.2051282,14.1097938 16.1930769,14.1054124 C15.7228205,13.9378866 15.2120513,13.8564433 14.6315385,13.8564433 C14.01,13.8564433 13.34,13.9469072 12.4794872,14.1489691 C11.7138462,13.6033505 11.0523077,12.9203608 10.5582051,12.1641753 C10.34,11.8301546 10.1438462,11.4966495 9.97282051,11.1708763 C10.3902564,10.1675258 10.7661538,9.08865979 10.6979487,7.88041237 C10.6428205,6.91159794 10.2082051,6.26082474 9.61717949,6.26082474 C9.21179487,6.26082474 8.8625641,6.56262887 8.57871795,7.15876289 C8.07230769,8.22113402 8.20538462,9.58041237 8.97410256,11.2023196 C8.69717949,11.8559278 8.44,12.5335052 8.19102564,13.1896907 C7.88128205,14.0054124 7.56205128,14.8469072 7.20230769,15.6474227 C6.19333333,16.0487113 5.36461538,16.5353093 4.67384615,17.132732 C4.22128205,17.5234536 3.67589744,18.1206186 3.64461538,18.7440722 C3.62948718,19.0376289 3.72948718,19.3069588 3.93307692,19.5226804 C4.14923077,19.7518041 4.42102564,19.8724227 4.71974359,19.8726804 C5.70641026,19.8726804 6.65589744,18.5100515 6.83589744,18.2368557 C7.19846154,17.6876289 7.53769231,17.075 7.87025641,16.368299 C8.70769231,16.0641753 9.60025641,15.8371134 10.4651282,15.6175258 L10.7748718,15.5384021 C11.0076923,15.478866 11.2497436,15.4131443 11.4979487,15.3448454 C11.7607692,15.2734536 12.0310256,15.1994845 12.305641,15.1291237 C13.1938462,15.6969072 14.1489744,16.067268 15.0805128,16.2030928 C15.8651282,16.3177835 16.5620513,16.2512887 17.0335897,16.0041237 C17.4582051,15.7819588 17.4817949,15.4391753 17.4717949,15.3020619 Z" id="Shape" fill="#025169"></path>
                </g>
            </g>
        </g>
    </g>
</svg>