<?xml version="1.0" encoding="UTF-8"?>
<svg width="22px" height="27px" viewBox="0 0 22 27" version="1.1" xmlns="http://www.w3.org/2000/svg" xmlns:xlink="http://www.w3.org/1999/xlink">
    <!-- Generator: Sketch 51.3 (57544) - http://www.bohemiancoding.com/sketch -->
    <title>Icon/pdf Copy</title>
    <desc>Created with Sketch.</desc>
    <defs></defs>
    <g id="Page-1" stroke="none" stroke-width="1" fill="none" fill-rule="evenodd">
        <g id="artikkel-1-m-bilde" transform="translate(-519.000000, -8222.000000)" fill-rule="nonzero" stroke="#025169">
            <g id="Group" transform="translate(520.000000, 8223.000000)">
                <g id="Icon/print">
                    <path d="M4.22727273,-2.60169664e-12 L15.7727273,-2.60169664e-12 C16.6011544,-2.60111302e-12 17.2727273,0.671572875 17.2727273,1.5 L17.2727273,3 L2.72727273,3 L2.72727273,1.5 C2.72727273,0.671572875 3.3988456,-2.60154446e-12 4.22727273,-2.60169664e-12 Z" id="Combined-Shape-Copy" stroke-linecap="square"></path>
                    <path d="M17.2727273,14 L17.2727273,9 L2.72727273,9 L2.72727273,14 L2.5,14 C1.11928813,14 1.69088438e-16,12.8807119 0,11.5 L0,5.5 C-1.69088438e-16,4.11928813 1.11928813,3 2.5,3 L17.5,3 C18.8807119,3 20,4.11928813 20,5.5 L20,11.5 C20,12.8807119 18.8807119,14 17.5,14 L17.2727273,14 Z" id="Combined-Shape" stroke-linecap="square"></path>
                    <path d="M2.72727273,9 L17.2727273,9 L17.2727273,23.5 C17.2727273,24.3284271 16.6011544,25 15.7727273,25 L4.22727273,25 C3.3988456,25 2.72727273,24.3284271 2.72727273,23.5 L2.72727273,9 Z" id="Combined-Shape-Copy" stroke-linecap="square"></path>
                    <path d="M5.45454545,14 L14.5454545,14" id="Line-3" stroke-linecap="round"></path>
                    <path d="M5.45454545,17 L14.5454545,17" id="Line-3" stroke-linecap="round"></path>
                    <path d="M5.45454545,20 L14.5454545,20" id="Line-3" stroke-linecap="round"></path>
                    <path d="M4.09090909,6.25 L3.18181818,6.25" id="Line-3-Copy-3" stroke-linecap="round"></path>
                    <path d="M9.54545455,6.25 L5.90909091,6.25" id="Line-3-Copy-3" stroke-linecap="round"></path>
                </g>
            </g>
        </g>
    </g>
</svg>