<?xml version="1.0" encoding="utf-8"?>
<!-- Generator: Adobe Illustrator 23.0.1, SVG Export Plug-In . SVG Version: 6.00 Build 0)  -->
<svg version="1.1" id="Layer_1" xmlns="http://www.w3.org/2000/svg" xmlns:xlink="http://www.w3.org/1999/xlink" x="0px" y="0px"
	 viewBox="0 0 64 64" style="enable-background:new 0 0 64 64;" xml:space="preserve">
<style type="text/css">
	.st0{fill:none;stroke:#0667C6;stroke-width:3;stroke-linejoin:round;stroke-miterlimit:10;}
	.st1{fill:none;stroke:#0667C6;stroke-width:3;stroke-miterlimit:10;}
	.st2{fill:#FFFFFF;stroke:#0667C6;stroke-width:3;stroke-linecap:round;stroke-miterlimit:10;}
	.st3{fill:none;stroke:#0667C6;stroke-width:3;stroke-linecap:round;stroke-linejoin:round;stroke-miterlimit:10;}
	.st4{fill:none;stroke:#0667C6;stroke-width:3;stroke-linecap:round;stroke-linejoin:round;}
</style>
<path id="Shape_160_4_" class="st4" d="M31.2,32.5L17.5,18.3c-2.5-2.4-3.1-6.2-1.5-9.3l0,0c1.2-2.3,3.4-3.9,5.9-4.4
	c2.6-0.4,5.2,0.4,7,2.3l2.2,2.2l2.2-2.2c1.8-1.8,4.4-2.7,7-2.3c2.6,0.4,4.8,2,5.9,4.4l0,0c1.6,3.1,0.9,6.9-1.5,9.3L31.2,32.5z"/>
<path id="Rectangle-path_24" class="st4" d="M37.7,51.5h11.6c0.7,0,1.2,0.5,1.2,1.2v4.6c0,0.7-0.5,1.2-1.2,1.2H37.7
	c-0.7,0-1.2-0.5-1.2-1.2v-4.6C36.5,52,37,51.5,37.7,51.5z"/>
<path id="Shape_231" class="st4" d="M48.5,51.5v-4c0,0,5.8-5.8,8.3-8.2c0.4-0.4,0.7-1,0.7-1.7l0-18.4c0,0-5.9-2.2-5.9,14.4l-7.1,7.1
	l1.6-7.1c0.8-3.4-2.3-4.9-4-2.2c-1.5,3-2.7,6.2-3.6,9.4v10.8"/>
<path id="Rectangle-path_25" class="st4" d="M13.7,51.5h11.6c0.7,0,1.2,0.5,1.2,1.2v4.6c0,0.7-0.5,1.2-1.2,1.2H13.7
	c-0.7,0-1.2-0.5-1.2-1.2v-4.6C12.5,52,13,51.5,13.7,51.5z"/>
<path id="Shape_232" class="st4" d="M14.5,51.5v-4c0,0-5.5-5.8-8.3-8.3c-0.5-0.4-0.7-1-0.7-1.7V19.2c0,0,5.9-2.2,5.9,14.4l7.1,7.1
	l-1.6-7.1c-0.8-3.4,2.3-4.9,4-2.2c1.5,3,2.7,6.2,3.6,9.4v10.8"/>
</svg>
