<?xml version="1.0" encoding="UTF-8"?>
<svg width="26px" height="26px" viewBox="0 0 26 26" version="1.1" xmlns="http://www.w3.org/2000/svg" xmlns:xlink="http://www.w3.org/1999/xlink">
    <!-- Generator: Sketch 53.1 (72631) - https://sketchapp.com -->
    <title>qa</title>
    <desc>Created with Sketch.</desc>
    <g id="Page-1" stroke="none" stroke-width="1" fill="none" fill-rule="evenodd" stroke-linecap="round" stroke-linejoin="round">
        <g id="qa" transform="translate(1.000000, 1.000000)" stroke="#025169">
            <circle id="Oval" cx="12" cy="12" r="12"></circle>
            <path d="M12,16 C11.9,16 11.9,16 11.8,16.1 C11.8,16.1 11.7,16.2 11.7,16.3 C11.7,16.4 11.8,16.5 12,16.5 L12,16.5 C12.1,16.5 12.1,16.5 12.2,16.4 C12.2,16.4 12.3,16.3 12.3,16.2 C12.2,16.1 12.1,16 12,16 L12,16" id="Shape_1043_1_"></path>
            <path d="M9,9 C9,7.5 10.1,6.2 11.6,6 C13.1,5.8 14.5,6.7 14.9,8.2 C15.3,9.6 14.6,11.2 13.2,11.8 C12.5,12.1 12,12.8 12,13.6 L12,14" id="Shape_1067_1_"></path>
        </g>
    </g>
</svg>