<?xml version="1.0" encoding="UTF-8"?>
<svg width="46px" height="48px" viewBox="0 0 46 48" version="1.1" xmlns="http://www.w3.org/2000/svg" xmlns:xlink="http://www.w3.org/1999/xlink">
    <!-- Generator: Sketch 52.6 (67491) - http://www.bohemiancoding.com/sketch -->
    <title>Group 5</title>
    <desc>Created with Sketch.</desc>
    <g id="Design-master" stroke="none" stroke-width="1" fill="none" fill-rule="evenodd">
        <g id="SISTE_Helfo-forside---egen-modul-for-pasient-Copy" transform="translate(-121.000000, -701.000000)">
            <g id="Group-5" transform="translate(123.000000, 703.000000)">
                <g id="Group-Copy">
                    <g id="legal-scale-unequal"></g>
                </g>
                <path d="M21,44 L21,9" id="Shape-Copy" stroke="#E45300" stroke-width="2.5" stroke-linecap="round" stroke-linejoin="round"></path>
                <path d="M12,44 L30,44" id="Shape-Copy-2" stroke="#E45300" stroke-width="2.5" stroke-linecap="round" stroke-linejoin="round"></path>
                <path d="M24,4 L38,0" id="Shape-Copy-3" stroke="#E45300" stroke-width="2.5" stroke-linecap="round" stroke-linejoin="round"></path>
                <path d="M3,10 L18,6" id="Shape-Copy-4" stroke="#E45300" stroke-width="2.5" stroke-linecap="round" stroke-linejoin="round"></path>
                <circle id="Oval-Copy" stroke="#E45300" stroke-width="2.5" stroke-linecap="round" stroke-linejoin="round" cx="21" cy="6" r="3"></circle>
                <path d="M15,29 C15,32.8659932 11.6421356,36 7.5,36 C3.35786438,36 4.4408921e-16,32.8659932 0,29 L15,29 Z" id="Shape-Copy-5" stroke="#E45300" stroke-width="2.5" stroke-linecap="round" stroke-linejoin="round"></path>
                <path d="M8,9 L0,24" id="Shape-Copy-6" stroke="#E45300" stroke-width="2.5" stroke-linecap="round" stroke-linejoin="round"></path>
                <path d="M7,9 L15,24" id="Shape-Copy-7" stroke="#E45300" stroke-width="2.5" stroke-linecap="round" stroke-linejoin="round"></path>
                <path d="M42,21 C42,24.8659932 38.6421356,28 34.5,28 C30.3578644,28 27,24.8659932 27,21 L42,21 Z" id="Shape-Copy-8" stroke="#E45300" stroke-width="2.5" stroke-linecap="round" stroke-linejoin="round"></path>
                <path d="M34,1 L27,15" id="Shape-Copy-9" stroke="#E45300" stroke-width="2.5" stroke-linecap="round" stroke-linejoin="round"></path>
                <path d="M42,15 L35,1" id="Shape-Copy-10" stroke="#E45300" stroke-width="2.5" stroke-linecap="round" stroke-linejoin="round"></path>
            </g>
        </g>
    </g>
</svg>