<?xml version="1.0" encoding="UTF-8"?>
<svg width="28px" height="29px" viewBox="0 0 28 29" version="1.1" xmlns="http://www.w3.org/2000/svg" xmlns:xlink="http://www.w3.org/1999/xlink">
    <!-- Generator: Sketch 52.6 (67491) - http://www.bohemiancoding.com/sketch -->
    <title>Group 8 Copy 2</title>
    <desc>Created with Sketch.</desc>
    <g id="Design-master" stroke="none" stroke-width="1" fill="none" fill-rule="evenodd">
        <g id="forside-forenklet-under-arbeid--copy" transform="translate(-1155.000000, -284.000000)">
            <g id="Group-8-Copy-2" transform="translate(1155.000000, 284.000000)">
                <g id="Group-3">
                    <polygon id="Clip-2" points="0 0 21.3684211 0 21.3684211 21.4176393 0 21.4176393"></polygon>
                    <path d="M3.19196331,3.11043034 C5.05394191,1.15529153 7.80257698,-1.77739893e-05 10.7285434,-1.77739893e-05 C13.6545097,-1.77739893e-05 16.3144791,1.15529153 18.2651234,3.11043034 C20.2157676,5.06556916 21.3684211,7.73166755 21.3684211,10.6643758 C21.3684211,13.6859539 20.2157676,16.3520523 18.2651234,18.2183212 C16.3144791,20.17346 13.6545097,21.4176393 10.7285434,21.4176393 C7.80257698,21.4176393 5.05394191,20.17346 3.19196331,18.2183212 C1.24131907,16.3520523 0,13.6859539 0,10.6643758 C0,7.73166755 1.24131907,5.06556916 3.19196331,3.11043034 M10.7285434,1.77738115 C8.24590522,1.77738115 6.02926403,2.84382051 4.43328238,4.44347954 C2.83730072,6.04313857 1.8619786,8.26488723 1.8619786,10.6643758 C1.8619786,13.1527343 2.83730072,15.3744829 4.43328238,16.974142 C6.02926403,18.573801 8.24590522,19.5513704 10.7285434,19.5513704 C13.1225158,19.5513704 15.339157,18.573801 16.9351387,16.974142 C18.5311203,15.3744829 19.5951081,13.1527343 19.5951081,10.6643758 C19.5951081,8.26488723 18.5311203,6.04313857 16.9351387,4.44347954 C15.339157,2.84382051 13.1225158,1.77738115 10.7285434,1.77738115" id="Fill-1" fill="#FFFFFF"></path>
                </g>
                <path d="M16.4764543,18.5737273 C16.1218837,18.2209918 16.1218837,17.6037047 16.4764543,17.2509693 C16.8310249,16.8982338 17.3628809,16.8982338 17.7174515,17.2509693 L27.734072,27.2157464 C28.0886427,27.5684819 28.0886427,28.1857689 27.734072,28.5385044 C27.3795014,28.8912399 26.7590028,28.8912399 26.4044321,28.5385044 L16.4764543,18.5737273 Z" id="Fill-4" fill="#FFFFFF"></path>
                <path d="M10.2255639,2.95415959 C10.7218045,2.95415959 11.0526316,3.40175953 11.0526316,3.93887946 C11.0526316,4.38647939 10.7218045,4.83407933 10.2255639,4.83407933 C8.65413534,4.83407933 7.2481203,5.55023923 6.2556391,6.62447909 C5.26315789,7.69871894 4.68421053,9.22055873 4.68421053,10.8319185 C4.68421053,11.3690384 4.27067669,11.8166384 3.77443609,11.8166384 C3.27819549,11.8166384 2.94736842,11.3690384 2.94736842,10.8319185 C2.94736842,8.6834388 3.77443609,6.71399907 5.09774436,5.28167927 C6.42105263,3.84935947 8.2406015,2.95415959 10.2255639,2.95415959" id="Fill-6" fill="#FFFFFF"></path>
            </g>
        </g>
    </g>
</svg>