<?xml version="1.0" encoding="UTF-8"?>
<svg width="43px" height="43px" viewBox="0 0 43 43" version="1.1" xmlns="http://www.w3.org/2000/svg" xmlns:xlink="http://www.w3.org/1999/xlink">
    <!-- Generator: Sketch 51.3 (57544) - http://www.bohemiancoding.com/sketch -->
    <title>Group 8 Copy 3</title>
    <desc>Created with Sketch.</desc>
    <defs>
        <polygon id="path-1" points="0 0 31.8535469 0 31.8535469 31.8535205 0 31.8535205"></polygon>
    </defs>
    <g id="Page-1" stroke="none" stroke-width="1" fill="none" fill-rule="evenodd">
        <g id="Som-bruker-skal-jeg-få-forslag-(autosuggest)-til-treff-Copy-4" transform="translate(-1097.000000, -229.000000)">
            <g id="Group-8-Copy-3" transform="translate(1097.000000, 229.000000)">
                <g id="Group-3">
                    <mask id="mask-2" fill="white">
                        <use xlink:href="#path-1"></use>
                    </mask>
                    <g id="Clip-2"></g>
                    <path d="M4.75820618,4.62600735 C7.53382645,1.71821469 11.6311707,-2.64344788e-05 15.9928597,-2.64344788e-05 C20.3545486,-2.64344788e-05 24.3197205,1.71821469 27.2275131,4.62600735 C30.1353058,7.53380001 31.8535469,11.4989718 31.8535469,15.8606608 C31.8535469,20.3545222 30.1353058,24.319694 27.2275131,27.0953143 C24.3197205,30.003107 20.3545486,31.8535205 15.9928597,31.8535205 C11.6311707,31.8535205 7.53382645,30.003107 4.75820618,27.0953143 C1.85041351,24.319694 0,20.3545222 0,15.8606608 C0,11.4989718 1.85041351,7.53380001 4.75820618,4.62600735 M15.9928597,2.64342144 C12.2920326,2.64342144 8.98772278,4.22949017 6.60861969,6.60859326 C4.2295166,8.98769635 2.77562027,12.2920062 2.77562027,15.8606608 C2.77562027,19.5614879 4.2295166,22.8657977 6.60861969,25.2449008 C8.98772278,27.6240039 12.2920326,29.0779002 15.9928597,29.0779002 C19.5615143,29.0779002 22.8658241,27.6240039 25.2449272,25.2449008 C27.6240303,22.8657977 29.210099,19.5614879 29.210099,15.8606608 C29.210099,12.2920062 27.6240303,8.98769635 25.2449272,6.60859326 C22.8658241,4.22949017 19.5615143,2.64342144 15.9928597,2.64342144" id="Fill-1" fill="#025169" mask="url(#mask-2)"></path>
                </g>
                <path d="M25.406015,27.4179104 C24.8646617,26.880597 24.8646617,25.9402985 25.406015,25.4029851 C25.9473684,24.8656716 26.7593985,24.8656716 27.3007519,25.4029851 L42.593985,40.5820896 C43.1353383,41.119403 43.1353383,42.0597015 42.593985,42.5970149 C42.0526316,43.1343284 41.1052632,43.1343284 40.5639098,42.5970149 L25.406015,27.4179104 Z" id="Fill-4" fill="#025169"></path>
                <path d="M15.7755102,5 C16.5102041,5 17,5.65656566 17,6.44444444 C17,7.1010101 16.5102041,7.75757576 15.7755102,7.75757576 C13.4489796,7.75757576 11.3673469,8.80808081 9.89795918,10.3838384 C8.42857143,11.959596 7.57142857,14.1919192 7.57142857,16.5555556 C7.57142857,17.3434343 6.95918367,18 6.2244898,18 C5.48979592,18 5,17.3434343 5,16.5555556 C5,13.4040404 6.2244898,10.5151515 8.18367347,8.41414141 C10.1428571,6.31313131 12.8367347,5 15.7755102,5" id="Fill-6" fill="#025169"></path>
            </g>
        </g>
    </g>
</svg>