<?xml version="1.0" encoding="UTF-8"?>
<svg width="26px" height="26px" viewBox="0 0 26 26" version="1.1" xmlns="http://www.w3.org/2000/svg" xmlns:xlink="http://www.w3.org/1999/xlink">
    <!-- Generator: Sketch 53.1 (72631) - https://sketchapp.com -->
    <title>share</title>
    <desc>Created with Sketch.</desc>
    <g id="Page-1" stroke="none" stroke-width="1" fill="none" fill-rule="evenodd" stroke-linecap="round" stroke-linejoin="round">
        <g id="share" transform="translate(1.000000, 1.000000)" stroke="#025169">
            <path d="M7.9,10.1 C7,8.4 5.1,7.5 3.2,7.9 C1.3,8.4 0,10.1 0,12 C0,13.9 1.3,15.6 3.2,16.1 C5.1,16.5 7,15.6 7.9,13.9" id="Shape_1977"></path>
            <path d="M19.8,8.4 C21.7,8.4 23.3,7.2 23.8,5.4 C24.3,3.6 23.6,1.7 22,0.7 C20.4,-0.3 18.4,-0.1 17,1.2 C15.6,2.5 15.2,4.5 16.1,6.2" id="Shape_1978"></path>
            <path d="M16.1,18 C15.3,19.7 15.6,21.7 17,22.9 C18.4,24.2 20.4,24.3 22,23.4 C23.6,22.4 24.3,20.5 23.8,18.7 C23.3,16.9 21.7,15.7 19.8,15.7" id="Shape_1979"></path>
            <path d="M19.8,8.4 C18.2,8.4 16.8,7.5 16.1,6.1 L7.9,10.2 C8.5,11.4 8.5,12.8 7.9,13.9 L16.1,18 C16.8,16.6 18.2,15.7 19.8,15.7" id="Shape_1980"></path>
        </g>
    </g>
</svg>