<svg id="Layer_1" data-name="Layer 1" xmlns="http://www.w3.org/2000/svg" viewBox="0 0 64 64"><defs><style>.cls-1,.cls-2{fill:none;stroke:#0667c6;stroke-linejoin:round;stroke-width:3px;}.cls-2{stroke-linecap:round;}</style></defs><title>Sykdom-ny</title><path class="cls-1" d="M36.29,30.57c1-6.15.5-6.36,2.21-8.07a7.62,7.62,0,0,1,3.8-1.82,2.74,2.74,0,0,0,1.64-2.74c0-1-1.56-1.84-2-2.71a7.19,7.19,0,0,1-.71-2.61,11.85,11.85,0,0,1,1-6.16c1.1-2.19,4.92-4.37,8.13-2.16A4.48,4.48,0,0,1,51.87,7a29.59,29.59,0,0,1,.63,4.49c.12,2.51-.89,3.43-2.54,5.35a3,3,0,0,0-.55,1.64c-.18,1.45,1.18,1.84,2.1,2.44s3.34,1.72,4,2.57c2.38,3.15,1.94,8.88,2.5,12.73"/><path id="Shape_83" data-name="Shape 83" class="cls-2" d="M25.5,14.83a2.33,2.33,0,0,0-2.33-2.33H18.5V7.83A2.33,2.33,0,0,0,16.17,5.5H13.83A2.33,2.33,0,0,0,11.5,7.83V12.5h-4a2.19,2.19,0,0,0-2,2.33v2.34a2.19,2.19,0,0,0,2,2.33h4v4.67a2.33,2.33,0,0,0,2.33,2.33h2.34a2.33,2.33,0,0,0,2.33-2.33V19.5h4.67a2.33,2.33,0,0,0,2.33-2.33Z"/><path id="Oval_7" data-name="Oval 7" class="cls-2" d="M17.31,46.83a5.72,5.72,0,0,0,0-11.43,5.72,5.72,0,0,0,0,11.43Z"/><path id="Shape_84" data-name="Shape 84" class="cls-2" d="M7.5,41.5v21"/><path id="Shape_85" data-name="Shape 85" class="cls-2" d="M57.5,41.5v21"/><path id="Rectangle-path_6" data-name="Rectangle-path 6" class="cls-2" d="M7.5,46.5h50v7H7.5Z"/><path id="Shape_86" data-name="Shape 86" class="cls-2" d="M27.5,46.5h26V39.9a4.37,4.37,0,0,0-4.33-4.4H28.58a1.09,1.09,0,0,0-1.08,1.1Z"/></svg>