<?xml version="1.0" encoding="utf-8"?>
<!-- Generator: Adobe Illustrator 23.0.1, SVG Export Plug-In . SVG Version: 6.00 Build 0)  -->
<svg version="1.1" id="Layer_1" xmlns="http://www.w3.org/2000/svg" xmlns:xlink="http://www.w3.org/1999/xlink" x="0px" y="0px"
	 viewBox="0 0 64 64" style="enable-background:new 0 0 64 64;" xml:space="preserve">
<style type="text/css">
	.st0{fill:none;stroke:#0667C6;stroke-width:3;stroke-linejoin:round;stroke-miterlimit:10;}
	.st1{fill:none;stroke:#0667C6;stroke-width:3;stroke-miterlimit:10;}
	.st2{fill:#FFFFFF;stroke:#0667C6;stroke-width:3;stroke-linecap:round;stroke-miterlimit:10;}
	.st3{fill:none;stroke:#0667C6;stroke-width:3;stroke-linecap:round;stroke-linejoin:round;stroke-miterlimit:10;}
	.st4{fill:none;stroke:#0667C6;stroke-width:3;stroke-linecap:round;stroke-linejoin:round;}
</style>
<path id="Shape_174" class="st4" d="M37.3,7.5c0-2.7-2.2-4-4.8-4c-2.7,0-4.8,1.3-4.8,4H11.9c-1.3,0-2.4,1.1-2.4,2.4v46.2
	c0,1.3,1.1,2.4,2.4,2.4h41.2c1.3,0,2.4-1.1,2.4-2.4V9.9c0-1.3-1.1-2.4-2.4-2.4H37.3z"/>
<path id="Rectangle-path_11" class="st4" d="M14.5,13.7c0-0.7,0.5-1.2,1.2-1.2h33.6c0.7,0,1.2,0.5,1.2,1.2v38.6
	c0,0.7-0.5,1.2-1.2,1.2H15.7c-0.7,0-1.2-0.5-1.2-1.2V13.7z"/>
<path id="Shape_175" class="st4" d="M23.5,42.5h18"/>
<path id="Shape_175_2_" class="st4" d="M23.5,37.5h18"/>
<path id="Shape_175_1_" class="st4" d="M23.5,47.5h18"/>
<g>
	<line class="st3" x1="26.5" y1="25.5" x2="38.5" y2="25.5"/>
	<line class="st3" x1="32.5" y1="19.5" x2="32.5" y2="31.5"/>
</g>
</svg>
