<svg width="38" height="38" viewBox="0 0 38 38" fill="none" xmlns="http://www.w3.org/2000/svg">
<rect x="23" y="11.0117" width="2" height="8.5" rx="1" transform="rotate(-30.387 23 11.0117)" fill="#F6920D"/>
<rect width="2" height="8.5" rx="1" transform="matrix(-0.862629 -0.505837 -0.505837 0.862629 15.0254 11.0117)" fill="#F6920D"/>
<rect width="2" height="8" rx="1" transform="matrix(-4.37114e-08 -1 -1 4.37114e-08 23 28.5)" fill="#F6920D"/>
<path d="M18.134 3.5C18.5189 2.83333 19.4811 2.83334 19.866 3.5L32.8564 26C33.2413 26.6667 32.7602 27.5 31.9904 27.5H6.00962C5.23982 27.5 4.75869 26.6667 5.14359 26L18.134 3.5Z" stroke="#AD0017" stroke-width="2"/>
<rect x="17.6113" y="10.2656" width="2.78049" height="10.1951" rx="1.39024" fill="#AD0017"/>
<rect x="17.6113" y="21.3164" width="2.78049" height="2.78049" rx="1.39024" fill="#AD0017"/>
</svg>
