<svg width="260" height="50" viewBox="0 0 260 50" fill="none" xmlns="http://www.w3.org/2000/svg">
<path fill-rule="evenodd" clip-rule="evenodd" d="M11.4505 4.88038L11.5253 4.91364C12.3353 5.2699 13.2844 4.91327 13.6502 4.11538L14.361 2.63712C14.7209 1.83701 14.358 0.899795 13.5492 0.541687L13.4744 0.508426C12.6656 0.149948 11.7158 0.507317 11.3532 1.30632V1.30669L10.6425 2.78495C10.2841 3.58395 10.6447 4.51895 11.4505 4.88038" fill="#025169"/>
<path fill-rule="evenodd" clip-rule="evenodd" d="M17.1226 9.93955L16.9805 9.86564C12.0947 7.40064 2.9629 2.62216 1.88923 2.10477C0.886643 1.60586 0.6547 1.90521 0.288081 2.51868C-0.0785372 3.13216 -0.198249 3.50173 0.557434 4.04129C1.05125 4.39238 3.30333 5.76347 4.796 6.86847C5.9183 7.71108 7.0406 8.84934 7.31743 10.0209L11.3166 26.5072C11.5635 27.4865 12.1134 27.4569 12.6596 27.3793C13.2058 27.3017 13.7819 27.2426 13.7295 26.0378L13.1871 13.3174C13.131 12.1089 13.9876 11.5915 15.08 12.1569L17.1226 13.1548L18.7462 13.9493C18.9591 13.0565 19.2498 12.1836 19.6141 11.3402C18.9782 10.9632 17.897 10.3313 17.1226 9.93955" fill="#025169"/>
<path fill-rule="evenodd" clip-rule="evenodd" d="M37.2449 8.77592L36.1451 9.88461C35.5674 10.4951 34.5981 10.5284 33.979 9.95852L33.9229 9.90679C33.309 9.33396 33.2757 8.38011 33.8481 7.767L34.9479 6.65831C35.5278 6.05148 36.4933 6.01859 37.114 6.58439L37.1701 6.63983C37.7918 7.20489 37.8322 8.16096 37.2602 8.77555C37.2602 8.77555 37.2602 8.77592 37.2599 8.77592H37.2449ZM34.6262 1.53613C33.2121 1.53613 31.804 1.71611 30.4363 2.072C30.4363 2.20874 30.4363 2.34918 30.455 2.48592C30.5111 4.40026 30.6907 7.1757 30.8702 8.55787C31.0049 9.57787 31.1994 10.5055 31.9589 11.3777C32.6023 12.1168 33.2907 12.4864 34.4055 12.9927C35.5203 13.499 39.381 15.0179 40.4884 15.4577C41.5957 15.8974 41.5059 16.2781 41.2553 16.995C41.0046 17.712 40.7615 17.8705 39.6878 17.5642C38.6141 17.2574 33.8406 15.7164 32.7183 15.4355C32.0674 15.2729 31.7045 15.2803 31.2032 15.8827C30.0809 17.3166 30.137 20.0809 30.9451 22.4387C31.3192 23.4735 31.884 25.2733 32.2581 26.419C32.6322 27.5646 32.0299 27.7198 31.6558 27.8972C30.9076 28.215 30.5335 28.215 30.0659 27.2874C29.5983 26.3598 28.4386 23.1664 27.133 20.6759C25.8274 18.185 24.402 17.0874 21.6973 15.502L21.1922 15.2322L18.7494 13.9461C18.5788 14.6483 18.4538 15.3605 18.3753 16.0785C18.3266 16.5959 18.293 17.1207 18.293 17.6562C18.2952 26.5575 25.601 33.7715 34.6112 33.7696C43.6215 33.7674 50.9243 26.5502 50.922 17.6492C50.9202 8.7567 43.6278 1.54648 34.6262 1.53613V1.53613Z" fill="#047FA4"/>
<path fill-rule="evenodd" clip-rule="evenodd" d="M20.5788 9.46247C20.2204 10.0578 19.9005 10.675 19.6211 11.3103L21.1886 12.0975L21.6936 12.3525C21.6936 12.3525 24.3123 13.5683 25.1503 13.8973C27.0994 14.677 28.0421 11.7242 28.0421 9.46247C28.0421 8.13943 28.0795 3.85986 28.0795 3.30182V2.8916C24.9445 4.25197 22.321 6.5503 20.5788 9.46247" fill="#047FA4"/>
<path fill-rule="evenodd" clip-rule="evenodd" d="M18.7461 13.9385V13.9385L18.7561 13.9435L18.7461 13.9385Z" fill="#F12891"/>
<path fill-rule="evenodd" clip-rule="evenodd" d="M37.1296 6.58422C36.509 6.01842 35.5431 6.05168 34.9636 6.65814L33.8637 7.76683C33.291 8.37994 33.3243 9.33379 33.9385 9.90662L33.9947 9.95835C34.6134 10.5282 35.5827 10.495 36.1607 9.88444L37.2606 8.77575C37.8367 8.16522 37.8034 7.20916 37.1857 6.63966L37.1296 6.58422Z" fill="white"/>
<path fill-rule="evenodd" clip-rule="evenodd" d="M40.4893 15.4569C39.367 15.0172 35.525 13.5167 34.4064 12.9919C33.2879 12.4672 32.6033 12.1124 31.9598 11.3769C31.2116 10.5048 31.0059 9.57716 30.8712 8.55716C30.6916 7.17498 30.4971 4.39955 30.4559 2.4852C30.4559 2.34846 30.4559 2.20803 30.4372 2.07129C29.6333 2.28379 28.8466 2.55579 28.0841 2.88433V3.30933C28.0841 3.86738 28.0467 8.14694 28.0467 9.46998C28.0467 11.7391 27.104 14.6919 25.1549 13.9048C24.3282 13.5759 21.6908 12.36 21.6982 12.36L21.1932 12.105L19.6257 11.3104C19.261 12.1538 18.9707 13.027 18.7578 13.9195L21.2007 15.2056L21.7057 15.4754C24.4105 17.0498 25.8208 18.14 27.1414 20.6493C28.462 23.1587 29.6105 26.3148 30.0744 27.2609C30.5382 28.2069 30.9236 28.1885 31.6643 27.8706C32.0384 27.708 32.6444 27.5454 32.2666 26.3924C31.8887 25.2393 31.3126 23.4359 30.9535 22.4122C30.138 20.0802 30.1005 17.3159 31.2228 15.8745C31.7241 15.2722 32.087 15.2648 32.738 15.4274C33.8603 15.7082 38.6338 17.2456 39.7075 17.5561C40.7811 17.8665 41.0205 17.7113 41.2749 16.9869C41.5293 16.2626 41.5929 15.9004 40.4893 15.4569" fill="white"/>
<path fill-rule="evenodd" clip-rule="evenodd" d="M77.9286 26.4297H74.7525V18.3843H66.5448V26.4297H63.3574V8.29883H66.5448V15.8453H74.7525V8.29883H77.9286V26.4297Z" fill="#025169"/>
<path fill-rule="evenodd" clip-rule="evenodd" d="M86.9638 15.1356C86.1868 15.1083 85.439 15.4287 84.9287 16.0078C84.3623 16.7026 84.0178 17.5474 83.9374 18.4358H89.7733V18.21C89.7722 17.3755 89.4834 16.5662 88.9541 15.9154C88.4385 15.3792 87.7109 15.0942 86.9638 15.1356M87.3379 26.6768C85.4001 26.6768 83.8278 26.0736 82.6205 24.8663C81.4133 23.6589 80.8099 22.0502 80.8099 20.0397V19.6702C80.7874 18.4247 81.0575 17.1915 81.5992 16.0669C82.0837 15.0521 82.8506 14.1947 83.8102 13.5945C84.7615 13.0058 85.864 12.6994 86.9863 12.7113C88.8418 12.7113 90.2769 13.2963 91.2922 14.4667C92.3071 15.6367 92.8137 17.2924 92.811 19.4337V20.6565H83.8887C83.9235 21.6422 84.3227 22.5809 85.011 23.2956C85.6717 23.9431 86.5722 24.2942 87.5025 24.2676C88.8538 24.2916 90.1325 23.6644 90.9293 22.5861L92.5791 24.1419C92.0333 24.9483 91.2791 25.595 90.3943 26.0152C89.4408 26.4657 88.3948 26.6923 87.3379 26.6768" fill="#025169"/>
<path fill-rule="evenodd" clip-rule="evenodd" d="M95.291 26.4295H98.3549V7.83301H95.291V26.4295Z" fill="#025169"/>
<path fill-rule="evenodd" clip-rule="evenodd" d="M109.256 22.7676C109.277 22.2668 109.018 21.7941 108.583 21.5369C107.882 21.1684 107.123 20.9186 106.338 20.7978C105.435 20.6267 104.556 20.3502 103.719 19.9736C102.188 19.2345 101.423 18.1764 101.426 16.7994C101.423 15.6475 101.979 14.5643 102.923 13.8869C104.007 13.0768 105.342 12.6629 106.701 12.7154C108.332 12.7154 109.65 13.1134 110.655 13.9091C111.625 14.6482 112.181 15.7998 112.152 17.0097H109.091C109.104 16.4539 108.862 15.9217 108.433 15.561C107.948 15.1575 107.327 14.9501 106.693 14.9808C106.11 14.9561 105.534 15.1183 105.051 15.4428C104.642 15.7199 104.402 16.1834 104.415 16.6734C104.4 17.1143 104.626 17.529 105.006 17.7599C105.759 18.1387 106.567 18.4004 107.401 18.5364C108.381 18.7234 109.332 19.0375 110.229 19.471C110.841 19.77 111.366 20.2179 111.755 20.7723C112.1 21.3266 112.273 21.9693 112.253 22.6201C112.278 23.7957 111.705 24.9062 110.726 25.5766C109.714 26.3305 108.382 26.706 106.731 26.7034C105.701 26.7215 104.68 26.5186 103.738 26.1084C102.919 25.7536 102.212 25.1852 101.695 24.4642C101.215 23.8075 100.954 23.0196 100.947 22.2095H103.94C103.946 22.8533 104.247 23.4597 104.759 23.8578C105.353 24.2661 106.069 24.4616 106.791 24.4121C107.436 24.4546 108.079 24.2957 108.628 23.9579C109.028 23.6926 109.265 23.2443 109.256 22.7676" fill="#025169"/>
<path fill-rule="evenodd" clip-rule="evenodd" d="M120.487 15.1356C119.71 15.1083 118.963 15.4287 118.452 16.0078C117.884 16.7015 117.539 17.5467 117.461 18.4358H123.297V18.21C123.296 17.3755 123.007 16.5662 122.477 15.9154C121.965 15.3821 121.242 15.0972 120.499 15.1356H120.487ZM120.861 26.6768C118.924 26.6768 117.351 26.0736 116.144 24.8663C114.937 23.6589 114.333 22.0502 114.333 20.0397V19.6702C114.311 18.4247 114.581 17.1915 115.123 16.0669C115.607 15.0521 116.374 14.1947 117.334 13.5945C118.285 13.0058 119.387 12.6994 120.51 12.7113C122.365 12.7113 123.8 13.2963 124.816 14.4667C125.831 15.6367 126.337 17.2924 126.334 19.4337V20.6565H117.423C117.458 21.6422 117.857 22.5809 118.546 23.2956C119.206 23.9438 120.107 24.2953 121.037 24.2676C122.388 24.2916 123.667 23.6644 124.464 22.5861L126.114 24.1419C125.567 24.9472 124.813 25.5943 123.929 26.0152C122.972 26.4676 121.922 26.6938 120.861 26.6768V26.6768Z" fill="#025169"/>
<path fill-rule="evenodd" clip-rule="evenodd" d="M131.119 19.8554C131.119 21.2265 131.388 22.2949 131.92 23.0636C132.424 23.8105 133.285 24.2458 134.194 24.2126C135.366 24.2628 136.452 23.6083 136.943 22.5573V16.8028C136.451 15.7691 135.375 15.1312 134.22 15.1878C133.303 15.1508 132.433 15.591 131.927 16.3482C131.381 17.1295 131.108 18.2984 131.108 19.8554H131.119ZM128.059 19.593C128.059 17.5186 128.546 15.8519 129.521 14.5928C130.433 13.3655 131.898 12.6603 133.438 12.708C134.772 12.6574 136.058 13.1999 136.943 14.1863V7.84082H140.008V26.43H137.232L137.082 25.0334C136.189 26.1195 134.832 26.7286 133.416 26.6776C131.886 26.7101 130.438 25.9987 129.54 24.7747C128.553 23.503 128.059 21.776 128.059 19.593V19.593Z" fill="#025169"/>
<path fill-rule="evenodd" clip-rule="evenodd" d="M143.506 26.4296H146.566V12.959H143.506V26.4296Z" fill="#025169"/>
<path fill-rule="evenodd" clip-rule="evenodd" d="M157.212 15.7236C156.799 15.6563 156.38 15.623 155.962 15.6238C154.56 15.6238 153.615 16.1549 153.126 17.2166V26.4299H150.062V12.9592H152.988L153.062 14.467C153.681 13.3661 154.863 12.6913 156.138 12.7116C156.507 12.699 156.876 12.7582 157.222 12.8853L157.212 15.7236Z" fill="#025169"/>
<path fill-rule="evenodd" clip-rule="evenodd" d="M164.085 15.1396C163.307 15.1119 162.558 15.4323 162.046 16.0118C161.481 16.707 161.137 17.5518 161.058 18.4398H166.895V18.2144C166.892 17.3788 166.603 16.5684 166.075 15.9157C165.561 15.385 164.839 15.1005 164.096 15.1359L164.085 15.1396ZM164.459 26.6812C162.699 26.7492 160.99 26.0939 159.738 24.8703C158.533 23.6629 157.931 22.0542 157.931 20.0441V19.6746C157.908 18.4288 158.178 17.1955 158.72 16.0709C159.203 15.0554 159.971 14.1976 160.931 13.5985C161.882 13.0083 162.985 12.7016 164.107 12.7153C165.963 12.7153 167.397 13.3003 168.41 14.4707C169.423 15.6385 169.932 17.2979 169.932 19.4377V20.6572H161.036C161.074 21.6421 161.473 22.5801 162.158 23.2959C162.816 23.9453 163.717 24.2971 164.646 24.2679C165.999 24.2941 167.279 23.6662 168.076 22.5864L169.726 24.1459C169.178 24.9497 168.424 25.5961 167.541 26.0196C166.58 26.4738 165.525 26.7004 164.459 26.6812V26.6812Z" fill="#025169"/>
<path fill-rule="evenodd" clip-rule="evenodd" d="M176.658 20.6534L175.296 22.0356V26.4297H172.236V7.83691H175.296V18.34L176.254 17.1537L180.025 12.9591H183.706L178.637 18.5765L184.249 26.4297H180.71L176.658 20.6534Z" fill="#025169"/>
<path fill-rule="evenodd" clip-rule="evenodd" d="M189.468 9.68457V12.9589H191.873V15.2022H189.468V22.7191C189.433 23.1131 189.542 23.5059 189.774 23.8278C190.082 24.0954 190.49 24.2207 190.897 24.1715C191.257 24.1693 191.616 24.1272 191.967 24.0455V26.3849C191.311 26.5715 190.632 26.6687 189.95 26.6735C187.599 26.6735 186.422 25.3911 186.422 22.8263V15.2022H184.178V12.9589H186.422V9.68457H189.468Z" fill="#025169"/>
<path fill-rule="evenodd" clip-rule="evenodd" d="M196.242 19.8334C196.242 21.2204 196.531 22.3055 197.11 23.0893C197.665 23.8598 198.575 24.3018 199.531 24.2645C200.489 24.3015 201.4 23.8506 201.943 23.0708C202.52 22.2726 202.808 21.1084 202.808 19.571C202.808 18.2107 202.512 17.1319 201.921 16.3337C201.371 15.5583 200.462 15.1093 199.505 15.14C198.562 15.1126 197.669 15.5539 197.125 16.3152C196.534 17.0987 196.242 18.2739 196.242 19.8334V19.8334ZM193.179 19.571C193.16 18.3374 193.431 17.1168 193.972 16.0047C194.462 14.991 195.242 14.1418 196.216 13.5619C197.216 12.9847 198.358 12.6905 199.516 12.7119C201.196 12.6443 202.827 13.2818 204.005 14.4673C205.154 15.6352 205.778 17.1873 205.875 19.1239V19.8334C205.897 21.0626 205.632 22.2803 205.101 23.3923C204.62 24.3994 203.848 25.2442 202.882 25.8204C201.874 26.4062 200.72 26.7044 199.55 26.6815C197.626 26.6815 196.087 26.048 194.929 24.7819C193.772 23.5154 193.195 21.8287 193.197 19.7226L193.179 19.571Z" fill="#025169"/>
<path fill-rule="evenodd" clip-rule="evenodd" d="M215.512 15.7237C215.099 15.6564 214.681 15.6231 214.262 15.6239C212.861 15.6239 211.916 16.1549 211.427 17.2167V26.43H208.363V12.9593H211.289L211.363 14.4671C211.982 13.3662 213.164 12.6914 214.439 12.7117C214.808 12.6988 215.177 12.7579 215.523 12.8854L215.512 15.7237Z" fill="#025169"/>
<path fill-rule="evenodd" clip-rule="evenodd" d="M234.733 9.68457V12.9589H237.142V15.2022H234.733V22.7191C234.7 23.1135 234.81 23.5063 235.044 23.8278C235.351 24.0958 235.759 24.221 236.166 24.1715C236.526 24.1689 236.885 24.1268 237.236 24.0455V26.3849C236.58 26.5715 235.902 26.6687 235.22 26.6735C232.865 26.6735 231.689 25.3911 231.692 22.8263V15.2022H229.447V12.9589H231.692V9.68457H234.733Z" fill="#025169"/>
<path fill-rule="evenodd" clip-rule="evenodd" d="M245.014 15.1396C244.237 15.1108 243.489 15.4316 242.979 16.0118C242.413 16.7066 242.068 17.5514 241.987 18.4398H247.827V18.2144C247.825 17.3788 247.536 16.5684 247.008 15.9157C246.493 15.3828 245.77 15.0982 245.025 15.1359L245.014 15.1396ZM245.388 26.6812C243.45 26.6812 241.878 26.0777 240.671 24.8703C239.464 23.6629 238.856 22.0542 238.849 20.0441V19.6746C238.826 18.4288 239.096 17.1955 239.638 16.0709C240.121 15.0554 240.889 14.1976 241.849 13.5985C242.8 13.0083 243.902 12.7016 245.025 12.7153C246.881 12.7153 248.316 13.3003 249.331 14.4707C250.341 15.6385 250.85 17.2979 250.85 19.4377V20.6572H241.95C241.985 21.6429 242.384 22.5816 243.073 23.2959C243.736 23.9501 244.646 24.3008 245.583 24.2642C246.934 24.2904 248.214 23.6625 249.01 22.5827L250.659 24.1422C250.111 24.9468 249.358 25.5932 248.474 26.0159C247.512 26.472 246.455 26.6996 245.388 26.6812V26.6812Z" fill="#025169"/>
<path fill-rule="evenodd" clip-rule="evenodd" d="M257.37 9.68457V12.9589H259.798V15.2022H257.389V22.7191C257.353 23.1135 257.463 23.5074 257.699 23.8278C258.001 24.0902 258.4 24.2151 258.799 24.1715C259.16 24.1693 259.521 24.1272 259.873 24.0455V26.3849C259.217 26.5711 258.539 26.6683 257.856 26.6735C255.505 26.6735 254.327 25.3911 254.325 22.8263V15.2022H252.08V12.9589H254.325V9.68457H257.37Z" fill="#025169"/>
<path fill-rule="evenodd" clip-rule="evenodd" d="M145.035 7.83691C145.984 7.83691 146.753 8.59637 146.753 9.53322C146.753 10.4701 145.984 11.2295 145.035 11.2295C144.087 11.2295 143.318 10.4701 143.318 9.53322C143.318 8.59637 144.087 7.83691 145.035 7.83691" fill="#025169"/>
<path fill-rule="evenodd" clip-rule="evenodd" d="M223.477 23.8125C223.985 23.5472 224.404 23.1395 224.681 22.641V20.1021H223.031C221.894 20.1021 221.041 20.2972 220.472 20.686C219.913 21.0526 219.589 21.6801 219.615 22.342C219.592 22.8679 219.805 23.3768 220.199 23.7316C220.64 24.0926 221.202 24.2774 221.774 24.249C222.367 24.2493 222.955 24.0997 223.477 23.8125ZM224.786 25.1688C222.914 27.0377 219.908 27.1885 217.853 25.5166C217.011 24.7996 216.536 23.7501 216.556 22.6524C216.489 21.3501 217.1 20.1047 218.176 19.3482C219.253 18.5795 220.796 18.1955 222.807 18.1955H224.677V17.3119C224.708 16.6995 224.496 16.0989 224.086 15.6381C223.602 15.1854 222.947 14.957 222.283 15.0098C221.668 14.9825 221.063 15.1651 220.569 15.5269C220.144 15.831 219.894 16.3203 219.9 16.8392H216.978C216.985 16.0845 217.249 15.3546 217.726 14.7659C218.199 14.1037 218.846 13.5815 219.597 13.2544C220.5 12.8782 221.471 12.6908 222.451 12.7038C224.047 12.7038 225.32 13.1003 226.271 13.8934C227.221 14.6868 227.708 15.8018 227.733 17.2383V23.314C227.695 24.3746 227.87 25.4327 228.25 26.4257H225.122C224.961 26.0251 224.842 25.6019 224.786 25.1688Z" fill="#025169"/>
<path d="M70.4477 47.3761C70.8637 47.3761 71.237 47.3228 71.5677 47.2161C71.8983 47.1094 72.1703 46.9601 72.3837 46.7681L72.9597 48.4641C72.6823 48.6988 72.309 48.8801 71.8397 49.0081C71.381 49.1468 70.8903 49.2161 70.3677 49.2161C69.3437 49.2161 68.5437 48.9494 67.9677 48.4161C67.3917 47.8934 67.1143 47.1254 67.1357 46.1121C65.7917 45.9521 64.741 45.3974 63.9837 44.4481C63.2263 43.4988 62.8477 42.2561 62.8477 40.7201C62.8477 39.6001 63.0503 38.6348 63.4557 37.8241C63.8717 37.0028 64.4637 36.3734 65.2317 35.9361C65.9997 35.4988 66.901 35.2801 67.9357 35.2801C68.9703 35.2801 69.8663 35.4988 70.6237 35.9361C71.3917 36.3734 71.9783 37.0028 72.3837 37.8241C72.7997 38.6348 73.0077 39.6001 73.0077 40.7201C73.0077 42.2668 72.6237 43.5148 71.8557 44.4641C71.0877 45.4134 70.0263 45.9628 68.6717 46.1121C68.725 46.5921 68.901 46.9228 69.1997 47.1041C69.4983 47.2854 69.9143 47.3761 70.4477 47.3761ZM65.1357 40.7201C65.1357 41.8934 65.3757 42.7948 65.8557 43.4241C66.3463 44.0428 67.0397 44.3521 67.9357 44.3521C68.821 44.3521 69.5037 44.0428 69.9837 43.4241C70.4743 42.7948 70.7197 41.8934 70.7197 40.7201C70.7197 39.5468 70.4743 38.6508 69.9837 38.0321C69.5037 37.4028 68.821 37.0881 67.9357 37.0881C67.0397 37.0881 66.3463 37.4028 65.8557 38.0321C65.3757 38.6508 65.1357 39.5468 65.1357 40.7201Z" fill="#025169"/>
<path d="M80.8444 43.4241H76.7804L75.9164 46.0001H73.6604L77.5164 35.4401H80.1564L84.0124 46.0001H81.7244L80.8444 43.4241ZM80.3004 41.7921L79.3084 38.8161L78.8284 37.2161H78.7964L78.3484 38.7841L77.3244 41.7921H80.3004Z" fill="#025169"/>
<path d="M90.851 42.7041H85.203V40.8161H90.851V42.7041Z" fill="#025169"/>
<path d="M103.371 37.8401C104.192 37.8401 104.869 38.0908 105.403 38.5921C105.947 39.0934 106.219 39.8134 106.219 40.7521V46.0001H104.027V41.1841C104.027 40.6294 103.904 40.2241 103.659 39.9681C103.413 39.7014 103.077 39.5681 102.651 39.5681C102.139 39.5681 101.717 39.7548 101.387 40.1281C101.056 40.5014 100.891 41.0241 100.891 41.6961V46.0001H98.6988V41.1841C98.6988 40.6294 98.5761 40.2241 98.3308 39.9681C98.0854 39.7014 97.7441 39.5681 97.3068 39.5681C96.8268 39.5681 96.4108 39.7548 96.0588 40.1281C95.7174 40.4908 95.5468 41.0348 95.5468 41.7601V46.0001H93.3548V38.0001H95.3228L95.3868 39.4241C95.6534 38.9014 96.0161 38.5068 96.4748 38.2401C96.9441 37.9734 97.4668 37.8401 98.0428 37.8401C98.6401 37.8401 99.1681 37.9788 99.6268 38.2561C100.096 38.5334 100.437 38.9334 100.651 39.4561C100.907 38.9334 101.28 38.5334 101.771 38.2561C102.261 37.9788 102.795 37.8401 103.371 37.8401Z" fill="#025169"/>
<path d="M109.584 36.8481C108.677 36.8481 108.224 36.4588 108.224 35.6801C108.224 34.8908 108.677 34.4961 109.584 34.4961C110.49 34.4961 110.944 34.8908 110.944 35.6801C110.944 36.4588 110.49 36.8481 109.584 36.8481ZM110.672 46.0001H108.48V38.0001H110.672V46.0001Z" fill="#025169"/>
<path d="M115.155 43.4561C115.155 43.8401 115.209 44.1068 115.315 44.2561C115.433 44.4054 115.641 44.4801 115.939 44.4801C116.121 44.4801 116.275 44.4694 116.403 44.4481C116.542 44.4161 116.702 44.3681 116.883 44.3041L116.691 45.8241C116.521 45.9308 116.297 46.0108 116.019 46.0641C115.742 46.1281 115.47 46.1601 115.203 46.1601C114.425 46.1601 113.854 45.9734 113.491 45.6001C113.139 45.2161 112.963 44.6081 112.963 43.7761V34.4961H115.155V43.4561Z" fill="#025169"/>
<path d="M119.209 34.4961C119.646 34.4961 119.982 34.6028 120.217 34.8161C120.451 35.0188 120.569 35.3068 120.569 35.6801C120.569 36.0534 120.451 36.3414 120.217 36.5441C119.982 36.7468 119.646 36.8481 119.209 36.8481C118.771 36.8481 118.435 36.7468 118.201 36.5441C117.966 36.3414 117.849 36.0534 117.849 35.6801C117.849 35.3068 117.966 35.0188 118.201 34.8161C118.435 34.6028 118.771 34.4961 119.209 34.4961ZM120.297 46.5921C120.297 47.5841 120.041 48.3041 119.529 48.7521C119.017 49.2108 118.323 49.4401 117.449 49.4401C116.681 49.4401 116.041 49.2694 115.529 48.9281L115.881 47.3601C116.169 47.6161 116.542 47.7441 117.001 47.7441C117.363 47.7441 117.635 47.6374 117.817 47.4241C118.009 47.2108 118.105 46.8641 118.105 46.3841V38.0001H120.297V46.5921Z" fill="#025169"/>
<path d="M126.285 37.8401C127.223 37.8401 128.018 38.0428 128.669 38.4481L129.293 37.6481H130.365L129.325 38.9761C130.029 39.7014 130.381 40.7094 130.381 42.0001C130.381 43.3014 130.018 44.3201 129.293 45.0561C128.578 45.7921 127.575 46.1601 126.285 46.1601C125.41 46.1601 124.663 45.9894 124.045 45.6481L123.405 46.4961H122.333L123.357 45.1361C122.973 44.7841 122.679 44.3414 122.477 43.8081C122.285 43.2748 122.189 42.6721 122.189 42.0001C122.189 40.6988 122.546 39.6801 123.261 38.9441C123.986 38.2081 124.994 37.8401 126.285 37.8401ZM124.765 43.5041L125.213 42.8641L127.469 39.8721C127.17 39.6054 126.775 39.4721 126.285 39.4721C125.666 39.4721 125.191 39.6854 124.861 40.1121C124.541 40.5281 124.381 41.1574 124.381 42.0001C124.381 42.5974 124.503 43.0988 124.749 43.5041H124.765ZM126.285 44.5281C126.903 44.5281 127.373 44.3201 127.693 43.9041C128.023 43.4774 128.189 42.8428 128.189 42.0001C128.189 41.4561 128.087 41.0134 127.885 40.6721H127.869L127.469 41.2641L125.229 44.2241C125.495 44.4268 125.847 44.5281 126.285 44.5281Z" fill="#025169"/>
</svg>
