<?xml version="1.0" encoding="UTF-8"?>
<svg width="89px" height="58px" viewBox="0 0 89 58" version="1.1" xmlns="http://www.w3.org/2000/svg" xmlns:xlink="http://www.w3.org/1999/xlink">
    <!-- Generator: Sketch 52.5 (67469) - http://www.bohemiancoding.com/sketch -->
    <title>Group</title>
    <desc>Created with Sketch.</desc>
    <g id="Design-master" stroke="none" stroke-width="1" fill="none" fill-rule="evenodd">
        <g id="Artboard-Copy-5" transform="translate(-14.000000, -293.000000)">
            <g id="Group" transform="translate(14.000000, 293.000000)">
                <path d="M20.895052,7.7072362 L21.0448376,7.76406077 C22.6662671,8.37271506 24.5662979,7.76342938 25.2987496,6.40027108 L26.7217132,3.87473462 C27.4421821,2.50778801 26.7157217,0.906597888 25.096539,0.294786679 L24.9467534,0.237962109 C23.3275707,-0.374480483 21.426042,0.236067957 20.7003306,1.60112041 L20.7003306,1.6017518 L19.2773671,4.12728826 C18.5598939,5.49234072 19.2818607,7.08974253 20.895052,7.7072362" id="Fill-1" fill="#025169"></path>
                <g id="Group-5" transform="translate(0.000000, 4.000000)">
                    <polygon id="Clip-4" points="0 0.41157818 33.6342113 0.41157818 33.6342113 44.8732917 0 44.8732917"></polygon>
                    <path d="M29.3617585,14.4772071 L29.1179849,14.3486357 C20.7398717,10.0607786 5.08062642,1.74863571 3.23949434,0.848635714 C1.52024906,-0.0192214286 1.12251321,0.501492857 0.493833962,1.56863571 C-0.134845283,2.63577857 -0.340128302,3.27863571 0.955720755,4.21720714 C1.80251321,4.82792143 5.6644,7.21292143 8.22402264,9.13506429 C10.1485509,10.6007786 12.0730792,12.5807786 12.5477962,14.6186357 L19.4055321,43.2964929 C19.8289283,45.0000643 20.7719472,44.9486357 21.7085509,44.8136357 C22.6451547,44.6786357 23.6330792,44.5757786 23.5432679,42.4800643 L22.6130792,20.3529214 C22.5168528,18.2507786 23.9859094,17.3507786 25.859117,18.33435 L29.3617585,20.0700643 L32.1459094,21.4522071 C32.5109283,19.8990643 33.0093811,18.3806357 33.6342113,16.9136357 C32.5436453,16.2579214 30.689683,15.1586357 29.3617585,14.4772071" id="Fill-3" fill="#025169"></path>
                </g>
                <g id="Group-8" transform="translate(31.000000, 1.000000)">
                    <polygon id="Clip-7" points="0.586451685 0.505356818 57.4264526 0.505356818 57.4264526 57 0.586451685 57"></polygon>
                    <path d="M33.6008337,13.1943341 L31.6848787,15.1375159 C30.6786764,16.2075614 28.9901596,16.2658568 27.9116202,15.2670614 L27.8138674,15.1763795 C26.7444517,14.1724023 26.6864517,12.5006182 27.6835303,11.4260386 L29.5994854,9.48285682 C30.6095978,8.41928864 32.2915978,8.36164091 33.3727438,9.35331136 L33.4704966,9.45047045 C34.5535978,10.4408455 34.6239798,12.1165159 33.6275528,13.1936864 C33.6275528,13.1936864 33.6275528,13.1943341 33.6269011,13.1943341 L33.6008337,13.1943341 Z M29.039036,0.505356818 C26.5756652,0.505356818 24.1227213,0.8208 21.7401596,1.44456136 C21.7401596,1.68422045 21.7401596,1.93035682 21.7727438,2.17001591 C21.8704966,5.52524318 22.1833056,10.389675 22.4961146,12.812175 C22.7307213,14.5999023 23.0695978,16.2256977 24.3925191,17.7543341 C25.513418,19.0497886 26.7125191,19.6975159 28.6545416,20.5849023 C30.596564,21.4722886 37.3219573,24.1344477 39.2509461,24.9052432 C41.1799348,25.6760386 41.0235303,26.3431977 40.5869011,27.5997886 C40.1502719,28.8563795 39.7266764,29.1342545 37.8563393,28.5972886 C35.9860022,28.059675 27.6704966,25.3586523 25.7154404,24.8663795 C24.5815079,24.5813795 23.949373,24.5943341 23.0761146,25.6501295 C21.1210584,28.1633114 21.2188112,33.0083114 22.6264517,37.1408114 C23.2781371,38.9544477 24.262182,42.1088795 24.9138674,44.1168341 C25.5655528,46.1247886 24.5163393,46.3968341 23.8646539,46.7077432 C22.5612831,47.2647886 21.9095978,47.2647886 21.094991,45.6389932 C20.2803843,44.0131977 18.2601596,38.4161864 15.9857775,34.0511523 C13.7113955,29.6854705 11.2284742,27.7617205 6.51678876,24.9829705 L5.63701348,24.5101295 L1.38150787,22.2560386 C1.08433933,23.4867205 0.866676404,24.7348909 0.729822472,25.993425 C0.645103371,26.9002432 0.586451685,27.8200159 0.586451685,28.7585727 C0.590361798,44.3597318 13.3171258,57.0033682 29.0129685,57.0001295 C44.7088112,56.9962432 57.4303618,44.3467773 57.4264517,28.7462659 C57.4231933,13.1606523 44.7198899,0.523493182 29.039036,0.505356818 Z" id="Fill-6" fill="#047FA4"></path>
                </g>
                <path d="M36.6983636,16.2136835 C36.0628041,17.2297265 35.4955772,18.2829802 35,19.3671378 L37.7797435,20.7105093 L38.6753649,21.145686 C38.6753649,21.145686 43.3193277,23.2206589 44.8053958,23.7819738 C48.261831,25.1127315 49.9336577,20.0735116 49.9336577,16.2136835 C49.9336577,13.9558102 50,6.65241005 50,5.70006685 L50,5 C44.440513,7.32157306 39.7879257,11.2438395 36.6983636,16.2136835" id="Fill-9" fill="#047FA4"></path>
                <polygon id="Fill-13" fill="#F12891" points="33 24 33 24 33.0267308 24.0135294"></polygon>
                <path d="M65.9715028,10.7715706 C64.7940114,9.68980225 62.9614117,9.75339412 61.8619939,10.9128858 L59.7753003,13.0326148 C58.6886582,14.2048248 58.7518268,16.0284983 59.9172523,17.1236916 L60.0237162,17.2226123 C61.1976588,18.3121529 63.0366463,18.2485611 64.1332251,17.081297 L66.2199187,14.9615681 C67.3129487,13.794304 67.24978,11.9663911 66.0779667,10.877557 L65.9715028,10.7715706 Z" id="Fill-17" fill="#FFFFFF"></path>
                <path d="M71.3817685,27.1714541 C69.4512244,26.4101612 62.8423285,23.8128088 60.9182196,22.9043752 C58.9941106,21.9959416 57.8164788,21.3817893 56.7096335,20.1087028 C55.4226041,18.5989117 55.068671,16.9931594 54.8370057,15.2274716 C54.5281187,12.8348366 54.193491,8.0303744 54.1227044,4.71651101 C54.1227044,4.47980648 54.1227044,4.23670453 54.0905287,4 C52.7076156,4.36785163 51.3543042,4.83870172 50.0428213,5.40743233 L50.0428213,6.1431356 C50.0428213,7.10914597 49.9784698,14.517358 49.9784698,16.8076342 C49.9784698,20.7356499 48.3568128,25.8471882 45.0041012,24.4845378 C43.5819338,23.9151675 39.0451552,21.8104164 39.0580255,21.8104164 L38.1892806,21.3689945 L35.4929541,19.9935492 C34.8655273,21.4534404 34.3661599,22.9651507 34,24.5101275 L38.2021509,26.7364296 L39.0708958,27.2034412 C43.723507,29.928742 46.1495574,31.8159808 48.4211643,36.1598288 C50.6927711,40.5036767 52.6683612,45.9670732 53.4663194,47.6048126 C54.2642777,49.242552 54.9270978,49.2105649 56.2012569,48.6603869 C56.8447716,48.3789004 57.8872654,48.0974139 57.2373155,46.101419 C56.5873657,44.105424 55.5963531,40.9834832 54.978579,39.211398 C53.5757169,35.1746261 53.5113655,30.3893562 55.4419095,27.8943625 C56.3042192,26.8515831 56.9284285,26.8387883 58.048144,27.1202748 C59.9786881,27.6064787 68.1899356,30.2678052 70.0368228,30.8051885 C71.8837099,31.3425718 72.2955593,31.0738801 72.7331493,29.8199859 C73.1707393,28.5660916 73.2801368,27.9391445 71.3817685,27.1714541" id="Fill-19" fill="#FFFFFF"></path>
            </g>
        </g>
    </g>
</svg>