<?xml version="1.0" encoding="utf-8"?>
<!-- Generator: Adobe Illustrator 24.1.0, SVG Export Plug-In . SVG Version: 6.00 Build 0)  -->
<svg version="1.1" id="Layer_1" xmlns="http://www.w3.org/2000/svg" xmlns:xlink="http://www.w3.org/1999/xlink" x="0px" y="0px"
	 viewBox="0 0 260 34" style="enable-background:new 0 0 260 34;" xml:space="preserve">
<style type="text/css">
	.Graphic_x0020_Style{fill:none;}
	.st0{fill:#ED3F96;}
	.st1{clip-path:url(#XMLID_6_);}
	.st2{fill:#722A82;}
	.st3{fill:#405FAA;}
	.st4{fill:#0D8040;}
	.st5{fill:#FCEB05;}
	.st6{fill:#F58B1F;}
	.st7{fill:#E21E26;}
	.st8{clip-path:url(#XMLID_7_);}
</style>
<desc>Created with Sketch.</desc>
<g>
	<path d="M11.79,4.54l0.07,0.03c0.81,0.36,1.76,0,2.12-0.81l0.71-1.49c0.36-0.81,0-1.76-0.81-2.12l-0.07-0.03
		c-0.81-0.36-1.76,0-2.12,0.81l-0.71,1.49C10.62,3.22,10.98,4.18,11.79,4.54z"/>
	<g>
		<defs>
			<path id="XMLID_3_" d="M17.45,9.66c-0.05-0.02-0.1-0.05-0.14-0.07C12.43,7.09,3.3,2.25,2.23,1.72c-1-0.51-1.23-0.2-1.6,0.42
				C0.27,2.75,0.15,3.13,0.9,3.68c0.49,0.36,2.74,1.74,4.24,2.86c1.14,0.85,2.23,2,2.52,3.19l4,16.68c0.24,0.99,0.79,0.96,1.34,0.88
				c0.59-0.09,1.11-0.14,1.07-1.36l-0.54-12.87c-0.05-1.22,0.8-1.75,1.89-1.17l2.04,1.01l1.62,0.8c0-0.01,0.01-0.01,0.01-0.02
				c0.22-0.91,0.5-1.79,0.87-2.64c0,0,0,0,0-0.01c0,0,0,0,0,0c0,0,0,0,0,0C19.31,10.69,18.23,10.06,17.45,9.66z"/>
		</defs>
		<use xlink:href="#XMLID_3_"  style="overflow:visible;"/>
		<clipPath id="XMLID_5_">
			<use xlink:href="#XMLID_3_"  style="overflow:visible;"/>
		</clipPath>
	</g>
</g>
<polygon class="st0" points="19.95,11.05 19.95,11.05 19.95,11.05 "/>
<polygon class="st0" points="19.08,13.7 19.08,13.7 19.08,13.71 19.08,13.71 "/>
<path class="st0" d="M19.09,13.69c0,0.01-0.01,0.01-0.01,0.02l0,0C19.08,13.7,19.08,13.69,19.09,13.69z"/>
<polygon class="st0" points="19.95,11.05 19.95,11.05 19.95,11.05 "/>
<g>
	<g>
		<defs>
			<path id="XMLID_1_" d="M34.93,1.17c-1.45,0-2.85,0.19-4.19,0.54c0.01,0.14,0.01,0.28,0.02,0.42c0.06,1.94,0.24,4.74,0.42,6.14
				c0.13,1.03,0.33,1.97,1.09,2.85c0.64,0.75,1.33,1.11,2.44,1.63c1.12,0.53,4.97,2.05,6.08,2.5c1.1,0.45,1.02,0.83,0.77,1.56
				c-0.25,0.73-0.49,0.89-1.57,0.58c-1.07-0.32-5.84-1.87-6.97-2.15c-0.65-0.16-1.01-0.15-1.51,0.45c-1.11,1.45-1.07,4.25-0.26,6.63
				c0.36,1.05,0.94,2.87,1.31,4.03c0.38,1.15-0.23,1.32-0.6,1.48c-0.74,0.32-1.13,0.32-1.59-0.62c-0.47-0.96-1.63-4.17-2.93-6.69
				c-1.3-2.53-2.73-3.63-5.43-5.22v0l-0.51-0.27l-2.44-1.3c-0.17,0.7-0.28,1.42-0.35,2.16c-0.05,0.53-0.09,1.06-0.09,1.6
				c0,9,7.3,16.3,16.3,16.3s16.3-7.3,16.3-16.3C51.23,8.47,43.93,1.17,34.93,1.17z M37.56,8.5l-1.1,1.12
				c-0.57,0.62-1.55,0.65-2.16,0.07l-0.06-0.05c-0.62-0.57-0.65-1.55-0.07-2.16l1.1-1.12c0.57-0.62,1.55-0.65,2.16-0.07l0.06,0.05
				C38.1,6.91,38.14,7.88,37.56,8.5z"/>
		</defs>
		<use xlink:href="#XMLID_1_"  style="overflow:visible;fill:#0280A6;"/>
		<clipPath id="XMLID_6_">
			<use xlink:href="#XMLID_1_"  style="overflow:visible;"/>
		</clipPath>
		<g class="st1">
			<rect x="17.37" y="-0.21" class="st2" width="55.37" height="34.21"/>
			<rect x="17.37" y="-0.21" class="st3" width="55.37" height="28.51"/>
			<rect x="17.37" y="-0.21" class="st4" width="55.37" height="22.8"/>
			<rect x="17.37" y="-0.21" class="st5" width="55.37" height="17.1"/>
			<rect x="17.37" y="-0.21" class="st6" width="55.37" height="11.4"/>
			<rect x="17.37" y="-0.21" class="st7" width="55.37" height="5.7"/>
		</g>
	</g>
	<g>
		<defs>
			<path id="XMLID_2_" d="M20.89,9.19c-0.36,0.6-0.68,1.22-0.95,1.87c0,0,0,0,0,0c0.37,0.19,1.08,0.55,1.57,0.8
				c0.29,0.15,0.51,0.26,0.51,0.26c-0.01,0,2.63,1.23,3.45,1.56c1.95,0.79,2.89-2.2,2.89-4.5c0-1.34,0.04-5.67,0.04-6.23
				c0-0.14,0-0.27,0-0.41C25.25,3.92,22.62,6.26,20.89,9.19z"/>
		</defs>
		<use xlink:href="#XMLID_2_"  style="overflow:visible;fill:#0280A6;"/>
		<clipPath id="XMLID_7_">
			<use xlink:href="#XMLID_2_"  style="overflow:visible;"/>
		</clipPath>
		<g class="st8">
			<rect x="18.62" y="0.05" class="st2" width="52.59" height="32.49"/>
			<rect x="18.62" y="0.05" class="st3" width="52.59" height="27.07"/>
			<rect x="18.62" y="0.05" class="st4" width="52.59" height="21.66"/>
			<rect x="18.62" y="0.05" class="st5" width="52.59" height="16.24"/>
			<rect x="18.62" y="0.05" class="st6" width="52.59" height="10.83"/>
			<rect x="18.62" y="0.05" class="st7" width="52.59" height="5.41"/>
		</g>
	</g>
</g>
<path d="M78.22,26.34h-3.17V18.2h-8.2v8.14h-3.19V8h3.19v7.63h8.2V8h3.17V26.34z"/>
<path d="M87.61,26.59c-1.94,0-3.51-0.61-4.72-1.83c-1.2-1.22-1.81-2.85-1.81-4.88V19.5c0-1.36,0.26-2.58,0.79-3.65
	c0.52-1.07,1.26-1.9,2.21-2.5c0.95-0.6,2.01-0.89,3.17-0.89c1.86,0,3.29,0.59,4.3,1.78c1.01,1.18,1.52,2.86,1.52,5.03v1.23h-8.91
	c0.09,1.13,0.47,2.02,1.13,2.67c0.66,0.65,1.49,0.98,2.49,0.98c1.4,0,2.54-0.57,3.43-1.7l1.65,1.57c-0.55,0.81-1.27,1.45-2.19,1.9
	C89.77,26.37,88.75,26.59,87.61,26.59z M87.25,14.91c-0.84,0-1.52,0.29-2.03,0.88c-0.52,0.59-0.85,1.41-0.99,2.46h5.83v-0.23
	c-0.07-1.02-0.34-1.8-0.82-2.32C88.76,15.18,88.1,14.91,87.25,14.91z"/>
<path d="M98.63,26.34h-3.06V7.53h3.06V26.34z"/>
<path d="M109.53,22.64c0-0.55-0.22-0.96-0.67-1.25c-0.45-0.29-1.19-0.54-2.24-0.76c-1.04-0.22-1.91-0.5-2.61-0.83
	c-1.53-0.74-2.29-1.81-2.29-3.21c0-1.18,0.5-2.16,1.49-2.95c0.99-0.79,2.25-1.18,3.78-1.18c1.63,0,2.95,0.4,3.95,1.21
	c1,0.81,1.51,1.85,1.51,3.14h-3.06c0-0.59-0.22-1.08-0.65-1.47c-0.44-0.39-1.02-0.59-1.74-0.59c-0.67,0-1.22,0.16-1.64,0.47
	c-0.42,0.31-0.64,0.73-0.64,1.25c0,0.47,0.2,0.84,0.59,1.1c0.39,0.26,1.19,0.52,2.39,0.79c1.2,0.26,2.14,0.58,2.83,0.94
	c0.68,0.37,1.19,0.8,1.52,1.32c0.33,0.51,0.5,1.13,0.5,1.86c0,1.23-0.51,2.22-1.52,2.98c-1.02,0.76-2.35,1.14-3.99,1.14
	c-1.12,0-2.11-0.2-2.99-0.6c-0.87-0.4-1.55-0.96-2.04-1.66c-0.49-0.71-0.73-1.47-0.73-2.28h2.97c0.04,0.72,0.31,1.28,0.82,1.67
	c0.5,0.39,1.17,0.59,2,0.59c0.81,0,1.42-0.15,1.84-0.46S109.53,23.13,109.53,22.64z"/>
<path d="M121.13,26.59c-1.94,0-3.51-0.61-4.72-1.83c-1.2-1.22-1.81-2.85-1.81-4.88V19.5c0-1.36,0.26-2.58,0.79-3.65
	c0.52-1.07,1.26-1.9,2.21-2.5c0.95-0.6,2.01-0.89,3.17-0.89c1.86,0,3.29,0.59,4.3,1.78c1.01,1.18,1.52,2.86,1.52,5.03v1.23h-8.91
	c0.09,1.13,0.47,2.02,1.13,2.67c0.66,0.65,1.49,0.98,2.49,0.98c1.4,0,2.54-0.57,3.43-1.7l1.65,1.57c-0.55,0.81-1.27,1.45-2.19,1.9
	C123.28,26.37,122.26,26.59,121.13,26.59z M120.76,14.91c-0.84,0-1.52,0.29-2.03,0.88c-0.52,0.59-0.85,1.41-0.99,2.46h5.83v-0.23
	c-0.07-1.02-0.34-1.8-0.82-2.32C122.27,15.18,121.61,14.91,120.76,14.91z"/>
<path d="M128.32,19.42c0-2.1,0.49-3.79,1.46-5.06c0.97-1.27,2.28-1.91,3.92-1.91c1.44,0,2.61,0.5,3.5,1.51V7.53h3.06v18.81h-2.77
	l-0.15-1.41c-0.92,1.11-2.14,1.66-3.67,1.66c-1.6,0-2.89-0.64-3.87-1.93S128.32,21.63,128.32,19.42z M131.38,19.69
	c0,1.39,0.27,2.47,0.8,3.24c0.53,0.78,1.29,1.17,2.27,1.17c1.25,0,2.17-0.56,2.75-1.68V16.6c-0.56-1.09-1.47-1.64-2.72-1.64
	c-0.99,0-1.76,0.39-2.29,1.18C131.65,16.93,131.38,18.11,131.38,19.69z"/>
<path d="M146.81,26.34h-3.06V12.71h3.06V26.34z"/>
<path d="M157.45,15.51c-0.4-0.07-0.82-0.1-1.25-0.1c-1.4,0-2.35,0.54-2.83,1.61v9.32h-3.06V12.71h2.92l0.08,1.52
	c0.74-1.18,1.76-1.78,3.07-1.78c0.44,0,0.8,0.06,1.08,0.18L157.45,15.51z"/>
<path d="M164.7,26.59c-1.94,0-3.51-0.61-4.72-1.83c-1.2-1.22-1.81-2.85-1.81-4.88V19.5c0-1.36,0.26-2.58,0.79-3.65
	c0.52-1.07,1.26-1.9,2.21-2.5c0.95-0.6,2.01-0.89,3.17-0.89c1.86,0,3.29,0.59,4.3,1.78s1.52,2.86,1.52,5.03v1.23h-8.91
	c0.09,1.13,0.47,2.02,1.13,2.67c0.66,0.65,1.49,0.98,2.49,0.98c1.4,0,2.54-0.57,3.43-1.7l1.65,1.57c-0.55,0.81-1.27,1.45-2.19,1.9
	C166.85,26.37,165.83,26.59,164.7,26.59z M164.33,14.92c-0.84,0-1.52,0.29-2.03,0.88c-0.52,0.59-0.85,1.41-0.99,2.46h5.83v-0.23
	c-0.07-1.02-0.34-1.8-0.82-2.32C165.84,15.18,165.18,14.92,164.33,14.92z"/>
<path d="M176.89,20.5l-1.36,1.4v4.45h-3.06V7.53h3.06v10.62l0.96-1.2l3.77-4.24h3.68l-5.06,5.68l5.61,7.95h-3.54L176.89,20.5z"/>
<path d="M189.68,9.4v3.31h2.41v2.27h-2.41v7.61c0,0.52,0.1,0.9,0.31,1.13c0.21,0.23,0.57,0.35,1.1,0.35c0.35,0,0.71-0.04,1.07-0.13
	v2.37c-0.7,0.19-1.37,0.29-2.02,0.29c-2.35,0-3.53-1.3-3.53-3.89v-7.72h-2.24v-2.27h2.24V9.4H189.68z"/>
<path d="M193.4,19.4c0-1.34,0.26-2.54,0.79-3.61c0.53-1.07,1.27-1.89,2.23-2.47c0.96-0.58,2.06-0.86,3.3-0.86
	c1.84,0,3.33,0.59,4.48,1.78c1.15,1.18,1.77,2.75,1.86,4.71l0.01,0.72c0,1.34-0.26,2.54-0.77,3.6c-0.52,1.06-1.26,1.88-2.22,2.46
	c-0.96,0.58-2.07,0.87-3.33,0.87c-1.92,0-3.46-0.64-4.62-1.92c-1.15-1.28-1.73-2.99-1.73-5.12V19.4z M196.46,19.67
	c0,1.4,0.29,2.5,0.87,3.29c0.58,0.79,1.39,1.19,2.42,1.19c1.03,0,1.84-0.4,2.41-1.21c0.58-0.81,0.86-1.99,0.86-3.54
	c0-1.38-0.3-2.47-0.89-3.27c-0.59-0.81-1.4-1.21-2.41-1.21c-1,0-1.79,0.4-2.38,1.19C196.75,16.9,196.46,18.09,196.46,19.67z"/>
<path d="M215.71,15.51c-0.4-0.07-0.82-0.1-1.25-0.1c-1.4,0-2.35,0.54-2.83,1.61v9.32h-3.06V12.71h2.92l0.08,1.52
	c0.74-1.18,1.76-1.78,3.07-1.78c0.44,0,0.8,0.06,1.08,0.18L215.71,15.51z"/>
<path d="M234.91,9.4v3.31h2.41v2.27h-2.41v7.61c0,0.52,0.1,0.9,0.31,1.13c0.21,0.23,0.57,0.35,1.1,0.35c0.35,0,0.71-0.04,1.07-0.13
	v2.37c-0.7,0.19-1.37,0.29-2.02,0.29c-2.35,0-3.53-1.3-3.53-3.89v-7.72h-2.24v-2.27h2.24V9.4H234.91z"/>
<path d="M245.57,26.59c-1.94,0-3.51-0.61-4.72-1.83c-1.2-1.22-1.81-2.85-1.81-4.88V19.5c0-1.36,0.26-2.58,0.79-3.65
	c0.52-1.07,1.26-1.9,2.21-2.5c0.95-0.6,2.01-0.89,3.17-0.89c1.86,0,3.29,0.59,4.3,1.78s1.52,2.86,1.52,5.03v1.23h-8.91
	c0.09,1.13,0.47,2.02,1.13,2.67c0.66,0.65,1.49,0.98,2.49,0.98c1.4,0,2.54-0.57,3.43-1.7l1.65,1.57c-0.55,0.81-1.27,1.45-2.19,1.9
	C247.73,26.37,246.71,26.59,245.57,26.59z M245.21,14.92c-0.84,0-1.52,0.29-2.03,0.88c-0.52,0.59-0.85,1.41-0.99,2.46h5.83v-0.23
	c-0.07-1.02-0.34-1.8-0.82-2.32C246.72,15.18,246.06,14.92,245.21,14.92z"/>
<path d="M257.55,9.4v3.31h2.41v2.27h-2.41v7.61c0,0.52,0.1,0.9,0.31,1.13c0.21,0.23,0.57,0.35,1.1,0.35c0.35,0,0.71-0.04,1.07-0.13
	v2.37c-0.7,0.19-1.37,0.29-2.02,0.29c-2.35,0-3.53-1.3-3.53-3.89v-7.72h-2.24v-2.27h2.24V9.4H257.55z"/>
<circle cx="145.28" cy="9.25" r="1.71"/>
<path d="M225.34,26.34c-0.13-0.26-0.25-0.68-0.35-1.27c-0.97,1.02-2.17,1.52-3.58,1.52c-1.37,0-2.49-0.39-3.35-1.17
	s-1.3-1.75-1.3-2.9c0-1.45,0.54-2.57,1.62-3.34c1.08-0.78,2.62-1.17,4.63-1.17h1.88v-0.89c0-0.71-0.2-1.27-0.59-1.69
	c-0.39-0.42-1-0.64-1.8-0.64c-0.7,0-1.27,0.17-1.71,0.52c-0.45,0.35-0.67,0.79-0.67,1.33h-2.92c0-0.75,0.25-1.45,0.74-2.1
	c0.5-0.65,1.03-1.16,1.88-1.53c0.85-0.37,1.8-0.55,2.85-0.55c1.6,0,2.87,0.4,3.82,1.2c0.95,0.8,1.44,1.93,1.46,3.38v6.15
	c0,1.23,0.17,2.42,0.52,3.15l0,0H225.34z M221.97,24.13c0.6,0,1.17-0.15,1.71-0.44c0.53-0.29,0.93-0.69,1.2-1.18v-2.57h-1.65
	c-1.13,0-1.99,0.2-2.56,0.59c-0.57,0.39-0.86,0.95-0.86,1.68c0,0.59,0.2,1.06,0.59,1.4C220.8,23.96,221.32,24.13,221.97,24.13z"/>
</svg>
