<?xml version="1.0" encoding="utf-8"?>
<!-- Generator: Adobe Illustrator 21.1.0, SVG Export Plug-In . SVG Version: 6.00 Build 0)  -->
<svg version="1.1" id="Layer_1" xmlns="http://www.w3.org/2000/svg" xmlns:xlink="http://www.w3.org/1999/xlink" x="0px" y="0px"
	 viewBox="0 0 398.5 41.5" style="enable-background:new 0 0 398.5 41.5;" xml:space="preserve">
<style type="text/css">
	.st0{fill:#05526A;}
	.st1{fill:#0B80A5;}
	.st2{fill:#ED2C91;}
	.st3{fill:#FFFFFF;}
	.st4{enable-background:new    ;}
	.st5{fill:#C38CB6;}
</style>
<title>Asset 2</title>
<g id="Layer_2">
	<g id="Layer_1-2">
		<path class="st0" d="M14.1,5.6L14.1,5.6c1.1,0.4,2.2,0,2.7-1l0.9-1.8c0.4-1,0-2.1-1-2.6h-0.1c-1-0.4-2.1,0-2.6,1l0,0L13.1,3
			C12.6,4,13.1,5.1,14.1,5.6z"/>
		<path class="st0" d="M21,11.9l-0.2-0.1c-6-3.1-17.2-9-18.5-9.6s-1.5-0.2-2,0.5s-0.6,1.2,0.3,1.9C1.3,5,4.1,6.7,5.9,8.1
			C7.3,9,8.4,10.4,9,12l4.9,20.5c0.3,1.2,1,1.2,1.6,1.1s1.4-0.2,1.3-1.7l-0.7-15.8c-0.1-1.5,1-2.1,2.3-1.4l2.5,1.2l2,1l0,0
			c0.3-1.1,0.6-2.2,1.1-3.2l0,0C23.3,13.2,22,12.4,21,11.9z"/>
		<path class="st1" d="M42.5,1.4c-1.7,0-3.5,0.2-5.1,0.7c0,0.2,0,0.3,0,0.5c0.1,2.4,0.3,5.8,0.5,7.5c0.1,1.3,0.5,2.5,1.3,3.5
			c0.8,0.9,1.9,1.6,3,2c1.4,0.6,6.1,2.5,7.5,3.1s1.2,1,0.9,1.9s-0.6,1.1-1.9,0.7s-7.2-2.3-8.5-2.6c-0.7-0.3-1.5-0.1-1.9,0.6
			C36.9,21,37,24.5,38,27.4c0.5,1.3,1.2,3.5,1.6,4.9s-0.3,1.6-0.7,1.8c-0.9,0.4-1.4,0.4-2-0.8s-2-5.1-3.6-8.2s-3.4-4.5-6.7-6.4l0,0
			L26,18.5l-3-1.6c-0.2,0.9-0.4,1.8-0.5,2.6c-0.1,0.6-0.1,1.3-0.1,2c0,11,9,20,20,20s20-9,20-20S53.5,1.5,42.5,1.4L42.5,1.4z
			 M45.7,10.4l-1.3,1.4c-0.7,0.8-1.9,0.8-2.7,0.1c0,0,0,0,0,0l-0.1-0.1c-0.8-0.7-0.8-1.9-0.1-2.7l1.3-1.4c0.7-0.8,1.9-0.8,2.7-0.1
			l0.1,0.1C46.4,8.5,46.4,9.7,45.7,10.4L45.7,10.4L45.7,10.4z"/>
		<path class="st1" d="M25.2,11.3c-0.4,0.7-0.8,1.5-1.2,2.3l0,0l1.9,1l0.6,0.3c0,0,3.2,1.5,4.2,1.9c2.4,1,3.6-2.7,3.6-5.5
			c0-1.6,0-7,0-7.7V3.1C30.6,4.8,27.4,7.7,25.2,11.3z"/>
		<polygon class="st2" points="24.1,13.6 24.1,13.6 24.1,13.6 		"/>
		<polygon class="st2" points="23,16.9 23,16.9 23,16.9 23,16.9 		"/>
		<path class="st2" d="M23,16.8"/>
		<path class="st2" d="M24.1,13.6"/>
		<path class="st3" d="M45.6,7.7c-0.8-0.7-1.9-0.7-2.7,0.1l-1.3,1.4c-0.7,0.8-0.7,1.9,0.1,2.7l0.1,0.1c0.8,0.7,1.9,0.7,2.7-0.1
			c0,0,0,0,0,0l1.3-1.4C46.4,9.7,46.4,8.5,45.6,7.7L45.6,7.7z"/>
		<path class="st3" d="M49.7,18.7c-1.4-0.5-6.1-2.4-7.5-3.1c-1.1-0.4-2.2-1.1-3-2c-0.8-1-1.3-2.2-1.3-3.5c-0.2-1.7-0.5-5.2-0.5-7.5
			c0-0.2,0-0.3,0-0.5c-1,0.3-2,0.6-2.9,1v0.5c0,0.7,0,6,0,7.7c0,2.8-1.2,6.5-3.5,5.5c-1-0.4-4.2-1.9-4.2-1.9L26,14.6l-1.9-1l0,0
			c-0.5,1.1-0.8,2.1-1.1,3.2l0,0l3,1.6l0.6,0.3l0,0c3.3,2,5,3.3,6.7,6.4c1.7,3.1,3,7,3.6,8.2s1,1.2,2,0.8c0.5-0.2,1.2-0.4,0.7-1.8
			s-1.2-3.7-1.6-4.9c-1-2.9-1-6.3,0.3-8.1c0.4-0.6,1.2-0.9,1.9-0.6c1.4,0.4,7.2,2.3,8.5,2.6s1.6,0.2,1.9-0.7S51,19.3,49.7,18.7z"/>
		<path class="st0" d="M95.6,32.4h-3.9v-10H81.7v10h-3.9V9.8h3.9v9.4h10.1V9.8h3.9L95.6,32.4z"/>
		<path class="st0" d="M107.2,32.7c-2.2,0.1-4.3-0.7-5.8-2.2c-1.5-1.6-2.3-3.8-2.2-6V24c0-1.6,0.3-3.1,1-4.5
			c0.6-1.3,1.5-2.3,2.7-3.1c1.2-0.7,2.5-1.1,3.9-1.1c2-0.1,3.9,0.7,5.2,2.2c1.3,1.8,2,4,1.9,6.2v1.5h-10.9c0,1.2,0.5,2.4,1.4,3.3
			c0.8,0.8,1.9,1.2,3.1,1.2c1.7,0,3.2-0.7,4.2-2.1l2,1.9c-0.7,1-1.6,1.8-2.7,2.3C109.7,32.4,108.5,32.7,107.2,32.7z M106.7,18.3
			c-1,0-1.9,0.4-2.5,1.1c-0.7,0.9-1.1,1.9-1.2,3h7.2v-0.3c0-1-0.4-2-1-2.9C108.5,18.6,107.6,18.3,106.7,18.3z"/>
		<path class="st0" d="M120.7,32.4h-3.8V9.3h3.8V32.4z"/>
		<path class="st0" d="M134.1,27.8c0-0.6-0.3-1.2-0.8-1.5c-0.9-0.5-1.8-0.8-2.8-0.9c-1.1-0.2-2.2-0.5-3.2-1
			c-1.9-0.9-2.8-2.2-2.8-3.9c0-1.4,0.7-2.8,1.8-3.6c1.3-1,3-1.5,4.6-1.5c1.7-0.1,3.5,0.4,4.9,1.5c1.2,0.9,1.9,2.3,1.8,3.9h-3.8
			c0-0.7-0.3-1.4-0.8-1.8c-0.6-0.5-1.4-0.8-2.1-0.7c-0.7,0-1.4,0.2-2,0.6c-0.5,0.3-0.8,0.9-0.8,1.5c0,0.5,0.3,1.1,0.7,1.4
			c0.9,0.5,1.9,0.8,2.9,1c1.2,0.2,2.4,0.6,3.5,1.2c0.8,0.4,1.4,0.9,1.9,1.6c0.4,0.7,0.6,1.5,0.6,2.3c0,1.5-0.7,2.8-1.9,3.7
			c-1.4,1-3.2,1.5-4.9,1.4c-1.3,0-2.5-0.2-3.7-0.8c-1-0.4-1.9-1.1-2.5-2c-0.6-0.8-0.9-1.8-0.9-2.8h3.7c0,0.8,0.4,1.5,1,2
			c0.7,0.5,1.6,0.8,2.5,0.7c0.8,0.1,1.6-0.1,2.2-0.6C133.8,29,134.1,28.4,134.1,27.8z"/>
		<path class="st0" d="M148.3,32.7c-2.2,0.1-4.3-0.7-5.8-2.2c-1.5-1.6-2.3-3.8-2.2-6V24c0-1.6,0.3-3.1,1-4.5
			c0.6-1.3,1.5-2.3,2.7-3.1c1.2-0.7,2.5-1.1,3.9-1.1c2-0.1,3.9,0.7,5.3,2.2c1.3,1.8,2,4,1.8,6.2v1.5h-10.9c0,1.2,0.5,2.4,1.4,3.3
			c0.8,0.8,1.9,1.2,3.1,1.2c1.7,0,3.2-0.7,4.2-2.1l2,1.9c-0.7,1-1.6,1.8-2.7,2.3C150.9,32.4,149.6,32.7,148.3,32.7z M147.8,18.3
			c-1,0-1.9,0.4-2.5,1.1c-0.7,0.9-1.1,1.9-1.2,3h7.2v-0.3c0-1-0.4-2-1-2.9C149.7,18.6,148.8,18.3,147.8,18.3L147.8,18.3z"/>
		<path class="st0" d="M157.1,23.9c-0.1-2.2,0.5-4.4,1.8-6.2c1.1-1.5,2.9-2.4,4.8-2.3c1.6-0.1,3.2,0.6,4.3,1.8V9.3h3.8v23.1h-3.4
			l-0.2-1.7c-1.1,1.3-2.8,2.1-4.5,2c-1.9,0-3.6-0.8-4.7-2.3C157.7,28.4,157,26.2,157.1,23.9z M160.9,24.2c-0.1,1.4,0.3,2.8,1,4
			c0.6,0.9,1.7,1.5,2.8,1.4c1.4,0.1,2.8-0.8,3.4-2.1v-7.2c-0.6-1.3-1.9-2.1-3.3-2c-1.1,0-2.2,0.5-2.8,1.4
			C161.2,21.2,160.8,22.7,160.9,24.2L160.9,24.2z"/>
		<path class="st0" d="M179.9,32.4h-3.8V15.6h3.8V32.4z"/>
		<path class="st0" d="M192.9,19.1c-0.5-0.1-1-0.1-1.5-0.1c-1.5-0.1-2.9,0.7-3.5,2v11.4h-3.8V15.6h3.6l0.1,1.9
			c0.8-1.4,2.2-2.2,3.8-2.2c0.5,0,0.9,0.1,1.3,0.2L192.9,19.1z"/>
		<path class="st0" d="M201.8,32.7c-2.2,0.1-4.3-0.7-5.8-2.2c-1.5-1.6-2.3-3.8-2.2-6V24c0-1.6,0.3-3.1,1-4.5
			c0.6-1.3,1.5-2.3,2.7-3.1c1.2-0.7,2.5-1.1,3.9-1.1c2-0.1,3.9,0.7,5.3,2.2c1.3,1.8,2,4,1.9,6.2v1.5h-10.9c0,1.2,0.5,2.4,1.4,3.3
			c0.8,0.8,1.9,1.2,3,1.2c1.7,0,3.2-0.7,4.2-2.1l2,1.9c-0.7,1-1.6,1.8-2.7,2.3C204.4,32.4,203.1,32.7,201.8,32.7z M201.4,18.3
			c-1,0-1.9,0.4-2.5,1.1c-0.7,0.9-1.1,1.9-1.2,3h7.2v-0.3c0-1-0.4-2-1-2.9C203.2,18.6,202.3,18.2,201.4,18.3L201.4,18.3z"/>
		<path class="st0" d="M216.8,25.2l-1.7,1.7v5.5h-3.8V9.3h3.8v13l1.2-1.5l4.6-5.2h4.5l-6.2,7l6.9,9.8h-4.3L216.8,25.2z"/>
		<path class="st0" d="M232.5,11.6v4.1h3v2.8h-3v9.3c0,0.5,0.1,1,0.4,1.4c0.4,0.3,0.9,0.5,1.4,0.4c0.4,0,0.9-0.1,1.3-0.2v2.9
			c-0.8,0.2-1.6,0.4-2.5,0.4c-2.9,0-4.3-1.6-4.3-4.8v-9.5H226v-2.8h2.8v-4.1H232.5z"/>
		<path class="st0" d="M237.1,23.8c0-1.5,0.3-3.1,1-4.4c0.6-1.2,1.6-2.3,2.8-3c1.2-0.7,2.6-1.1,4-1.1c2.1-0.1,4.1,0.7,5.5,2.2
			c1.5,1.6,2.3,3.6,2.3,5.8v0.9c0,1.5-0.3,3-1,4.4c-0.6,1.2-1.5,2.3-2.7,3c-1.2,0.7-2.7,1.1-4.1,1.1c-2.1,0.1-4.2-0.8-5.7-2.4
			c-1.5-1.8-2.2-4-2.1-6.3L237.1,23.8z M240.8,24.2c-0.1,1.4,0.3,2.8,1.1,4c0.7,1,1.8,1.5,3,1.5c1.2,0.1,2.3-0.5,3-1.5
			c0.8-1.3,1.2-2.8,1.1-4.4c0.1-1.4-0.3-2.8-1.1-4c-0.7-1-1.8-1.5-3-1.5c-1.2,0-2.3,0.5-2.9,1.5C241.1,21.1,240.7,22.6,240.8,24.2
			L240.8,24.2z"/>
		<path class="st0" d="M264.5,19.1c-0.5-0.1-1-0.1-1.5-0.1c-1.5-0.1-2.9,0.7-3.5,2v11.4h-3.8V15.6h3.6l0.1,1.9
			c0.8-1.4,2.2-2.2,3.8-2.2c0.5,0,0.9,0.1,1.3,0.2L264.5,19.1z"/>
		<path class="st0" d="M288,11.6v4.1h3v2.8h-3v9.3c0,0.5,0.1,1,0.4,1.4c0.4,0.3,0.9,0.5,1.4,0.4c0.4,0,0.9-0.1,1.3-0.2v2.9
			c-0.8,0.2-1.6,0.4-2.5,0.4c-2.9,0-4.3-1.6-4.3-4.8v-9.5h-2.8v-2.8h2.8v-4.1H288z"/>
		<path class="st0" d="M301.1,32.7c-2.2,0.1-4.3-0.7-5.8-2.2c-1.5-1.6-2.3-3.8-2.2-6V24c0-1.6,0.3-3.1,1-4.5
			c0.6-1.3,1.5-2.3,2.7-3.1c1.2-0.7,2.5-1.1,3.9-1.1c2-0.1,3.9,0.7,5.3,2.2c1.3,1.8,2,4,1.9,6.2v1.5h-10.9c0,1.2,0.5,2.4,1.4,3.3
			c0.8,0.8,1.9,1.2,3.1,1.2c1.7,0,3.2-0.7,4.2-2.1l2,1.9c-0.7,1-1.6,1.8-2.7,2.3C303.7,32.4,302.4,32.7,301.1,32.7z M300.7,18.3
			c-1,0-1.9,0.4-2.5,1.1c-0.7,0.9-1.1,1.9-1.2,3h7.2v-0.3c0-1-0.4-2-1-2.9C302.5,18.6,301.6,18.2,300.7,18.3L300.7,18.3z"/>
		<path class="st0" d="M315.8,11.6v4.1h3v2.8h-3v9.3c0,0.5,0.1,1,0.4,1.4c0.4,0.3,0.9,0.5,1.4,0.4c0.4,0,0.9-0.1,1.3-0.2v2.9
			c-0.8,0.2-1.6,0.4-2.5,0.4c-2.9,0-4.3-1.6-4.3-4.8v-9.5h-2.8v-2.8h2.8v-4.1H315.8z"/>
		<circle class="st0" cx="178" cy="11.4" r="2.1"/>
		<path class="st0" d="M276.3,32.4c-0.2-0.5-0.4-1-0.4-1.6c-2.3,2.3-6,2.5-8.5,0.4c-1-0.9-1.6-2.2-1.6-3.6c-0.1-1.6,0.7-3.2,2-4.1
			c1.7-1.1,3.7-1.6,5.7-1.4h2.3V21c0-0.7-0.2-1.4-0.7-2c-0.6-0.6-1.4-0.8-2.2-0.8c-0.8,0-1.5,0.2-2.1,0.6c-0.5,0.4-0.8,1-0.8,1.6
			h-3.6c0-0.9,0.3-1.8,0.9-2.6c0.6-0.8,1.4-1.5,2.3-1.9c1.1-0.5,2.3-0.7,3.5-0.7c1.7-0.1,3.4,0.4,4.7,1.5c1.2,1.1,1.8,2.6,1.8,4.2
			v7.5c0,1.3,0.2,2.6,0.6,3.9H276.3L276.3,32.4z M272.1,29.7c0.7,0,1.5-0.2,2.1-0.5c0.6-0.3,1.1-0.8,1.5-1.5v-3.2h-2
			c-1.1-0.1-2.2,0.2-3.1,0.7c-0.7,0.5-1.1,1.2-1,2.1c0,0.7,0.2,1.3,0.7,1.7C270.8,29.5,271.5,29.7,272.1,29.7L272.1,29.7z"/>
		<g class="st4">
			<path class="st5" d="M332.3,12.4c1.2-0.2,3.6-0.4,5.9-0.4c2.8,0,4.5,0.3,6,1.1c1.4,0.8,2.4,2.1,2.4,4c0,1.8-1.1,3.5-3.3,4.3v0.1
				c2.3,0.6,4,2.4,4,5c0,1.8-0.8,3.3-2.1,4.3c-1.5,1.2-3.9,1.8-8,1.8c-2.2,0-3.9-0.2-4.9-0.3V12.4z M336.8,20.2h1.5
				c2.4,0,3.7-1,3.7-2.5c0-1.5-1.2-2.3-3.2-2.3c-1,0-1.6,0.1-2,0.1V20.2z M336.8,29.1c0.5,0.1,1,0.1,1.8,0.1c2.1,0,3.9-0.8,3.9-2.9
				c0-2-1.8-2.8-4.1-2.8h-1.6V29.1z"/>
		</g>
		<g class="st4">
			<path class="st5" d="M362.4,23.8H355v4.8h8.3v3.8h-12.9V12.2h12.5v3.7H355v4.2h7.4V23.8z"/>
		</g>
		<g class="st4">
			<path class="st5" d="M370.5,16H365v-3.8h15.5V16h-5.5v16.4h-4.6V16z"/>
		</g>
		<g class="st4">
			<path class="st5" d="M385.6,27.2l-1.4,5.2h-4.7l6.2-20.2h6l6.3,20.2h-4.9l-1.6-5.2H385.6z M390.7,23.8l-1.3-4.3
				c-0.4-1.2-0.7-2.7-1-3.9h-0.1c-0.3,1.2-0.6,2.7-0.9,3.9l-1.2,4.3H390.7z"/>
		</g>
	</g>
</g>
</svg>
