<?xml version="1.0" encoding="utf-8"?>
<!-- Generator: Adobe Illustrator 24.1.0, SVG Export Plug-In . SVG Version: 6.00 Build 0)  -->
<svg version="1.1" id="Layer_1" xmlns="http://www.w3.org/2000/svg" xmlns:xlink="http://www.w3.org/1999/xlink" x="0px" y="0px"
	 viewBox="0 0 89 58" style="enable-background:new 0 0 89 58;" xml:space="preserve">
<style type="text/css">
	.Graphic_x0020_Style{fill:none;}
	.st0{fill:#ED3F96;}
	.st1{clip-path:url(#XMLID_6_);}
	.st2{fill:#722A82;}
	.st3{fill:#405FAA;}
	.st4{fill:#0D8040;}
	.st5{fill:#FCEB05;}
	.st6{fill:#F58B1F;}
	.st7{fill:#E21E26;}
	.st8{clip-path:url(#XMLID_7_);}
</style>
<desc>Created with Sketch.</desc>
<g>
	<path d="M20.61,7.52l0.13,0.06c1.38,0.62,3.02-0.01,3.64-1.39l1.22-2.56c0.62-1.38-0.01-3.02-1.39-3.64l-0.13-0.06
		c-1.38-0.62-3.02,0.01-3.64,1.39l-1.22,2.56C18.6,5.26,19.22,6.9,20.61,7.52z"/>
	<g>
		<defs>
			<path id="XMLID_3_" d="M30.33,16.3c-0.08-0.04-0.17-0.09-0.24-0.13C21.71,11.9,6.05,3.6,4.21,2.68C2.49,1.82,2.09,2.34,1.46,3.4
				C0.84,4.45,0.63,5.11,1.93,6.04c0.85,0.61,4.71,2.99,7.27,4.91c1.95,1.46,3.82,3.44,4.32,5.47l6.86,28.62
				c0.42,1.69,1.36,1.65,2.3,1.51c1.02-0.15,1.91-0.23,1.84-2.33l-0.93-22.08c-0.09-2.1,1.38-3,3.25-2.02l3.5,1.74l2.78,1.38
				c0.01-0.01,0.01-0.02,0.02-0.03c0.37-1.56,0.87-3.08,1.49-4.53c0,0,0-0.01,0-0.01c0,0,0,0,0,0c0,0,0,0,0,0
				C33.52,18.08,31.66,16.99,30.33,16.3z"/>
		</defs>
		<use xlink:href="#XMLID_3_"  style="overflow:visible;"/>
		<clipPath id="XMLID_5_">
			<use xlink:href="#XMLID_3_"  style="overflow:visible;"/>
		</clipPath>
	</g>
</g>
<polygon class="st0" points="34.62,18.69 34.62,18.69 34.62,18.69 "/>
<polygon class="st0" points="33.12,23.25 33.12,23.25 33.12,23.25 33.12,23.25 "/>
<path class="st0" d="M33.13,23.22c-0.01,0.01-0.01,0.02-0.02,0.03l0.01,0C33.13,23.24,33.13,23.23,33.13,23.22z"/>
<polygon class="st0" points="34.62,18.68 34.62,18.69 34.62,18.69 "/>
<g>
	<g>
		<defs>
			<path id="XMLID_1_" d="M60.32,1.74c-2.48,0-4.89,0.33-7.18,0.93c0.01,0.24,0.02,0.48,0.03,0.72c0.1,3.32,0.41,8.14,0.71,10.54
				c0.23,1.77,0.57,3.38,1.87,4.89c1.11,1.28,2.28,1.91,4.19,2.8c1.92,0.91,8.54,3.52,10.43,4.28c1.89,0.77,1.75,1.42,1.32,2.67
				c-0.44,1.25-0.85,1.52-2.69,0.99c-1.84-0.54-10.03-3.21-11.96-3.7c-1.11-0.28-1.74-0.27-2.6,0.78
				c-1.91,2.49-1.83,7.29-0.44,11.38c0.62,1.8,1.61,4.92,2.25,6.91c0.65,1.98-0.39,2.26-1.04,2.55c-1.27,0.55-1.94,0.55-2.72-1.06
				c-0.8-1.64-2.79-7.16-5.03-11.48c-2.24-4.33-4.68-6.23-9.32-8.96v0l-0.87-0.46l-4.19-2.23c-0.28,1.21-0.48,2.44-0.61,3.7
				c-0.09,0.9-0.15,1.81-0.15,2.74c0,15.45,12.53,27.98,27.98,27.98c15.45,0,27.98-12.53,27.98-27.98
				C88.3,14.27,75.77,1.74,60.32,1.74z M64.84,14.31l-1.89,1.93c-0.99,1.06-2.66,1.11-3.71,0.13l-0.1-0.09
				c-1.06-0.99-1.11-2.66-0.13-3.71l1.89-1.93c0.99-1.06,2.66-1.11,3.71-0.13l0.1,0.09C65.77,11.58,65.83,13.26,64.84,14.31z"/>
		</defs>
		<use xlink:href="#XMLID_1_"  style="overflow:visible;fill:#0280A6;"/>
		<clipPath id="XMLID_6_">
			<use xlink:href="#XMLID_1_"  style="overflow:visible;"/>
		</clipPath>
		<g class="st1">
			<rect x="30.2" y="-0.62" class="st2" width="95.03" height="58.7"/>
			<rect x="30.2" y="-0.62" class="st3" width="95.03" height="48.92"/>
			<rect x="30.2" y="-0.62" class="st4" width="95.03" height="39.14"/>
			<rect x="30.2" y="-0.62" class="st5" width="95.03" height="29.35"/>
			<rect x="30.2" y="-0.62" class="st6" width="95.03" height="19.57"/>
			<rect x="30.2" y="-0.62" class="st7" width="95.03" height="9.78"/>
		</g>
	</g>
	<g>
		<defs>
			<path id="XMLID_2_" d="M36.23,15.5c-0.61,1.03-1.16,2.1-1.64,3.21c0,0,0,0,0,0c0.63,0.32,1.85,0.94,2.69,1.36
				c0.51,0.26,0.87,0.44,0.87,0.44c-0.01,0,4.51,2.11,5.93,2.69c3.34,1.35,4.96-3.77,4.96-7.72c0-2.29,0.06-9.73,0.06-10.7
				c0-0.24,0-0.47,0-0.71C43.71,6.45,39.2,10.47,36.23,15.5z"/>
		</defs>
		<use xlink:href="#XMLID_2_"  style="overflow:visible;fill:#0280A6;"/>
		<clipPath id="XMLID_7_">
			<use xlink:href="#XMLID_2_"  style="overflow:visible;"/>
		</clipPath>
		<g class="st8">
			<rect x="32.34" y="-0.18" class="st2" width="90.26" height="55.76"/>
			<rect x="32.34" y="-0.18" class="st3" width="90.26" height="46.46"/>
			<rect x="32.34" y="-0.18" class="st4" width="90.26" height="37.17"/>
			<rect x="32.34" y="-0.18" class="st5" width="90.26" height="27.88"/>
			<rect x="32.34" y="-0.18" class="st6" width="90.26" height="18.59"/>
			<rect x="32.34" y="-0.18" class="st7" width="90.26" height="9.29"/>
		</g>
	</g>
</g>
</svg>
