<?xml version="1.0" encoding="utf-8"?>
<!-- Generator: Adobe Illustrator 24.1.0, SVG Export Plug-In . SVG Version: 6.00 Build 0)  -->
<svg version="1.1" id="Layer_1" xmlns="http://www.w3.org/2000/svg" xmlns:xlink="http://www.w3.org/1999/xlink" x="0px" y="0px"
	 viewBox="0 0 352.6 138" style="enable-background:new 0 0 352.6 138;" xml:space="preserve">
<style type="text/css">
	.st0{clip-path:url(#SVGID_2_);}
	.st1{fill:#702282;}
	.st2{fill:#3157A4;}
	.st3{fill:#0C8136;}
	.st4{fill:#FEEB1A;}
	.st5{fill:#F28A1A;}
	.st6{fill:#E31013;}
	.st7{clip-path:url(#SVGID_4_);}
	.st8{enable-background:new    ;}
	.st9{fill:#002C4D;}
</style>
<g id="white">
	<g>
		<g>
			<g>
				<defs>
					<polygon id="SVGID_1_" points="234.65,1.18 313.23,1.18 273.89,69.22 					"/>
				</defs>
				<clipPath id="SVGID_2_">
					<use xlink:href="#SVGID_1_"  style="overflow:visible;"/>
				</clipPath>
				<g id="Layer_2_3_" class="st0">
					<rect x="-16.88" y="1.18" class="st1" width="368.07" height="136.17"/>
					<rect x="-16.88" y="1.18" class="st2" width="368.07" height="113.49"/>
					<rect x="-16.88" y="1.18" class="st3" width="368.07" height="90.71"/>
					<rect x="-16.88" y="1.18" class="st4" width="368.07" height="68.03"/>
					<rect x="-16.88" y="1.18" class="st5" width="368.07" height="45.36"/>
					<rect x="-16.88" y="1.18" class="st6" width="368.07" height="22.68"/>
				</g>
			</g>
		</g>
	</g>
	<g>
		<g>
			<g>
				<defs>
					<path id="SVGID_3_" d="M234.65,137.25L313.23,1.18l37.86,65.67c0.89,1.48,0.89,3.35,0,4.83l-37.86,65.67l-78.58,0
						L234.65,137.25L234.65,137.25z"/>
				</defs>
				<clipPath id="SVGID_4_">
					<use xlink:href="#SVGID_3_"  style="overflow:visible;"/>
				</clipPath>
				<g id="Layer_2_2_" class="st7">
					<rect x="-16.88" y="1.18" class="st1" width="368.07" height="136.17"/>
					<rect x="-16.88" y="1.18" class="st2" width="368.07" height="113.49"/>
					<rect x="-16.88" y="1.18" class="st3" width="368.07" height="90.71"/>
					<rect x="-16.88" y="1.18" class="st4" width="368.07" height="68.03"/>
					<rect x="-16.88" y="1.18" class="st5" width="368.07" height="45.36"/>
					<rect x="-16.88" y="1.18" class="st6" width="368.07" height="22.68"/>
				</g>
			</g>
		</g>
	</g>
</g>
<g>
	<g class="st8">
		<path class="st9" d="M58.93,97.94h-16.8V68.67H17.24v29.27H0.34v-70.1h16.9v27.83h24.89V27.84h16.8V97.94z"/>
		<path class="st9" d="M94.08,98.9c-7.99,0-14.46-2.38-19.4-7.15c-4.94-4.77-7.41-10.97-7.41-18.61V71.8
			c0-5.33,0.99-10.03,2.96-14.11c1.97-4.08,4.85-7.23,8.64-9.46c3.79-2.23,8.28-3.35,13.48-3.35c7.32,0,13.1,2.27,17.33,6.81
			c4.24,4.54,6.35,10.87,6.35,18.99V77H83.78c0.58,2.92,1.85,5.22,3.8,6.88c1.96,1.67,4.49,2.5,7.61,2.5c5.13,0,9.15-1.8,12.04-5.39
			l7.41,8.76c-2.02,2.79-4.89,5.02-8.59,6.67S98.35,98.9,94.08,98.9z M92.25,57.4c-4.75,0-7.58,3.15-8.47,9.44h16.37v-1.25
			c0.06-2.6-0.59-4.61-1.97-6.04C96.79,58.12,94.82,57.4,92.25,57.4z"/>
		<path class="st9" d="M139.67,97.94H123.4V23.99h16.27V97.94z"/>
		<path class="st9" d="M153.25,97.94V57.11h-7.56V45.85h7.56v-4.14c0-5.94,1.75-10.54,5.25-13.82c3.5-3.27,8.41-4.91,14.73-4.91
			c2.31,0,4.85,0.34,7.61,1.01l0.05,11.94c-1-0.29-2.33-0.43-4-0.43c-4.91,0-7.37,2.12-7.37,6.35v4h10.16v11.27h-10.16v40.83H153.25
			z"/>
		<path class="st9" d="M183.34,71.41c0-5.2,1.01-9.83,3.03-13.89c2.02-4.06,4.93-7.18,8.71-9.36c3.79-2.18,8.23-3.27,13.34-3.27
			c7.8,0,13.95,2.42,18.44,7.25c4.49,4.83,6.74,11.4,6.74,19.71v0.58c0,8.12-2.26,14.56-6.76,19.33
			c-4.51,4.77-10.62,7.15-18.32,7.15c-7.42,0-13.37-2.22-17.86-6.67c-4.49-4.45-6.92-10.47-7.27-18.08L183.34,71.41z M199.56,72.42
			c0,4.81,0.75,8.35,2.26,10.59c1.51,2.25,3.74,3.37,6.69,3.37c5.78,0,8.73-4.45,8.86-13.34v-1.64c0-9.34-2.99-14.01-8.96-14.01
			c-5.42,0-8.36,4.03-8.81,12.08L199.56,72.42z"/>
	</g>
</g>
</svg>
