<?xml version="1.0" encoding="UTF-8"?>
<svg width="106px" height="42px" viewBox="0 0 106 42" version="1.1" xmlns="http://www.w3.org/2000/svg" xmlns:xlink="http://www.w3.org/1999/xlink">
    <!-- Generator: Sketch 52.6 (67491) - http://www.bohemiancoding.com/sketch -->
    <title>Group 12</title>
    <desc>Created with Sketch.</desc>
    <defs>
        <linearGradient x1="87.1516939%" y1="69.9944928%" x2="30.0247177%" y2="-24.2428986%" id="linearGradient-1">
            <stop stop-color="#3A8CAA" offset="0%"></stop>
            <stop stop-color="#5CACCD" offset="15.65%"></stop>
            <stop stop-color="#77C5E9" offset="31.1%"></stop>
            <stop stop-color="#81CFF4" offset="40%"></stop>
            <stop stop-color="#81CFF4" offset="48.75%"></stop>
            <stop stop-color="#81CFF4" offset="100%"></stop>
        </linearGradient>
    </defs>
    <g id="Design-master" stroke="none" stroke-width="1" fill="none" fill-rule="evenodd">
        <g id="SISTE_Helfo-forside---egen-modul-for-pasient-Copy" transform="translate(-120.000000, -394.000000)" fill-rule="nonzero">
            <g id="Group-12" transform="translate(120.000000, 394.150000)">
                <g id="Group-11">
                    <g id="Group-10">
                        <g id="Group-9">
                            <g id="Group-7">
                                <g id="Group-4">
                                    <g id="Group-2">
                                        <g id="Helfologo-rgb">
                                            <g id="Group" transform="translate(69.960000, 0.000000)">
                                                <polygon id="Shape" fill="url(#linearGradient-1)" points="0.0605714286 0 24.1982857 0 12.1445714 20.8971429"></polygon>
                                                <path d="M0.0605714286,41.7942857 L24.1982857,0 L35.828,20.14 C36.1005714,20.5942857 36.1005714,21.1697143 35.828,21.624 L24.1982857,41.7942857 L0.0605714286,41.7942857 Z" id="Shape" fill="#81CFF4"></path>
                                            </g>
                                            <polygon id="Shape" fill="#003057" points="0 10.9028571 4.17942857 10.9028571 4.17942857 18.8377143 11.9022857 18.8377143 11.9022857 10.9028571 16.0817143 10.9028571 16.0817143 30.7702857 11.9325714 30.7702857 11.9325714 22.7142857 4.17942857 22.7142857 4.17942857 30.7702857 0 30.7702857"></polygon>
                                            <path d="M18.0805714,23.5622857 L18.0805714,23.5017143 C18.0805714,19.3222857 21.0485714,15.9 25.2885714,15.9 C30.1645714,15.9 32.4057143,19.6857143 32.4057143,23.8348571 C32.4057143,24.168 32.3754286,24.5314286 32.3451429,24.9251429 L22.1691429,24.9251429 C22.5628571,26.8028571 23.8954286,27.772 25.7428571,27.772 C27.136,27.772 28.1354286,27.348 29.2862857,26.288 L31.6485714,28.3777143 C30.2857143,30.0737143 28.3171429,31.1034286 25.6822857,31.1034286 C21.3211429,31.1034286 18.0805714,28.0142857 18.0805714,23.5622857 Z M28.3474286,22.3205714 C28.1051429,20.4731429 27.0148571,19.2314286 25.2582857,19.2314286 C23.532,19.2314286 22.4417143,20.4428571 22.1085714,22.3205714 L28.3474286,22.3205714 Z" id="Shape" fill="#003057"></path>
                                            <polygon id="Shape" fill="#003057" points="34.344 10.9028571 38.4931429 10.9028571 38.4931429 30.7702857 34.344 30.7702857"></polygon>
                                            <path d="M42.4302857,19.716 L40.704,19.716 L40.704,16.324 L42.4302857,16.324 L42.4302857,15.3851429 C42.4302857,13.78 42.824,12.5988571 43.6114286,11.8417143 C44.3685714,11.0845714 45.4891429,10.6908571 46.9731429,10.6908571 C48.2754286,10.6908571 49.1537143,10.8422857 49.9108571,11.0845714 L49.9108571,14.5371429 C49.3051429,14.3251429 48.7297143,14.1737143 48.0331429,14.1737143 C47.0942857,14.1737143 46.5491429,14.6582857 46.5491429,15.7485714 L46.5491429,16.3542857 L49.9108571,16.3542857 L49.9108571,19.716 L46.6097143,19.716 L46.6097143,30.7702857 L42.4605714,30.7702857 L42.4605714,19.716 L42.4302857,19.716 Z" id="Shape" fill="#003057"></path>
                                            <path d="M50.0925714,23.5622857 L50.0925714,23.5017143 C50.0925714,19.3222857 53.4542857,15.9 58.0274286,15.9 C62.54,15.9 65.9017143,19.2617143 65.9017143,23.4411429 L65.9017143,23.5017143 C65.9017143,27.6811429 62.54,31.1034286 57.9668571,31.1034286 C53.4542857,31.1034286 50.0925714,27.7417143 50.0925714,23.5622857 Z M61.8131429,23.5622857 L61.8131429,23.5017143 C61.8131429,21.3514286 60.2685714,19.4737143 57.9668571,19.4737143 C55.6045714,19.4737143 54.1811429,21.2908571 54.1811429,23.4411429 L54.1811429,23.5017143 C54.1811429,25.652 55.7257143,27.5297143 58.0274286,27.5297143 C60.3897143,27.5297143 61.8131429,25.7125714 61.8131429,23.5622857 Z" id="Shape" fill="#003057"></path>
                                        </g>
                                    </g>
                                </g>
                            </g>
                        </g>
                    </g>
                </g>
            </g>
        </g>
    </g>
</svg>