<?xml version="1.0" encoding="UTF-8"?>
<svg width="1845px" height="363px" viewBox="0 0 1845 363" version="1.1" xmlns="http://www.w3.org/2000/svg" xmlns:xlink="http://www.w3.org/1999/xlink">
    <!-- Generator: Sketch 53.2 (72643) - https://sketchapp.com -->
    <title>Group</title>
    <desc>Created with Sketch.</desc>
    <defs>
        <polygon id="path-1" points="0 56 52 56 52 0 0 0"></polygon>
        <polygon id="path-3" points="0 56 52 56 52 0 0 0"></polygon>
        <polygon id="path-5" points="0 56 52 56 52 0 0 0"></polygon>
        <polygon id="path-7" points="0 56 52 56 52 0 0 0"></polygon>
        <polygon id="path-9" points="0 62.1241 55.484 62.1241 55.484 0.0001 0 0.0001"></polygon>
        <polygon id="path-11" points="0 62.1241 55.484 62.1241 55.484 0.0001 0 0.0001"></polygon>
        <polygon id="path-13" points="0 62.1241 55.484 62.1241 55.484 0.0001 0 0.0001"></polygon>
        <polygon id="path-15" points="0 62.1241 55.484 62.1241 55.484 0.0001 0 0.0001"></polygon>
    </defs>
    <g id="Design-master" stroke="none" stroke-width="1" fill="none" fill-rule="evenodd">
        <g id="Header" transform="translate(-458.000000, -1873.000000)">
            <g id="Group" transform="translate(459.000000, 1873.000000)">
                <g id="Group-31-Copy-16" transform="translate(0.000000, 7.000000)" stroke="#0667C6" stroke-width="3">
                    <path d="M38.7163,41.9258 C35.4663,42.8928 32.3133,44.1568 29.3023,45.7078 C28.5733,45.9908 27.7793,46.0928 26.9963,46.0038" id="Stroke-1"></path>
                    <path d="M26.9966,7.7837 C34.6196,3.3727 43.3036,0.8667 52.2336,0.5007 C52.5626,0.4867 52.8836,0.6007 53.1216,0.8157 C53.3596,1.0307 53.4936,1.3277 53.4936,1.6387 L53.4936,21.6917" id="Stroke-3"></path>
                    <path d="M26.9966,7.7837 C19.3746,3.3727 10.6896,0.8667 1.7596,0.5017 C1.4336,0.4867 1.1136,0.5987 0.8766,0.8117 C0.6386,1.0237 0.5026,1.3187 0.4996,1.6277 L0.4996,38.5327 C0.4996,39.1427 1.0086,39.6447 1.6536,39.6707 C9.7206,39.9917 17.6026,42.0567 24.6916,45.7077 C25.4206,45.9917 26.2146,46.0937 26.9966,46.0037" id="Stroke-5"></path>
                    <path d="M27,7.5 L27,46" id="Stroke-7"></path>
                    <path d="M5.5957,40.4092 L5.5957,47.3762 C5.5957,47.7172 5.7597,48.0402 6.0407,48.2532 C6.3227,48.4662 6.6917,48.5472 7.0437,48.4732 C20.1867,45.7252 33.8067,45.7252 46.9497,48.4732 C47.3037,48.5472 47.6727,48.4662 47.9547,48.2522 C48.2367,48.0372 48.3997,47.7142 48.3977,47.3712 L48.3977,44.9772" id="Stroke-9"></path>
                    <path d="M6.105,11.3198 C11.698,11.6138 17.205,12.8098 22.411,14.8618" id="Stroke-11"></path>
                    <path d="M6.105,20.9424 C11.697,21.2354 17.205,22.4314 22.411,24.4844" id="Stroke-13"></path>
                    <path d="M6.105,31.0518 C11.697,31.3438 17.205,32.5398 22.411,34.5938" id="Stroke-15"></path>
                    <path d="M47.8887,11.3198 C42.2957,11.6138 36.7887,12.8098 31.5827,14.8618" id="Stroke-17"></path>
                    <path d="M40.7549,21.8145 C37.6259,22.4195 34.5549,23.3125 31.5829,24.4835" id="Stroke-19"></path>
                    <path d="M34.6401,33.4971 C33.6111,33.8301 32.5911,34.1961 31.5831,34.5931" id="Stroke-21"></path>
                    <path d="M35.1499,32.3164 C35.1499,25.6104 40.6249,20.1734 47.3789,20.1734 C54.1329,20.1734 59.6079,25.6104 59.6079,32.3164 C59.6079,39.0234 54.1329,44.4594 47.3789,44.4594 C40.6249,44.4594 35.1499,39.0234 35.1499,32.3164 Z" id="Stroke-23"></path>
                    <path d="M60.5,46.6099 L55.404,41.5499" id="Stroke-25"></path>
                    <path d="M47.5,33.25 L47.5,25.75" id="Stroke-27" stroke-linecap="round" stroke-linejoin="round"></path>
                    <path d="M47.5,38 C47.776,38 48,38.224 48,38.5 C48,38.776 47.776,39 47.5,39 C47.224,39 47,38.776 47,38.5 C47,38.224 47.224,38 47.5,38" id="Stroke-29" stroke-linecap="round" stroke-linejoin="round"></path>
                </g>
                <g id="Group-31-Copy-18" transform="translate(1433.000000, 211.000000)" stroke="#0667C6" stroke-width="3">
                    <path d="M38.7163,41.9258 C35.4663,42.8928 32.3133,44.1568 29.3023,45.7078 C28.5733,45.9908 27.7793,46.0928 26.9963,46.0038" id="Stroke-1"></path>
                    <path d="M26.9966,7.7837 C34.6196,3.3727 43.3036,0.8667 52.2336,0.5007 C52.5626,0.4867 52.8836,0.6007 53.1216,0.8157 C53.3596,1.0307 53.4936,1.3277 53.4936,1.6387 L53.4936,21.6917" id="Stroke-3"></path>
                    <path d="M26.9966,7.7837 C19.3746,3.3727 10.6896,0.8667 1.7596,0.5017 C1.4336,0.4867 1.1136,0.5987 0.8766,0.8117 C0.6386,1.0237 0.5026,1.3187 0.4996,1.6277 L0.4996,38.5327 C0.4996,39.1427 1.0086,39.6447 1.6536,39.6707 C9.7206,39.9917 17.6026,42.0567 24.6916,45.7077 C25.4206,45.9917 26.2146,46.0937 26.9966,46.0037" id="Stroke-5"></path>
                    <path d="M27,7.5 L27,46" id="Stroke-7"></path>
                    <path d="M5.5957,40.4092 L5.5957,47.3762 C5.5957,47.7172 5.7597,48.0402 6.0407,48.2532 C6.3227,48.4662 6.6917,48.5472 7.0437,48.4732 C20.1867,45.7252 33.8067,45.7252 46.9497,48.4732 C47.3037,48.5472 47.6727,48.4662 47.9547,48.2522 C48.2367,48.0372 48.3997,47.7142 48.3977,47.3712 L48.3977,44.9772" id="Stroke-9"></path>
                    <path d="M6.105,11.3198 C11.698,11.6138 17.205,12.8098 22.411,14.8618" id="Stroke-11"></path>
                    <path d="M6.105,20.9424 C11.697,21.2354 17.205,22.4314 22.411,24.4844" id="Stroke-13"></path>
                    <path d="M6.105,31.0518 C11.697,31.3438 17.205,32.5398 22.411,34.5938" id="Stroke-15"></path>
                    <path d="M47.8887,11.3198 C42.2957,11.6138 36.7887,12.8098 31.5827,14.8618" id="Stroke-17"></path>
                    <path d="M40.7549,21.8145 C37.6259,22.4195 34.5549,23.3125 31.5829,24.4835" id="Stroke-19"></path>
                    <path d="M34.6401,33.4971 C33.6111,33.8301 32.5911,34.1961 31.5831,34.5931" id="Stroke-21"></path>
                    <path d="M35.1499,32.3164 C35.1499,25.6104 40.6249,20.1734 47.3789,20.1734 C54.1329,20.1734 59.6079,25.6104 59.6079,32.3164 C59.6079,39.0234 54.1329,44.4594 47.3789,44.4594 C40.6249,44.4594 35.1499,39.0234 35.1499,32.3164 Z" id="Stroke-23"></path>
                    <path d="M60.5,46.6099 L55.404,41.5499" id="Stroke-25"></path>
                    <path d="M47.5,33.25 L47.5,25.75" id="Stroke-27" stroke-linecap="round" stroke-linejoin="round"></path>
                    <path d="M47.5,38 C47.776,38 48,38.224 48,38.5 C48,38.776 47.776,39 47.5,39 C47.224,39 47,38.776 47,38.5 C47,38.224 47.224,38 47.5,38" id="Stroke-29" stroke-linecap="round" stroke-linejoin="round"></path>
                </g>
                <g id="Group-31-Copy-17" transform="translate(954.000000, 7.000000)" stroke="#0667C6" stroke-width="3">
                    <path d="M38.7163,41.9258 C35.4663,42.8928 32.3133,44.1568 29.3023,45.7078 C28.5733,45.9908 27.7793,46.0928 26.9963,46.0038" id="Stroke-1"></path>
                    <path d="M26.9966,7.7837 C34.6196,3.3727 43.3036,0.8667 52.2336,0.5007 C52.5626,0.4867 52.8836,0.6007 53.1216,0.8157 C53.3596,1.0307 53.4936,1.3277 53.4936,1.6387 L53.4936,21.6917" id="Stroke-3"></path>
                    <path d="M26.9966,7.7837 C19.3746,3.3727 10.6896,0.8667 1.7596,0.5017 C1.4336,0.4867 1.1136,0.5987 0.8766,0.8117 C0.6386,1.0237 0.5026,1.3187 0.4996,1.6277 L0.4996,38.5327 C0.4996,39.1427 1.0086,39.6447 1.6536,39.6707 C9.7206,39.9917 17.6026,42.0567 24.6916,45.7077 C25.4206,45.9917 26.2146,46.0937 26.9966,46.0037" id="Stroke-5"></path>
                    <path d="M27,7.5 L27,46" id="Stroke-7"></path>
                    <path d="M5.5957,40.4092 L5.5957,47.3762 C5.5957,47.7172 5.7597,48.0402 6.0407,48.2532 C6.3227,48.4662 6.6917,48.5472 7.0437,48.4732 C20.1867,45.7252 33.8067,45.7252 46.9497,48.4732 C47.3037,48.5472 47.6727,48.4662 47.9547,48.2522 C48.2367,48.0372 48.3997,47.7142 48.3977,47.3712 L48.3977,44.9772" id="Stroke-9"></path>
                    <path d="M6.105,11.3198 C11.698,11.6138 17.205,12.8098 22.411,14.8618" id="Stroke-11"></path>
                    <path d="M6.105,20.9424 C11.697,21.2354 17.205,22.4314 22.411,24.4844" id="Stroke-13"></path>
                    <path d="M6.105,31.0518 C11.697,31.3438 17.205,32.5398 22.411,34.5938" id="Stroke-15"></path>
                    <path d="M47.8887,11.3198 C42.2957,11.6138 36.7887,12.8098 31.5827,14.8618" id="Stroke-17"></path>
                    <path d="M40.7549,21.8145 C37.6259,22.4195 34.5549,23.3125 31.5829,24.4835" id="Stroke-19"></path>
                    <path d="M34.6401,33.4971 C33.6111,33.8301 32.5911,34.1961 31.5831,34.5931" id="Stroke-21"></path>
                    <path d="M35.1499,32.3164 C35.1499,25.6104 40.6249,20.1734 47.3789,20.1734 C54.1329,20.1734 59.6079,25.6104 59.6079,32.3164 C59.6079,39.0234 54.1329,44.4594 47.3789,44.4594 C40.6249,44.4594 35.1499,39.0234 35.1499,32.3164 Z" id="Stroke-23"></path>
                    <path d="M60.5,46.6099 L55.404,41.5499" id="Stroke-25"></path>
                    <path d="M47.5,33.25 L47.5,25.75" id="Stroke-27" stroke-linecap="round" stroke-linejoin="round"></path>
                    <path d="M47.5,38 C47.776,38 48,38.224 48,38.5 C48,38.776 47.776,39 47.5,39 C47.224,39 47,38.776 47,38.5 C47,38.224 47.224,38 47.5,38" id="Stroke-29" stroke-linecap="round" stroke-linejoin="round"></path>
                </g>
                <g id="Group-31-Copy-19" transform="translate(479.000000, 211.000000)" stroke="#0667C6" stroke-width="3">
                    <path d="M38.7163,41.9258 C35.4663,42.8928 32.3133,44.1568 29.3023,45.7078 C28.5733,45.9908 27.7793,46.0928 26.9963,46.0038" id="Stroke-1"></path>
                    <path d="M26.9966,7.7837 C34.6196,3.3727 43.3036,0.8667 52.2336,0.5007 C52.5626,0.4867 52.8836,0.6007 53.1216,0.8157 C53.3596,1.0307 53.4936,1.3277 53.4936,1.6387 L53.4936,21.6917" id="Stroke-3"></path>
                    <path d="M26.9966,7.7837 C19.3746,3.3727 10.6896,0.8667 1.7596,0.5017 C1.4336,0.4867 1.1136,0.5987 0.8766,0.8117 C0.6386,1.0237 0.5026,1.3187 0.4996,1.6277 L0.4996,38.5327 C0.4996,39.1427 1.0086,39.6447 1.6536,39.6707 C9.7206,39.9917 17.6026,42.0567 24.6916,45.7077 C25.4206,45.9917 26.2146,46.0937 26.9966,46.0037" id="Stroke-5"></path>
                    <path d="M27,7.5 L27,46" id="Stroke-7"></path>
                    <path d="M5.5957,40.4092 L5.5957,47.3762 C5.5957,47.7172 5.7597,48.0402 6.0407,48.2532 C6.3227,48.4662 6.6917,48.5472 7.0437,48.4732 C20.1867,45.7252 33.8067,45.7252 46.9497,48.4732 C47.3037,48.5472 47.6727,48.4662 47.9547,48.2522 C48.2367,48.0372 48.3997,47.7142 48.3977,47.3712 L48.3977,44.9772" id="Stroke-9"></path>
                    <path d="M6.105,11.3198 C11.698,11.6138 17.205,12.8098 22.411,14.8618" id="Stroke-11"></path>
                    <path d="M6.105,20.9424 C11.697,21.2354 17.205,22.4314 22.411,24.4844" id="Stroke-13"></path>
                    <path d="M6.105,31.0518 C11.697,31.3438 17.205,32.5398 22.411,34.5938" id="Stroke-15"></path>
                    <path d="M47.8887,11.3198 C42.2957,11.6138 36.7887,12.8098 31.5827,14.8618" id="Stroke-17"></path>
                    <path d="M40.7549,21.8145 C37.6259,22.4195 34.5549,23.3125 31.5829,24.4835" id="Stroke-19"></path>
                    <path d="M34.6401,33.4971 C33.6111,33.8301 32.5911,34.1961 31.5831,34.5931" id="Stroke-21"></path>
                    <path d="M35.1499,32.3164 C35.1499,25.6104 40.6249,20.1734 47.3789,20.1734 C54.1329,20.1734 59.6079,25.6104 59.6079,32.3164 C59.6079,39.0234 54.1329,44.4594 47.3789,44.4594 C40.6249,44.4594 35.1499,39.0234 35.1499,32.3164 Z" id="Stroke-23"></path>
                    <path d="M60.5,46.6099 L55.404,41.5499" id="Stroke-25"></path>
                    <path d="M47.5,33.25 L47.5,25.75" id="Stroke-27" stroke-linecap="round" stroke-linejoin="round"></path>
                    <path d="M47.5,38 C47.776,38 48,38.224 48,38.5 C48,38.776 47.776,39 47.5,39 C47.224,39 47,38.776 47,38.5 C47,38.224 47.224,38 47.5,38" id="Stroke-29" stroke-linecap="round" stroke-linejoin="round"></path>
                </g>
                <g id="Group-10-Copy-18" transform="translate(596.000000, 102.000000)">
                    <path d="M48.5,2.5 L34.83,17.034 C33.531,18.416 31.533,18.92 29.722,18.323 L20.675,15.345 C19.077,14.819 17.316,15.147 16.022,16.211 L3.5,26.5" id="Stroke-1" stroke="#0667C6" stroke-width="3" stroke-linecap="round" stroke-linejoin="round"></path>
                    <polyline id="Stroke-3" stroke="#0667C6" stroke-width="3" stroke-linecap="round" stroke-linejoin="round" points="39.5 1.5 49.5 1.5 49.5 11.5"></polyline>
                    <mask id="mask-2" fill="white">
                        <use xlink:href="#path-1"></use>
                    </mask>
                    <g id="Clip-6"></g>
                    <polygon id="Stroke-5" stroke="#0667C6" stroke-width="3" stroke-linecap="round" stroke-linejoin="round" mask="url(#mask-2)" points="1.5 54.5 8.5 54.5 8.5 42.5 1.5 42.5"></polygon>
                    <polygon id="Stroke-7" stroke="#0667C6" stroke-width="3" stroke-linecap="round" stroke-linejoin="round" mask="url(#mask-2)" points="15.5 54.5 22.5 54.5 22.5 30.5 15.5 30.5"></polygon>
                    <polygon id="Stroke-8" stroke="#0667C6" stroke-width="3" stroke-linecap="round" stroke-linejoin="round" mask="url(#mask-2)" points="29.5 54.5 36.5 54.5 36.5 35.5 29.5 35.5"></polygon>
                    <polygon id="Stroke-9" stroke="#0667C6" stroke-width="3" stroke-linecap="round" stroke-linejoin="round" mask="url(#mask-2)" points="43.5 54.5 50.5 54.5 50.5 21.5 43.5 21.5"></polygon>
                </g>
                <g id="Group-10-Copy-20" transform="translate(119.000000, 306.000000)">
                    <path d="M48.5,2.5 L34.83,17.034 C33.531,18.416 31.533,18.92 29.722,18.323 L20.675,15.345 C19.077,14.819 17.316,15.147 16.022,16.211 L3.5,26.5" id="Stroke-1" stroke="#0667C6" stroke-width="3" stroke-linecap="round" stroke-linejoin="round"></path>
                    <polyline id="Stroke-3" stroke="#0667C6" stroke-width="3" stroke-linecap="round" stroke-linejoin="round" points="39.5 1.5 49.5 1.5 49.5 11.5"></polyline>
                    <mask id="mask-4" fill="white">
                        <use xlink:href="#path-3"></use>
                    </mask>
                    <g id="Clip-6"></g>
                    <polygon id="Stroke-5" stroke="#0667C6" stroke-width="3" stroke-linecap="round" stroke-linejoin="round" mask="url(#mask-4)" points="1.5 54.5 8.5 54.5 8.5 42.5 1.5 42.5"></polygon>
                    <polygon id="Stroke-7" stroke="#0667C6" stroke-width="3" stroke-linecap="round" stroke-linejoin="round" mask="url(#mask-4)" points="15.5 54.5 22.5 54.5 22.5 30.5 15.5 30.5"></polygon>
                    <polygon id="Stroke-8" stroke="#0667C6" stroke-width="3" stroke-linecap="round" stroke-linejoin="round" mask="url(#mask-4)" points="29.5 54.5 36.5 54.5 36.5 35.5 29.5 35.5"></polygon>
                    <polygon id="Stroke-9" stroke="#0667C6" stroke-width="3" stroke-linecap="round" stroke-linejoin="round" mask="url(#mask-4)" points="43.5 54.5 50.5 54.5 50.5 21.5 43.5 21.5"></polygon>
                </g>
                <g id="Group-10-Copy-19" transform="translate(1550.000000, 102.000000)">
                    <path d="M48.5,2.5 L34.83,17.034 C33.531,18.416 31.533,18.92 29.722,18.323 L20.675,15.345 C19.077,14.819 17.316,15.147 16.022,16.211 L3.5,26.5" id="Stroke-1" stroke="#0667C6" stroke-width="3" stroke-linecap="round" stroke-linejoin="round"></path>
                    <polyline id="Stroke-3" stroke="#0667C6" stroke-width="3" stroke-linecap="round" stroke-linejoin="round" points="39.5 1.5 49.5 1.5 49.5 11.5"></polyline>
                    <mask id="mask-6" fill="white">
                        <use xlink:href="#path-5"></use>
                    </mask>
                    <g id="Clip-6"></g>
                    <polygon id="Stroke-5" stroke="#0667C6" stroke-width="3" stroke-linecap="round" stroke-linejoin="round" mask="url(#mask-6)" points="1.5 54.5 8.5 54.5 8.5 42.5 1.5 42.5"></polygon>
                    <polygon id="Stroke-7" stroke="#0667C6" stroke-width="3" stroke-linecap="round" stroke-linejoin="round" mask="url(#mask-6)" points="15.5 54.5 22.5 54.5 22.5 30.5 15.5 30.5"></polygon>
                    <polygon id="Stroke-8" stroke="#0667C6" stroke-width="3" stroke-linecap="round" stroke-linejoin="round" mask="url(#mask-6)" points="29.5 54.5 36.5 54.5 36.5 35.5 29.5 35.5"></polygon>
                    <polygon id="Stroke-9" stroke="#0667C6" stroke-width="3" stroke-linecap="round" stroke-linejoin="round" mask="url(#mask-6)" points="43.5 54.5 50.5 54.5 50.5 21.5 43.5 21.5"></polygon>
                </g>
                <g id="Group-10-Copy-21" transform="translate(1073.000000, 306.000000)">
                    <path d="M48.5,2.5 L34.83,17.034 C33.531,18.416 31.533,18.92 29.722,18.323 L20.675,15.345 C19.077,14.819 17.316,15.147 16.022,16.211 L3.5,26.5" id="Stroke-1" stroke="#0667C6" stroke-width="3" stroke-linecap="round" stroke-linejoin="round"></path>
                    <polyline id="Stroke-3" stroke="#0667C6" stroke-width="3" stroke-linecap="round" stroke-linejoin="round" points="39.5 1.5 49.5 1.5 49.5 11.5"></polyline>
                    <mask id="mask-8" fill="white">
                        <use xlink:href="#path-7"></use>
                    </mask>
                    <g id="Clip-6"></g>
                    <polygon id="Stroke-5" stroke="#0667C6" stroke-width="3" stroke-linecap="round" stroke-linejoin="round" mask="url(#mask-8)" points="1.5 54.5 8.5 54.5 8.5 42.5 1.5 42.5"></polygon>
                    <polygon id="Stroke-7" stroke="#0667C6" stroke-width="3" stroke-linecap="round" stroke-linejoin="round" mask="url(#mask-8)" points="15.5 54.5 22.5 54.5 22.5 30.5 15.5 30.5"></polygon>
                    <polygon id="Stroke-8" stroke="#0667C6" stroke-width="3" stroke-linecap="round" stroke-linejoin="round" mask="url(#mask-8)" points="29.5 54.5 36.5 54.5 36.5 35.5 29.5 35.5"></polygon>
                    <polygon id="Stroke-9" stroke="#0667C6" stroke-width="3" stroke-linecap="round" stroke-linejoin="round" mask="url(#mask-8)" points="43.5 54.5 50.5 54.5 50.5 21.5 43.5 21.5"></polygon>
                </g>
                <g id="Group-19-Copy-17" transform="translate(836.000000, 104.000000)" stroke="#0667C6" stroke-linejoin="round" stroke-width="3">
                    <path d="M27.5,27.0566 C34.833,25.4416 42.167,23.6316 49.5,26.4276 C48.833,17.4546 48.167,7.5376 47.5,0.4996 C39.667,0.9056 31.833,1.1866 24,3.1736 C16.167,4.7736 8.333,8.0796 0.5,5.5726 C1.167,14.5456 1.833,24.4626 2.5,31.4996 C4,31.2556 5.5,31.1116 7,30.9736" id="Stroke-1"></path>
                    <path d="M17.5059,27.5 C23.0269,27.5 27.5019,26.604 27.5019,25.5 C27.5019,24.396 23.0269,23.5 17.5059,23.5 C11.9849,23.5 7.5099,24.396 7.5099,25.5 C7.5099,26.604 11.9849,27.5 17.5059,27.5 Z" id="Stroke-3" stroke-linecap="round"></path>
                    <path d="M27.4941,25.5 L27.4941,31.5 C27.4941,32.606 23.0191,33.5 17.4981,33.5 C11.9761,33.5 7.5021,32.606 7.5021,31.5 L7.5021,25.5" id="Stroke-5" stroke-linecap="round"></path>
                    <path d="M27.4941,31.5 L27.4941,37.5 C27.4941,38.606 23.0191,39.5 17.4981,39.5 C11.9761,39.5 7.5021,38.606 7.5021,37.5 L7.5021,31.5" id="Stroke-7" stroke-linecap="round"></path>
                    <path d="M42.5039,39.5 C48.0249,39.5 52.4999,38.604 52.4999,37.5 C52.4999,36.396 48.0249,35.5 42.5039,35.5 C36.9829,35.5 32.5079,36.396 32.5079,37.5 C32.5079,38.604 36.9829,39.5 42.5039,39.5 Z" id="Stroke-9" stroke-linecap="round"></path>
                    <path d="M52.4922,37.5 L52.4922,43.5 C52.4922,44.606 48.0172,45.5 42.4962,45.5 C36.9742,45.5 32.5002,44.606 32.5002,43.5 L32.5002,37.5" id="Stroke-11" stroke-linecap="round"></path>
                    <path d="M52.4922,43.5 L52.4922,49.5 C52.4922,50.606 48.0172,51.5 42.4962,51.5 C36.9742,51.5 32.5002,50.606 32.5002,49.5 L32.5002,43.5" id="Stroke-13" stroke-linecap="round"></path>
                    <path d="M27.4941,37.5 L27.4941,43.5 C27.4941,44.606 23.0191,45.5 17.4981,45.5 C11.9761,45.5 7.5021,44.606 7.5021,43.5 L7.5021,37.5" id="Stroke-15" stroke-linecap="round"></path>
                    <path d="M27.4941,43.5 L27.4941,49.5 C27.4941,50.606 23.0191,51.5 17.4981,51.5 C11.9761,51.5 7.5021,50.606 7.5021,49.5 L7.5021,43.5" id="Stroke-17" stroke-linecap="round"></path>
                </g>
                <g id="Group-19-Copy-19" transform="translate(359.000000, 308.000000)" stroke="#0667C6" stroke-linejoin="round" stroke-width="3">
                    <path d="M27.5,27.0566 C34.833,25.4416 42.167,23.6316 49.5,26.4276 C48.833,17.4546 48.167,7.5376 47.5,0.4996 C39.667,0.9056 31.833,1.1866 24,3.1736 C16.167,4.7736 8.333,8.0796 0.5,5.5726 C1.167,14.5456 1.833,24.4626 2.5,31.4996 C4,31.2556 5.5,31.1116 7,30.9736" id="Stroke-1"></path>
                    <path d="M17.5059,27.5 C23.0269,27.5 27.5019,26.604 27.5019,25.5 C27.5019,24.396 23.0269,23.5 17.5059,23.5 C11.9849,23.5 7.5099,24.396 7.5099,25.5 C7.5099,26.604 11.9849,27.5 17.5059,27.5 Z" id="Stroke-3" stroke-linecap="round"></path>
                    <path d="M27.4941,25.5 L27.4941,31.5 C27.4941,32.606 23.0191,33.5 17.4981,33.5 C11.9761,33.5 7.5021,32.606 7.5021,31.5 L7.5021,25.5" id="Stroke-5" stroke-linecap="round"></path>
                    <path d="M27.4941,31.5 L27.4941,37.5 C27.4941,38.606 23.0191,39.5 17.4981,39.5 C11.9761,39.5 7.5021,38.606 7.5021,37.5 L7.5021,31.5" id="Stroke-7" stroke-linecap="round"></path>
                    <path d="M42.5039,39.5 C48.0249,39.5 52.4999,38.604 52.4999,37.5 C52.4999,36.396 48.0249,35.5 42.5039,35.5 C36.9829,35.5 32.5079,36.396 32.5079,37.5 C32.5079,38.604 36.9829,39.5 42.5039,39.5 Z" id="Stroke-9" stroke-linecap="round"></path>
                    <path d="M52.4922,37.5 L52.4922,43.5 C52.4922,44.606 48.0172,45.5 42.4962,45.5 C36.9742,45.5 32.5002,44.606 32.5002,43.5 L32.5002,37.5" id="Stroke-11" stroke-linecap="round"></path>
                    <path d="M52.4922,43.5 L52.4922,49.5 C52.4922,50.606 48.0172,51.5 42.4962,51.5 C36.9742,51.5 32.5002,50.606 32.5002,49.5 L32.5002,43.5" id="Stroke-13" stroke-linecap="round"></path>
                    <path d="M27.4941,37.5 L27.4941,43.5 C27.4941,44.606 23.0191,45.5 17.4981,45.5 C11.9761,45.5 7.5021,44.606 7.5021,43.5 L7.5021,37.5" id="Stroke-15" stroke-linecap="round"></path>
                    <path d="M27.4941,43.5 L27.4941,49.5 C27.4941,50.606 23.0191,51.5 17.4981,51.5 C11.9761,51.5 7.5021,50.606 7.5021,49.5 L7.5021,43.5" id="Stroke-17" stroke-linecap="round"></path>
                </g>
                <g id="Group-19-Copy-18" transform="translate(1790.000000, 104.000000)" stroke="#0667C6" stroke-linejoin="round" stroke-width="3">
                    <path d="M27.5,27.0566 C34.833,25.4416 42.167,23.6316 49.5,26.4276 C48.833,17.4546 48.167,7.5376 47.5,0.4996 C39.667,0.9056 31.833,1.1866 24,3.1736 C16.167,4.7736 8.333,8.0796 0.5,5.5726 C1.167,14.5456 1.833,24.4626 2.5,31.4996 C4,31.2556 5.5,31.1116 7,30.9736" id="Stroke-1"></path>
                    <path d="M17.5059,27.5 C23.0269,27.5 27.5019,26.604 27.5019,25.5 C27.5019,24.396 23.0269,23.5 17.5059,23.5 C11.9849,23.5 7.5099,24.396 7.5099,25.5 C7.5099,26.604 11.9849,27.5 17.5059,27.5 Z" id="Stroke-3" stroke-linecap="round"></path>
                    <path d="M27.4941,25.5 L27.4941,31.5 C27.4941,32.606 23.0191,33.5 17.4981,33.5 C11.9761,33.5 7.5021,32.606 7.5021,31.5 L7.5021,25.5" id="Stroke-5" stroke-linecap="round"></path>
                    <path d="M27.4941,31.5 L27.4941,37.5 C27.4941,38.606 23.0191,39.5 17.4981,39.5 C11.9761,39.5 7.5021,38.606 7.5021,37.5 L7.5021,31.5" id="Stroke-7" stroke-linecap="round"></path>
                    <path d="M42.5039,39.5 C48.0249,39.5 52.4999,38.604 52.4999,37.5 C52.4999,36.396 48.0249,35.5 42.5039,35.5 C36.9829,35.5 32.5079,36.396 32.5079,37.5 C32.5079,38.604 36.9829,39.5 42.5039,39.5 Z" id="Stroke-9" stroke-linecap="round"></path>
                    <path d="M52.4922,37.5 L52.4922,43.5 C52.4922,44.606 48.0172,45.5 42.4962,45.5 C36.9742,45.5 32.5002,44.606 32.5002,43.5 L32.5002,37.5" id="Stroke-11" stroke-linecap="round"></path>
                    <path d="M52.4922,43.5 L52.4922,49.5 C52.4922,50.606 48.0172,51.5 42.4962,51.5 C36.9742,51.5 32.5002,50.606 32.5002,49.5 L32.5002,43.5" id="Stroke-13" stroke-linecap="round"></path>
                    <path d="M27.4941,37.5 L27.4941,43.5 C27.4941,44.606 23.0191,45.5 17.4981,45.5 C11.9761,45.5 7.5021,44.606 7.5021,43.5 L7.5021,37.5" id="Stroke-15" stroke-linecap="round"></path>
                    <path d="M27.4941,43.5 L27.4941,49.5 C27.4941,50.606 23.0191,51.5 17.4981,51.5 C11.9761,51.5 7.5021,50.606 7.5021,49.5 L7.5021,43.5" id="Stroke-17" stroke-linecap="round"></path>
                </g>
                <g id="Group-19-Copy-20" transform="translate(1313.000000, 308.000000)" stroke="#0667C6" stroke-linejoin="round" stroke-width="3">
                    <path d="M27.5,27.0566 C34.833,25.4416 42.167,23.6316 49.5,26.4276 C48.833,17.4546 48.167,7.5376 47.5,0.4996 C39.667,0.9056 31.833,1.1866 24,3.1736 C16.167,4.7736 8.333,8.0796 0.5,5.5726 C1.167,14.5456 1.833,24.4626 2.5,31.4996 C4,31.2556 5.5,31.1116 7,30.9736" id="Stroke-1"></path>
                    <path d="M17.5059,27.5 C23.0269,27.5 27.5019,26.604 27.5019,25.5 C27.5019,24.396 23.0269,23.5 17.5059,23.5 C11.9849,23.5 7.5099,24.396 7.5099,25.5 C7.5099,26.604 11.9849,27.5 17.5059,27.5 Z" id="Stroke-3" stroke-linecap="round"></path>
                    <path d="M27.4941,25.5 L27.4941,31.5 C27.4941,32.606 23.0191,33.5 17.4981,33.5 C11.9761,33.5 7.5021,32.606 7.5021,31.5 L7.5021,25.5" id="Stroke-5" stroke-linecap="round"></path>
                    <path d="M27.4941,31.5 L27.4941,37.5 C27.4941,38.606 23.0191,39.5 17.4981,39.5 C11.9761,39.5 7.5021,38.606 7.5021,37.5 L7.5021,31.5" id="Stroke-7" stroke-linecap="round"></path>
                    <path d="M42.5039,39.5 C48.0249,39.5 52.4999,38.604 52.4999,37.5 C52.4999,36.396 48.0249,35.5 42.5039,35.5 C36.9829,35.5 32.5079,36.396 32.5079,37.5 C32.5079,38.604 36.9829,39.5 42.5039,39.5 Z" id="Stroke-9" stroke-linecap="round"></path>
                    <path d="M52.4922,37.5 L52.4922,43.5 C52.4922,44.606 48.0172,45.5 42.4962,45.5 C36.9742,45.5 32.5002,44.606 32.5002,43.5 L32.5002,37.5" id="Stroke-11" stroke-linecap="round"></path>
                    <path d="M52.4922,43.5 L52.4922,49.5 C52.4922,50.606 48.0172,51.5 42.4962,51.5 C36.9742,51.5 32.5002,50.606 32.5002,49.5 L32.5002,43.5" id="Stroke-13" stroke-linecap="round"></path>
                    <path d="M27.4941,37.5 L27.4941,43.5 C27.4941,44.606 23.0191,45.5 17.4981,45.5 C11.9761,45.5 7.5021,44.606 7.5021,43.5 L7.5021,37.5" id="Stroke-15" stroke-linecap="round"></path>
                    <path d="M27.4941,43.5 L27.4941,49.5 C27.4941,50.606 23.0191,51.5 17.4981,51.5 C11.9761,51.5 7.5021,50.606 7.5021,49.5 L7.5021,43.5" id="Stroke-17" stroke-linecap="round"></path>
                </g>
                <g id="Group-23-Copy-17" transform="translate(486.000000, 2.000000)" stroke="#0667C6" stroke-linecap="round" stroke-linejoin="round" stroke-width="3">
                    <path d="M24.3066,35.6738 L19.9176,41.9918 C19.7206,42.2758 19.4186,42.4518 19.0916,42.4778 C18.7646,42.5028 18.4426,42.3738 18.2096,42.1238 L15.9436,39.6768" id="Stroke-1"></path>
                    <path d="M44.6055,48.5 C45.6515,48.5 46.5005,47.565 46.5005,46.413 L46.5005,12.97 C46.5005,6.083 41.4315,0.5 35.1785,0.5 L12.3945,0.5 C11.3485,0.5 10.5005,1.435 10.5005,2.587 L10.5005,46.413 C10.5005,47.565 11.3485,48.5 12.3945,48.5 L44.6055,48.5 Z" id="Stroke-3"></path>
                    <path d="M37.0264,0.667 L37.0264,8.848 C37.0264,10 37.8744,10.935 38.9214,10.935 L46.3484,10.935" id="Stroke-5"></path>
                    <path d="M10.5,5.5 L7.395,5.5 C6.348,5.5 5.5,6.435 5.5,7.587 L5.5,51.413 C5.5,52.565 6.348,53.5 7.395,53.5 L39.605,53.5 C40.652,53.5 41.5,52.565 41.5,51.413 L41.5,49" id="Stroke-7"></path>
                    <path d="M5.5,10.5 L2.395,10.5 C1.348,10.5 0.5,11.435 0.5,12.587 L0.5,56.413 C0.5,57.565 1.348,58.5 2.395,58.5 L34.605,58.5 C35.652,58.5 36.5,57.565 36.5,56.413 L36.5,54" id="Stroke-9"></path>
                    <path d="M24.2085,23.3789 C28.7615,23.3789 32.4525,19.3939 32.4525,14.4769 C32.4525,9.5599 28.7615,5.5729 24.2085,5.5729 C19.6555,5.5729 15.9645,9.5599 15.9645,14.4769 C15.9645,19.3939 19.6555,23.3789 24.2085,23.3789 Z" id="Stroke-11"></path>
                    <polyline id="Stroke-13" points="24.2085 5.5732 24.2085 14.4762 32.4525 14.4762"></polyline>
                    <path d="M29.5,42.5 L40.5,42.5" id="Stroke-15"></path>
                    <path d="M30.5,38 L30.5,34" id="Stroke-17"></path>
                    <path d="M35.5,38 L35.5,32.667" id="Stroke-19"></path>
                    <path d="M40.5,38 L40.5,30" id="Stroke-21"></path>
                </g>
                <g id="Group-23-Copy-19" transform="translate(7.000000, 206.000000)" stroke="#0667C6" stroke-linecap="round" stroke-linejoin="round" stroke-width="3">
                    <path d="M24.3066,35.6738 L19.9176,41.9918 C19.7206,42.2758 19.4186,42.4518 19.0916,42.4778 C18.7646,42.5028 18.4426,42.3738 18.2096,42.1238 L15.9436,39.6768" id="Stroke-1"></path>
                    <path d="M44.6055,48.5 C45.6515,48.5 46.5005,47.565 46.5005,46.413 L46.5005,12.97 C46.5005,6.083 41.4315,0.5 35.1785,0.5 L12.3945,0.5 C11.3485,0.5 10.5005,1.435 10.5005,2.587 L10.5005,46.413 C10.5005,47.565 11.3485,48.5 12.3945,48.5 L44.6055,48.5 Z" id="Stroke-3"></path>
                    <path d="M37.0264,0.667 L37.0264,8.848 C37.0264,10 37.8744,10.935 38.9214,10.935 L46.3484,10.935" id="Stroke-5"></path>
                    <path d="M10.5,5.5 L7.395,5.5 C6.348,5.5 5.5,6.435 5.5,7.587 L5.5,51.413 C5.5,52.565 6.348,53.5 7.395,53.5 L39.605,53.5 C40.652,53.5 41.5,52.565 41.5,51.413 L41.5,49" id="Stroke-7"></path>
                    <path d="M5.5,10.5 L2.395,10.5 C1.348,10.5 0.5,11.435 0.5,12.587 L0.5,56.413 C0.5,57.565 1.348,58.5 2.395,58.5 L34.605,58.5 C35.652,58.5 36.5,57.565 36.5,56.413 L36.5,54" id="Stroke-9"></path>
                    <path d="M24.2085,23.3789 C28.7615,23.3789 32.4525,19.3939 32.4525,14.4769 C32.4525,9.5599 28.7615,5.5729 24.2085,5.5729 C19.6555,5.5729 15.9645,9.5599 15.9645,14.4769 C15.9645,19.3939 19.6555,23.3789 24.2085,23.3789 Z" id="Stroke-11"></path>
                    <polyline id="Stroke-13" points="24.2085 5.5732 24.2085 14.4762 32.4525 14.4762"></polyline>
                    <path d="M29.5,42.5 L40.5,42.5" id="Stroke-15"></path>
                    <path d="M30.5,38 L30.5,34" id="Stroke-17"></path>
                    <path d="M35.5,38 L35.5,32.667" id="Stroke-19"></path>
                    <path d="M40.5,38 L40.5,30" id="Stroke-21"></path>
                </g>
                <g id="Group-23-Copy-18" transform="translate(1440.000000, 2.000000)" stroke="#0667C6" stroke-linecap="round" stroke-linejoin="round" stroke-width="3">
                    <path d="M24.3066,35.6738 L19.9176,41.9918 C19.7206,42.2758 19.4186,42.4518 19.0916,42.4778 C18.7646,42.5028 18.4426,42.3738 18.2096,42.1238 L15.9436,39.6768" id="Stroke-1"></path>
                    <path d="M44.6055,48.5 C45.6515,48.5 46.5005,47.565 46.5005,46.413 L46.5005,12.97 C46.5005,6.083 41.4315,0.5 35.1785,0.5 L12.3945,0.5 C11.3485,0.5 10.5005,1.435 10.5005,2.587 L10.5005,46.413 C10.5005,47.565 11.3485,48.5 12.3945,48.5 L44.6055,48.5 Z" id="Stroke-3"></path>
                    <path d="M37.0264,0.667 L37.0264,8.848 C37.0264,10 37.8744,10.935 38.9214,10.935 L46.3484,10.935" id="Stroke-5"></path>
                    <path d="M10.5,5.5 L7.395,5.5 C6.348,5.5 5.5,6.435 5.5,7.587 L5.5,51.413 C5.5,52.565 6.348,53.5 7.395,53.5 L39.605,53.5 C40.652,53.5 41.5,52.565 41.5,51.413 L41.5,49" id="Stroke-7"></path>
                    <path d="M5.5,10.5 L2.395,10.5 C1.348,10.5 0.5,11.435 0.5,12.587 L0.5,56.413 C0.5,57.565 1.348,58.5 2.395,58.5 L34.605,58.5 C35.652,58.5 36.5,57.565 36.5,56.413 L36.5,54" id="Stroke-9"></path>
                    <path d="M24.2085,23.3789 C28.7615,23.3789 32.4525,19.3939 32.4525,14.4769 C32.4525,9.5599 28.7615,5.5729 24.2085,5.5729 C19.6555,5.5729 15.9645,9.5599 15.9645,14.4769 C15.9645,19.3939 19.6555,23.3789 24.2085,23.3789 Z" id="Stroke-11"></path>
                    <polyline id="Stroke-13" points="24.2085 5.5732 24.2085 14.4762 32.4525 14.4762"></polyline>
                    <path d="M29.5,42.5 L40.5,42.5" id="Stroke-15"></path>
                    <path d="M30.5,38 L30.5,34" id="Stroke-17"></path>
                    <path d="M35.5,38 L35.5,32.667" id="Stroke-19"></path>
                    <path d="M40.5,38 L40.5,30" id="Stroke-21"></path>
                </g>
                <g id="Group-23-Copy-20" transform="translate(961.000000, 206.000000)" stroke="#0667C6" stroke-linecap="round" stroke-linejoin="round" stroke-width="3">
                    <path d="M24.3066,35.6738 L19.9176,41.9918 C19.7206,42.2758 19.4186,42.4518 19.0916,42.4778 C18.7646,42.5028 18.4426,42.3738 18.2096,42.1238 L15.9436,39.6768" id="Stroke-1"></path>
                    <path d="M44.6055,48.5 C45.6515,48.5 46.5005,47.565 46.5005,46.413 L46.5005,12.97 C46.5005,6.083 41.4315,0.5 35.1785,0.5 L12.3945,0.5 C11.3485,0.5 10.5005,1.435 10.5005,2.587 L10.5005,46.413 C10.5005,47.565 11.3485,48.5 12.3945,48.5 L44.6055,48.5 Z" id="Stroke-3"></path>
                    <path d="M37.0264,0.667 L37.0264,8.848 C37.0264,10 37.8744,10.935 38.9214,10.935 L46.3484,10.935" id="Stroke-5"></path>
                    <path d="M10.5,5.5 L7.395,5.5 C6.348,5.5 5.5,6.435 5.5,7.587 L5.5,51.413 C5.5,52.565 6.348,53.5 7.395,53.5 L39.605,53.5 C40.652,53.5 41.5,52.565 41.5,51.413 L41.5,49" id="Stroke-7"></path>
                    <path d="M5.5,10.5 L2.395,10.5 C1.348,10.5 0.5,11.435 0.5,12.587 L0.5,56.413 C0.5,57.565 1.348,58.5 2.395,58.5 L34.605,58.5 C35.652,58.5 36.5,57.565 36.5,56.413 L36.5,54" id="Stroke-9"></path>
                    <path d="M24.2085,23.3789 C28.7615,23.3789 32.4525,19.3939 32.4525,14.4769 C32.4525,9.5599 28.7615,5.5729 24.2085,5.5729 C19.6555,5.5729 15.9645,9.5599 15.9645,14.4769 C15.9645,19.3939 19.6555,23.3789 24.2085,23.3789 Z" id="Stroke-11"></path>
                    <polyline id="Stroke-13" points="24.2085 5.5732 24.2085 14.4762 32.4525 14.4762"></polyline>
                    <path d="M29.5,42.5 L40.5,42.5" id="Stroke-15"></path>
                    <path d="M30.5,38 L30.5,34" id="Stroke-17"></path>
                    <path d="M35.5,38 L35.5,32.667" id="Stroke-19"></path>
                    <path d="M40.5,38 L40.5,30" id="Stroke-21"></path>
                </g>
                <g id="Group-13-Copy-59" transform="translate(718.000000, 3.000000)" stroke="#0667C6" stroke-linecap="round" stroke-linejoin="round" stroke-width="3">
                    <path d="M34,34.5 L45,34.5" id="Stroke-1"></path>
                    <path d="M31.5,39.5 L47.5,39.5" id="Stroke-2"></path>
                    <path d="M34,44.5 L45,44.5" id="Stroke-3"></path>
                    <g id="Group-12">
                        <path d="M22.4131,39.4561 C22.4131,49.8961 34.5871,57.7181 45.5441,52.8481 L55.2821,56.5001 L51.6311,49.1951 C54.6971,46.8971 56.5021,43.2891 56.5001,39.4561 C56.5001,31.7771 48.8691,24.8481 39.4561,24.8481 C30.0441,24.8481 22.4131,31.7771 22.4131,39.4561 Z" id="Stroke-4"></path>
                        <path d="M41,24.5 C41.151,23.696 42,20.5 41.892,17.544 C41.892,8.131 32.639,0.5 21.196,0.5 C9.752,0.5 0.5,8.131 0.5,17.544 C0.6,22.298 2.854,26.75 6.628,29.645 L1.717,38.239 L13.743,33.428 C14.938,33.808 16.161,34.094 17.4,34.285 C17.496,34.3 19.903,34.496 20,34.5 L23,34.5" id="Stroke-6"></path>
                        <path d="M16.75,13.25 C16.75,11.179 18.429,9.5 20.5,9.5 C22.571,9.5 24.25,11.179 24.25,13.25 C24.25,15.321 22.571,17 20.5,17 L20.5,19" id="Stroke-8"></path>
                        <path d="M20.5,23 C20.776,23 21,23.224 21,23.5 C21,23.776 20.776,24 20.5,24 C20.224,24 20,23.776 20,23.5 C20,23.224 20.224,23 20.5,23" id="Stroke-10"></path>
                    </g>
                </g>
                <g id="Group-13-Copy-61" transform="translate(241.000000, 207.000000)" stroke="#0667C6" stroke-linecap="round" stroke-linejoin="round" stroke-width="3">
                    <path d="M34,34.5 L45,34.5" id="Stroke-1"></path>
                    <path d="M31.5,39.5 L47.5,39.5" id="Stroke-2"></path>
                    <path d="M34,44.5 L45,44.5" id="Stroke-3"></path>
                    <g id="Group-12">
                        <path d="M22.4131,39.4561 C22.4131,49.8961 34.5871,57.7181 45.5441,52.8481 L55.2821,56.5001 L51.6311,49.1951 C54.6971,46.8971 56.5021,43.2891 56.5001,39.4561 C56.5001,31.7771 48.8691,24.8481 39.4561,24.8481 C30.0441,24.8481 22.4131,31.7771 22.4131,39.4561 Z" id="Stroke-4"></path>
                        <path d="M41,24.5 C41.151,23.696 42,20.5 41.892,17.544 C41.892,8.131 32.639,0.5 21.196,0.5 C9.752,0.5 0.5,8.131 0.5,17.544 C0.6,22.298 2.854,26.75 6.628,29.645 L1.717,38.239 L13.743,33.428 C14.938,33.808 16.161,34.094 17.4,34.285 C17.496,34.3 19.903,34.496 20,34.5 L23,34.5" id="Stroke-6"></path>
                        <path d="M16.75,13.25 C16.75,11.179 18.429,9.5 20.5,9.5 C22.571,9.5 24.25,11.179 24.25,13.25 C24.25,15.321 22.571,17 20.5,17 L20.5,19" id="Stroke-8"></path>
                        <path d="M20.5,23 C20.776,23 21,23.224 21,23.5 C21,23.776 20.776,24 20.5,24 C20.224,24 20,23.776 20,23.5 C20,23.224 20.224,23 20.5,23" id="Stroke-10"></path>
                    </g>
                </g>
                <g id="Group-13-Copy-60" transform="translate(1672.000000, 3.000000)" stroke="#0667C6" stroke-linecap="round" stroke-linejoin="round" stroke-width="3">
                    <path d="M34,34.5 L45,34.5" id="Stroke-1"></path>
                    <path d="M31.5,39.5 L47.5,39.5" id="Stroke-2"></path>
                    <path d="M34,44.5 L45,44.5" id="Stroke-3"></path>
                    <g id="Group-12">
                        <path d="M22.4131,39.4561 C22.4131,49.8961 34.5871,57.7181 45.5441,52.8481 L55.2821,56.5001 L51.6311,49.1951 C54.6971,46.8971 56.5021,43.2891 56.5001,39.4561 C56.5001,31.7771 48.8691,24.8481 39.4561,24.8481 C30.0441,24.8481 22.4131,31.7771 22.4131,39.4561 Z" id="Stroke-4"></path>
                        <path d="M41,24.5 C41.151,23.696 42,20.5 41.892,17.544 C41.892,8.131 32.639,0.5 21.196,0.5 C9.752,0.5 0.5,8.131 0.5,17.544 C0.6,22.298 2.854,26.75 6.628,29.645 L1.717,38.239 L13.743,33.428 C14.938,33.808 16.161,34.094 17.4,34.285 C17.496,34.3 19.903,34.496 20,34.5 L23,34.5" id="Stroke-6"></path>
                        <path d="M16.75,13.25 C16.75,11.179 18.429,9.5 20.5,9.5 C22.571,9.5 24.25,11.179 24.25,13.25 C24.25,15.321 22.571,17 20.5,17 L20.5,19" id="Stroke-8"></path>
                        <path d="M20.5,23 C20.776,23 21,23.224 21,23.5 C21,23.776 20.776,24 20.5,24 C20.224,24 20,23.776 20,23.5 C20,23.224 20.224,23 20.5,23" id="Stroke-10"></path>
                    </g>
                </g>
                <g id="Group-13-Copy-62" transform="translate(1195.000000, 207.000000)" stroke="#0667C6" stroke-linecap="round" stroke-linejoin="round" stroke-width="3">
                    <path d="M34,34.5 L45,34.5" id="Stroke-1"></path>
                    <path d="M31.5,39.5 L47.5,39.5" id="Stroke-2"></path>
                    <path d="M34,44.5 L45,44.5" id="Stroke-3"></path>
                    <g id="Group-12">
                        <path d="M22.4131,39.4561 C22.4131,49.8961 34.5871,57.7181 45.5441,52.8481 L55.2821,56.5001 L51.6311,49.1951 C54.6971,46.8971 56.5021,43.2891 56.5001,39.4561 C56.5001,31.7771 48.8691,24.8481 39.4561,24.8481 C30.0441,24.8481 22.4131,31.7771 22.4131,39.4561 Z" id="Stroke-4"></path>
                        <path d="M41,24.5 C41.151,23.696 42,20.5 41.892,17.544 C41.892,8.131 32.639,0.5 21.196,0.5 C9.752,0.5 0.5,8.131 0.5,17.544 C0.6,22.298 2.854,26.75 6.628,29.645 L1.717,38.239 L13.743,33.428 C14.938,33.808 16.161,34.094 17.4,34.285 C17.496,34.3 19.903,34.496 20,34.5 L23,34.5" id="Stroke-6"></path>
                        <path d="M16.75,13.25 C16.75,11.179 18.429,9.5 20.5,9.5 C22.571,9.5 24.25,11.179 24.25,13.25 C24.25,15.321 22.571,17 20.5,17 L20.5,19" id="Stroke-8"></path>
                        <path d="M20.5,23 C20.776,23 21,23.224 21,23.5 C21,23.776 20.776,24 20.5,24 C20.224,24 20,23.776 20,23.5 C20,23.224 20.224,23 20.5,23" id="Stroke-10"></path>
                    </g>
                </g>
                <g id="Group-11-Copy-48" transform="translate(359.000000, 102.000000)" stroke="#0667C6" stroke-linecap="round" stroke-linejoin="round" stroke-width="3">
                    <path d="M26.1621,28.5 L12.5251,14.271 C10.0711,11.825 9.4611,8.066 11.0131,4.961 C12.1851,2.638 14.3901,1.019 16.9441,0.604 C19.5001,0.189 22.0981,1.029 23.9351,2.864 L26.1621,5.09 L28.3891,2.864 C30.2261,1.029 32.8241,0.189 35.3791,0.604 C37.9341,1.019 40.1391,2.638 41.3101,4.961 C42.8631,8.066 42.2531,11.825 39.7991,14.271 L26.1621,28.5 Z" id="Stroke-1"></path>
                    <path d="M32.6846,47.5 L44.3156,47.5 C44.9696,47.5 45.4996,48.03 45.4996,48.685 L45.4996,53.315 C45.4996,53.97 44.9696,54.5 44.3156,54.5 L32.6846,54.5 C32.0306,54.5 31.4996,53.97 31.4996,53.315 L31.4996,48.685 C31.4996,48.03 32.0306,47.5 32.6846,47.5 Z" id="Stroke-3"></path>
                    <path d="M43.5,47.5 L43.5,43.501 C43.5,43.501 49.31,37.749 51.806,35.265 C52.253,34.819 52.5,34.219 52.5,33.587 L52.5,15.232 C52.5,15.232 46.563,13.078 46.563,29.63 L39.511,36.681 L41.146,29.556 C41.96,26.141 38.839,24.683 37.136,27.328 C35.643,30.348 34.425,33.496 33.5,36.735 L33.5,47.5" id="Stroke-5"></path>
                    <path d="M8.6846,47.5 L20.3156,47.5 C20.9696,47.5 21.4996,48.03 21.4996,48.685 L21.4996,53.315 C21.4996,53.97 20.9696,54.5 20.3156,54.5 L8.6846,54.5 C8.0306,54.5 7.4996,53.97 7.4996,53.315 L7.4996,48.685 C7.4996,48.03 8.0306,47.5 8.6846,47.5 Z" id="Stroke-7"></path>
                    <path d="M9.5,47.5 L9.5,43.498 C9.5,43.498 3.963,37.666 1.249,35.209 C0.775,34.784 0.503,34.179 0.5,33.542 L0.5,15.232 C0.5,15.232 6.437,13.078 6.437,29.63 L13.489,36.681 L11.854,29.556 C11.038,26.141 14.161,24.683 15.864,27.328 C17.357,30.348 18.575,33.496 19.5,36.735 L19.5,47.5" id="Stroke-9"></path>
                </g>
                <g id="Group-11-Copy-52" transform="translate(1790.000000, 306.000000)" stroke="#0667C6" stroke-linecap="round" stroke-linejoin="round" stroke-width="3">
                    <path d="M26.1621,28.5 L12.5251,14.271 C10.0711,11.825 9.4611,8.066 11.0131,4.961 C12.1851,2.638 14.3901,1.019 16.9441,0.604 C19.5001,0.189 22.0981,1.029 23.9351,2.864 L26.1621,5.09 L28.3891,2.864 C30.2261,1.029 32.8241,0.189 35.3791,0.604 C37.9341,1.019 40.1391,2.638 41.3101,4.961 C42.8631,8.066 42.2531,11.825 39.7991,14.271 L26.1621,28.5 Z" id="Stroke-1"></path>
                    <path d="M32.6846,47.5 L44.3156,47.5 C44.9696,47.5 45.4996,48.03 45.4996,48.685 L45.4996,53.315 C45.4996,53.97 44.9696,54.5 44.3156,54.5 L32.6846,54.5 C32.0306,54.5 31.4996,53.97 31.4996,53.315 L31.4996,48.685 C31.4996,48.03 32.0306,47.5 32.6846,47.5 Z" id="Stroke-3"></path>
                    <path d="M43.5,47.5 L43.5,43.501 C43.5,43.501 49.31,37.749 51.806,35.265 C52.253,34.819 52.5,34.219 52.5,33.587 L52.5,15.232 C52.5,15.232 46.563,13.078 46.563,29.63 L39.511,36.681 L41.146,29.556 C41.96,26.141 38.839,24.683 37.136,27.328 C35.643,30.348 34.425,33.496 33.5,36.735 L33.5,47.5" id="Stroke-5"></path>
                    <path d="M8.6846,47.5 L20.3156,47.5 C20.9696,47.5 21.4996,48.03 21.4996,48.685 L21.4996,53.315 C21.4996,53.97 20.9696,54.5 20.3156,54.5 L8.6846,54.5 C8.0306,54.5 7.4996,53.97 7.4996,53.315 L7.4996,48.685 C7.4996,48.03 8.0306,47.5 8.6846,47.5 Z" id="Stroke-7"></path>
                    <path d="M9.5,47.5 L9.5,43.498 C9.5,43.498 3.963,37.666 1.249,35.209 C0.775,34.784 0.503,34.179 0.5,33.542 L0.5,15.232 C0.5,15.232 6.437,13.078 6.437,29.63 L13.489,36.681 L11.854,29.556 C11.038,26.141 14.161,24.683 15.864,27.328 C17.357,30.348 18.575,33.496 19.5,36.735 L19.5,47.5" id="Stroke-9"></path>
                </g>
                <g id="Group-11-Copy-49" transform="translate(1313.000000, 102.000000)" stroke="#0667C6" stroke-linecap="round" stroke-linejoin="round" stroke-width="3">
                    <path d="M26.1621,28.5 L12.5251,14.271 C10.0711,11.825 9.4611,8.066 11.0131,4.961 C12.1851,2.638 14.3901,1.019 16.9441,0.604 C19.5001,0.189 22.0981,1.029 23.9351,2.864 L26.1621,5.09 L28.3891,2.864 C30.2261,1.029 32.8241,0.189 35.3791,0.604 C37.9341,1.019 40.1391,2.638 41.3101,4.961 C42.8631,8.066 42.2531,11.825 39.7991,14.271 L26.1621,28.5 Z" id="Stroke-1"></path>
                    <path d="M32.6846,47.5 L44.3156,47.5 C44.9696,47.5 45.4996,48.03 45.4996,48.685 L45.4996,53.315 C45.4996,53.97 44.9696,54.5 44.3156,54.5 L32.6846,54.5 C32.0306,54.5 31.4996,53.97 31.4996,53.315 L31.4996,48.685 C31.4996,48.03 32.0306,47.5 32.6846,47.5 Z" id="Stroke-3"></path>
                    <path d="M43.5,47.5 L43.5,43.501 C43.5,43.501 49.31,37.749 51.806,35.265 C52.253,34.819 52.5,34.219 52.5,33.587 L52.5,15.232 C52.5,15.232 46.563,13.078 46.563,29.63 L39.511,36.681 L41.146,29.556 C41.96,26.141 38.839,24.683 37.136,27.328 C35.643,30.348 34.425,33.496 33.5,36.735 L33.5,47.5" id="Stroke-5"></path>
                    <path d="M8.6846,47.5 L20.3156,47.5 C20.9696,47.5 21.4996,48.03 21.4996,48.685 L21.4996,53.315 C21.4996,53.97 20.9696,54.5 20.3156,54.5 L8.6846,54.5 C8.0306,54.5 7.4996,53.97 7.4996,53.315 L7.4996,48.685 C7.4996,48.03 8.0306,47.5 8.6846,47.5 Z" id="Stroke-7"></path>
                    <path d="M9.5,47.5 L9.5,43.498 C9.5,43.498 3.963,37.666 1.249,35.209 C0.775,34.784 0.503,34.179 0.5,33.542 L0.5,15.232 C0.5,15.232 6.437,13.078 6.437,29.63 L13.489,36.681 L11.854,29.556 C11.038,26.141 14.161,24.683 15.864,27.328 C17.357,30.348 18.575,33.496 19.5,36.735 L19.5,47.5" id="Stroke-9"></path>
                </g>
                <g id="Group-11-Copy-53" transform="translate(836.000000, 306.000000)" stroke="#0667C6" stroke-linecap="round" stroke-linejoin="round" stroke-width="3">
                    <path d="M26.1621,28.5 L12.5251,14.271 C10.0711,11.825 9.4611,8.066 11.0131,4.961 C12.1851,2.638 14.3901,1.019 16.9441,0.604 C19.5001,0.189 22.0981,1.029 23.9351,2.864 L26.1621,5.09 L28.3891,2.864 C30.2261,1.029 32.8241,0.189 35.3791,0.604 C37.9341,1.019 40.1391,2.638 41.3101,4.961 C42.8631,8.066 42.2531,11.825 39.7991,14.271 L26.1621,28.5 Z" id="Stroke-1"></path>
                    <path d="M32.6846,47.5 L44.3156,47.5 C44.9696,47.5 45.4996,48.03 45.4996,48.685 L45.4996,53.315 C45.4996,53.97 44.9696,54.5 44.3156,54.5 L32.6846,54.5 C32.0306,54.5 31.4996,53.97 31.4996,53.315 L31.4996,48.685 C31.4996,48.03 32.0306,47.5 32.6846,47.5 Z" id="Stroke-3"></path>
                    <path d="M43.5,47.5 L43.5,43.501 C43.5,43.501 49.31,37.749 51.806,35.265 C52.253,34.819 52.5,34.219 52.5,33.587 L52.5,15.232 C52.5,15.232 46.563,13.078 46.563,29.63 L39.511,36.681 L41.146,29.556 C41.96,26.141 38.839,24.683 37.136,27.328 C35.643,30.348 34.425,33.496 33.5,36.735 L33.5,47.5" id="Stroke-5"></path>
                    <path d="M8.6846,47.5 L20.3156,47.5 C20.9696,47.5 21.4996,48.03 21.4996,48.685 L21.4996,53.315 C21.4996,53.97 20.9696,54.5 20.3156,54.5 L8.6846,54.5 C8.0306,54.5 7.4996,53.97 7.4996,53.315 L7.4996,48.685 C7.4996,48.03 8.0306,47.5 8.6846,47.5 Z" id="Stroke-7"></path>
                    <path d="M9.5,47.5 L9.5,43.498 C9.5,43.498 3.963,37.666 1.249,35.209 C0.775,34.784 0.503,34.179 0.5,33.542 L0.5,15.232 C0.5,15.232 6.437,13.078 6.437,29.63 L13.489,36.681 L11.854,29.556 C11.038,26.141 14.161,24.683 15.864,27.328 C17.357,30.348 18.575,33.496 19.5,36.735 L19.5,47.5" id="Stroke-9"></path>
                </g>
                <g id="Group-11-Copy-50" transform="translate(119.000000, 102.000000)" stroke="#0667C6" stroke-linecap="round" stroke-linejoin="round" stroke-width="3">
                    <path d="M42.9824,35.3301 C44.2374,35.5721 43.2424,36.2631 45.7534,36.7481 C48.2634,37.2321 51.7264,32.6021 52.3614,29.1921 C52.9964,25.7821 51.3794,22.8201 48.8694,22.3351 C46.3584,21.8511 46.1994,22.7031 45.3624,22.5411 C44.5254,22.3801 44.6834,21.5271 42.1724,21.0421 C39.6624,20.5581 37.0934,22.7111 36.4594,26.1211 C35.8244,29.5311 37.3824,35.1321 39.8934,35.6161 C42.4054,36.1011 41.7264,35.0871 42.9824,35.3301 Z" id="Stroke-1"></path>
                    <path d="M45.3623,22.541 L45.6793,20.836 C45.8513,19.895 45.2463,18.989 44.3233,18.808 L42.6493,18.484" id="Stroke-3"></path>
                    <path d="M47.9717,20.7646 C49.6797,20.8476 51.2347,19.7696 51.7847,18.1196 C51.8287,17.9866 51.8097,17.8386 51.7317,17.7226 C51.6537,17.6056 51.5267,17.5336 51.3877,17.5276 C49.6797,17.4446 48.1247,18.5236 47.5757,20.1726 C47.5307,20.3056 47.5497,20.4526 47.6277,20.5706 C47.7057,20.6866 47.8337,20.7586 47.9717,20.7646 Z" id="Stroke-5"></path>
                    <path d="M14.9072,12.9238 C18.2642,13.2918 21.2802,10.8178 21.6422,7.3978 C22.0042,3.9768 19.5752,0.9048 16.2172,0.5358 C12.8582,0.1678 9.8432,2.6428 9.4812,6.0628 C9.1192,9.4838 11.5492,12.5548 14.9072,12.9238 Z" id="Stroke-7"></path>
                    <path d="M37.6025,49.3789 L34.4825,38.6259 C33.2285,34.2799 29.5245,31.1339 25.1025,30.6569 L23.2855,30.4579 C22.6935,30.3939 22.2325,29.9029 22.1955,29.2979 L21.8875,24.2899 C21.8465,23.6259 22.3245,23.0469 22.9725,22.9729 L26.4585,22.5749 C29.1075,22.2849 31.5595,21.0129 33.3475,19.0009 L35.6495,16.5869 C36.5985,15.6359 36.9675,14.2359 36.6155,12.9289 C36.2605,11.6219 35.2405,10.6119 33.9475,10.2899 C32.6545,9.9689 31.2905,10.3859 30.3855,11.3809 L27.9725,13.9149 C27.3725,14.6049 26.5415,15.0419 25.6435,15.1429 L11.1615,16.7919 C6.5415,17.3269 2.7475,20.7549 1.6725,25.3619 L0.5985,30.0059 C0.1345,32.0129 1.3525,34.0239 3.3225,34.4999 C3.4705,34.5369 3.6215,34.5649 3.7735,34.5819 C5.6145,34.7859 7.3155,33.5629 7.7415,31.7279 L8.8155,27.0829 C9.1745,25.5469 10.4395,24.4029 11.9795,24.2229 L13.2255,24.0779 C13.5555,24.0409 13.8875,24.1429 14.1435,24.3599 C14.3985,24.5769 14.5565,24.8919 14.5805,25.2299 L15.3555,37.8129 C15.4075,38.6139 15.2065,39.4119 14.7805,40.0879 L8.7125,49.7399 C7.6175,51.4779 8.1125,53.7909 9.8175,54.9059 C11.5235,56.0229 13.7935,55.5189 14.8895,53.7809 L20.9695,44.1409 C22.1265,42.2789 22.7235,40.1129 22.6865,37.9109 L24.3165,38.0899 C25.7895,38.2509 27.0225,39.2989 27.4435,40.7459 L30.5625,51.4989 C31.1395,53.4779 33.1815,54.6059 35.1245,54.0179 C37.0675,53.4309 38.1745,51.3499 37.5975,49.3709 L37.6025,49.3789 Z" id="Stroke-9"></path>
                </g>
                <g id="Group-11-Copy-54" transform="translate(1550.000000, 306.000000)" stroke="#0667C6" stroke-linecap="round" stroke-linejoin="round" stroke-width="3">
                    <path d="M42.9824,35.3301 C44.2374,35.5721 43.2424,36.2631 45.7534,36.7481 C48.2634,37.2321 51.7264,32.6021 52.3614,29.1921 C52.9964,25.7821 51.3794,22.8201 48.8694,22.3351 C46.3584,21.8511 46.1994,22.7031 45.3624,22.5411 C44.5254,22.3801 44.6834,21.5271 42.1724,21.0421 C39.6624,20.5581 37.0934,22.7111 36.4594,26.1211 C35.8244,29.5311 37.3824,35.1321 39.8934,35.6161 C42.4054,36.1011 41.7264,35.0871 42.9824,35.3301 Z" id="Stroke-1"></path>
                    <path d="M45.3623,22.541 L45.6793,20.836 C45.8513,19.895 45.2463,18.989 44.3233,18.808 L42.6493,18.484" id="Stroke-3"></path>
                    <path d="M47.9717,20.7646 C49.6797,20.8476 51.2347,19.7696 51.7847,18.1196 C51.8287,17.9866 51.8097,17.8386 51.7317,17.7226 C51.6537,17.6056 51.5267,17.5336 51.3877,17.5276 C49.6797,17.4446 48.1247,18.5236 47.5757,20.1726 C47.5307,20.3056 47.5497,20.4526 47.6277,20.5706 C47.7057,20.6866 47.8337,20.7586 47.9717,20.7646 Z" id="Stroke-5"></path>
                    <path d="M14.9072,12.9238 C18.2642,13.2918 21.2802,10.8178 21.6422,7.3978 C22.0042,3.9768 19.5752,0.9048 16.2172,0.5358 C12.8582,0.1678 9.8432,2.6428 9.4812,6.0628 C9.1192,9.4838 11.5492,12.5548 14.9072,12.9238 Z" id="Stroke-7"></path>
                    <path d="M37.6025,49.3789 L34.4825,38.6259 C33.2285,34.2799 29.5245,31.1339 25.1025,30.6569 L23.2855,30.4579 C22.6935,30.3939 22.2325,29.9029 22.1955,29.2979 L21.8875,24.2899 C21.8465,23.6259 22.3245,23.0469 22.9725,22.9729 L26.4585,22.5749 C29.1075,22.2849 31.5595,21.0129 33.3475,19.0009 L35.6495,16.5869 C36.5985,15.6359 36.9675,14.2359 36.6155,12.9289 C36.2605,11.6219 35.2405,10.6119 33.9475,10.2899 C32.6545,9.9689 31.2905,10.3859 30.3855,11.3809 L27.9725,13.9149 C27.3725,14.6049 26.5415,15.0419 25.6435,15.1429 L11.1615,16.7919 C6.5415,17.3269 2.7475,20.7549 1.6725,25.3619 L0.5985,30.0059 C0.1345,32.0129 1.3525,34.0239 3.3225,34.4999 C3.4705,34.5369 3.6215,34.5649 3.7735,34.5819 C5.6145,34.7859 7.3155,33.5629 7.7415,31.7279 L8.8155,27.0829 C9.1745,25.5469 10.4395,24.4029 11.9795,24.2229 L13.2255,24.0779 C13.5555,24.0409 13.8875,24.1429 14.1435,24.3599 C14.3985,24.5769 14.5565,24.8919 14.5805,25.2299 L15.3555,37.8129 C15.4075,38.6139 15.2065,39.4119 14.7805,40.0879 L8.7125,49.7399 C7.6175,51.4779 8.1125,53.7909 9.8175,54.9059 C11.5235,56.0229 13.7935,55.5189 14.8895,53.7809 L20.9695,44.1409 C22.1265,42.2789 22.7235,40.1129 22.6865,37.9109 L24.3165,38.0899 C25.7895,38.2509 27.0225,39.2989 27.4435,40.7459 L30.5625,51.4989 C31.1395,53.4779 33.1815,54.6059 35.1245,54.0179 C37.0675,53.4309 38.1745,51.3499 37.5975,49.3709 L37.6025,49.3789 Z" id="Stroke-9"></path>
                </g>
                <g id="Group-11-Copy-51" transform="translate(1073.000000, 102.000000)" stroke="#0667C6" stroke-linecap="round" stroke-linejoin="round" stroke-width="3">
                    <path d="M42.9824,35.3301 C44.2374,35.5721 43.2424,36.2631 45.7534,36.7481 C48.2634,37.2321 51.7264,32.6021 52.3614,29.1921 C52.9964,25.7821 51.3794,22.8201 48.8694,22.3351 C46.3584,21.8511 46.1994,22.7031 45.3624,22.5411 C44.5254,22.3801 44.6834,21.5271 42.1724,21.0421 C39.6624,20.5581 37.0934,22.7111 36.4594,26.1211 C35.8244,29.5311 37.3824,35.1321 39.8934,35.6161 C42.4054,36.1011 41.7264,35.0871 42.9824,35.3301 Z" id="Stroke-1"></path>
                    <path d="M45.3623,22.541 L45.6793,20.836 C45.8513,19.895 45.2463,18.989 44.3233,18.808 L42.6493,18.484" id="Stroke-3"></path>
                    <path d="M47.9717,20.7646 C49.6797,20.8476 51.2347,19.7696 51.7847,18.1196 C51.8287,17.9866 51.8097,17.8386 51.7317,17.7226 C51.6537,17.6056 51.5267,17.5336 51.3877,17.5276 C49.6797,17.4446 48.1247,18.5236 47.5757,20.1726 C47.5307,20.3056 47.5497,20.4526 47.6277,20.5706 C47.7057,20.6866 47.8337,20.7586 47.9717,20.7646 Z" id="Stroke-5"></path>
                    <path d="M14.9072,12.9238 C18.2642,13.2918 21.2802,10.8178 21.6422,7.3978 C22.0042,3.9768 19.5752,0.9048 16.2172,0.5358 C12.8582,0.1678 9.8432,2.6428 9.4812,6.0628 C9.1192,9.4838 11.5492,12.5548 14.9072,12.9238 Z" id="Stroke-7"></path>
                    <path d="M37.6025,49.3789 L34.4825,38.6259 C33.2285,34.2799 29.5245,31.1339 25.1025,30.6569 L23.2855,30.4579 C22.6935,30.3939 22.2325,29.9029 22.1955,29.2979 L21.8875,24.2899 C21.8465,23.6259 22.3245,23.0469 22.9725,22.9729 L26.4585,22.5749 C29.1075,22.2849 31.5595,21.0129 33.3475,19.0009 L35.6495,16.5869 C36.5985,15.6359 36.9675,14.2359 36.6155,12.9289 C36.2605,11.6219 35.2405,10.6119 33.9475,10.2899 C32.6545,9.9689 31.2905,10.3859 30.3855,11.3809 L27.9725,13.9149 C27.3725,14.6049 26.5415,15.0419 25.6435,15.1429 L11.1615,16.7919 C6.5415,17.3269 2.7475,20.7549 1.6725,25.3619 L0.5985,30.0059 C0.1345,32.0129 1.3525,34.0239 3.3225,34.4999 C3.4705,34.5369 3.6215,34.5649 3.7735,34.5819 C5.6145,34.7859 7.3155,33.5629 7.7415,31.7279 L8.8155,27.0829 C9.1745,25.5469 10.4395,24.4029 11.9795,24.2229 L13.2255,24.0779 C13.5555,24.0409 13.8875,24.1429 14.1435,24.3599 C14.3985,24.5769 14.5565,24.8919 14.5805,25.2299 L15.3555,37.8129 C15.4075,38.6139 15.2065,39.4119 14.7805,40.0879 L8.7125,49.7399 C7.6175,51.4779 8.1125,53.7909 9.8175,54.9059 C11.5235,56.0229 13.7935,55.5189 14.8895,53.7809 L20.9695,44.1409 C22.1265,42.2789 22.7235,40.1129 22.6865,37.9109 L24.3165,38.0899 C25.7895,38.2509 27.0225,39.2989 27.4435,40.7459 L30.5625,51.4989 C31.1395,53.4779 33.1815,54.6059 35.1245,54.0179 C37.0675,53.4309 38.1745,51.3499 37.5975,49.3709 L37.6025,49.3789 Z" id="Stroke-9"></path>
                </g>
                <g id="Group-11-Copy-55" transform="translate(596.000000, 306.000000)" stroke="#0667C6" stroke-linecap="round" stroke-linejoin="round" stroke-width="3">
                    <path d="M42.9824,35.3301 C44.2374,35.5721 43.2424,36.2631 45.7534,36.7481 C48.2634,37.2321 51.7264,32.6021 52.3614,29.1921 C52.9964,25.7821 51.3794,22.8201 48.8694,22.3351 C46.3584,21.8511 46.1994,22.7031 45.3624,22.5411 C44.5254,22.3801 44.6834,21.5271 42.1724,21.0421 C39.6624,20.5581 37.0934,22.7111 36.4594,26.1211 C35.8244,29.5311 37.3824,35.1321 39.8934,35.6161 C42.4054,36.1011 41.7264,35.0871 42.9824,35.3301 Z" id="Stroke-1"></path>
                    <path d="M45.3623,22.541 L45.6793,20.836 C45.8513,19.895 45.2463,18.989 44.3233,18.808 L42.6493,18.484" id="Stroke-3"></path>
                    <path d="M47.9717,20.7646 C49.6797,20.8476 51.2347,19.7696 51.7847,18.1196 C51.8287,17.9866 51.8097,17.8386 51.7317,17.7226 C51.6537,17.6056 51.5267,17.5336 51.3877,17.5276 C49.6797,17.4446 48.1247,18.5236 47.5757,20.1726 C47.5307,20.3056 47.5497,20.4526 47.6277,20.5706 C47.7057,20.6866 47.8337,20.7586 47.9717,20.7646 Z" id="Stroke-5"></path>
                    <path d="M14.9072,12.9238 C18.2642,13.2918 21.2802,10.8178 21.6422,7.3978 C22.0042,3.9768 19.5752,0.9048 16.2172,0.5358 C12.8582,0.1678 9.8432,2.6428 9.4812,6.0628 C9.1192,9.4838 11.5492,12.5548 14.9072,12.9238 Z" id="Stroke-7"></path>
                    <path d="M37.6025,49.3789 L34.4825,38.6259 C33.2285,34.2799 29.5245,31.1339 25.1025,30.6569 L23.2855,30.4579 C22.6935,30.3939 22.2325,29.9029 22.1955,29.2979 L21.8875,24.2899 C21.8465,23.6259 22.3245,23.0469 22.9725,22.9729 L26.4585,22.5749 C29.1075,22.2849 31.5595,21.0129 33.3475,19.0009 L35.6495,16.5869 C36.5985,15.6359 36.9675,14.2359 36.6155,12.9289 C36.2605,11.6219 35.2405,10.6119 33.9475,10.2899 C32.6545,9.9689 31.2905,10.3859 30.3855,11.3809 L27.9725,13.9149 C27.3725,14.6049 26.5415,15.0419 25.6435,15.1429 L11.1615,16.7919 C6.5415,17.3269 2.7475,20.7549 1.6725,25.3619 L0.5985,30.0059 C0.1345,32.0129 1.3525,34.0239 3.3225,34.4999 C3.4705,34.5369 3.6215,34.5649 3.7735,34.5819 C5.6145,34.7859 7.3155,33.5629 7.7415,31.7279 L8.8155,27.0829 C9.1745,25.5469 10.4395,24.4029 11.9795,24.2229 L13.2255,24.0779 C13.5555,24.0409 13.8875,24.1429 14.1435,24.3599 C14.3985,24.5769 14.5565,24.8919 14.5805,25.2299 L15.3555,37.8129 C15.4075,38.6139 15.2065,39.4119 14.7805,40.0879 L8.7125,49.7399 C7.6175,51.4779 8.1125,53.7909 9.8175,54.9059 C11.5235,56.0229 13.7935,55.5189 14.8895,53.7809 L20.9695,44.1409 C22.1265,42.2789 22.7235,40.1129 22.6865,37.9109 L24.3165,38.0899 C25.7895,38.2509 27.0225,39.2989 27.4435,40.7459 L30.5625,51.4989 C31.1395,53.4779 33.1815,54.6059 35.1245,54.0179 C37.0675,53.4309 38.1745,51.3499 37.5975,49.3709 L37.6025,49.3789 Z" id="Stroke-9"></path>
                </g>
                <g id="Group-14-Copy-6" transform="translate(244.000000, 0.000000)">
                    <path d="M32.2881,28.6954 C33.2441,22.5404 32.7871,22.3374 34.5001,20.6244 C36.1411,18.9834 38.2461,18.9194 38.3041,18.8004 C38.3041,18.8004 39.9431,18.2534 39.9431,16.0664 C39.9441,15.0794 38.3781,14.2224 37.9611,13.3584 C37.5491,12.5044 37.3281,11.6864 37.2511,10.7424 C37.0801,8.6734 37.3691,6.4534 38.3041,4.5844 C39.3971,2.3964 43.2251,0.2094 46.4311,2.4234 C47.2921,3.0174 47.6051,4.1364 47.8671,5.1334 C48.1521,6.2254 48.4451,8.5084 48.5001,9.6244 C48.6221,12.1324 47.6061,13.0504 45.9591,14.9734 C45.5841,15.3474 45.4761,16.0914 45.4121,16.6134 C45.2331,18.0644 46.5871,18.4514 47.5101,19.0554 C48.4871,19.6964 50.8531,20.7704 51.5001,21.6244 C53.8851,24.7754 53.4371,30.5044 54.0001,34.3594" id="Stroke-1" stroke="#0667C6" stroke-width="3" stroke-linejoin="round"></path>
                    <path d="M21.5,12.9571 C21.5,11.6691 20.455,10.6241 19.167,10.6241 L14.5,10.6241 L14.5,5.9571 C14.5,4.6691 13.455,3.6241 12.167,3.6241 L9.833,3.6241 C8.545,3.6241 7.5,4.6691 7.5,5.9571 L7.5,10.6241 L3.5,10.6241 C2.396,10.6241 1.5,11.6691 1.5,12.9571 L1.5,15.2911 C1.5,16.5791 2.396,17.6241 3.5,17.6241 L7.5,17.6241 L7.5,22.2911 C7.5,23.5791 8.545,24.6241 9.833,24.6241 L12.167,24.6241 C13.455,24.6241 14.5,23.5791 14.5,22.2911 L14.5,17.6241 L19.167,17.6241 C20.455,17.6241 21.5,16.5791 21.5,15.2911 L21.5,12.9571 Z" id="Stroke-3" stroke="#0667C6" stroke-width="3" stroke-linecap="round" stroke-linejoin="round"></path>
                    <path d="M13.3125,44.9532 C16.3405,44.9532 18.7965,42.3952 18.7965,39.2402 C18.7965,36.0862 16.3405,33.5272 13.3125,33.5272 C10.2835,33.5272 7.8285,36.0862 7.8285,39.2402 C7.8285,42.3952 10.2835,44.9532 13.3125,44.9532 Z" id="Stroke-5" stroke="#0667C6" stroke-width="3" stroke-linecap="round" stroke-linejoin="round"></path>
                    <path d="M3.5,39.6241 L3.5,60.6241" id="Stroke-7" stroke="#0667C6" stroke-width="3" stroke-linecap="round" stroke-linejoin="round"></path>
                    <path d="M53.5,39.6241 L53.5,60.6241" id="Stroke-9" stroke="#0667C6" stroke-width="3" stroke-linecap="round" stroke-linejoin="round"></path>
                    <mask id="mask-10" fill="white">
                        <use xlink:href="#path-9"></use>
                    </mask>
                    <g id="Clip-12"></g>
                    <polygon id="Stroke-11" stroke="#0667C6" stroke-width="3" stroke-linecap="round" stroke-linejoin="round" mask="url(#mask-10)" points="3.5 51.6241 53.5 51.6241 53.5 44.6241 3.5 44.6241"></polygon>
                    <path d="M23.5,44.6241 L49.5,44.6241 L49.5,38.0241 C49.5,35.5941 47.56,33.6241 45.167,33.6241 L24.583,33.6241 C23.985,33.6241 23.5,34.1161 23.5,34.7241 L23.5,44.6241 Z" id="Stroke-13" stroke="#0667C6" stroke-width="3" stroke-linecap="round" stroke-linejoin="round" mask="url(#mask-10)"></path>
                </g>
                <g id="Group-14-Copy-8" transform="translate(1195.000000, 0.000000)">
                    <path d="M32.2881,28.6954 C33.2441,22.5404 32.7871,22.3374 34.5001,20.6244 C36.1411,18.9834 38.2461,18.9194 38.3041,18.8004 C38.3041,18.8004 39.9431,18.2534 39.9431,16.0664 C39.9441,15.0794 38.3781,14.2224 37.9611,13.3584 C37.5491,12.5044 37.3281,11.6864 37.2511,10.7424 C37.0801,8.6734 37.3691,6.4534 38.3041,4.5844 C39.3971,2.3964 43.2251,0.2094 46.4311,2.4234 C47.2921,3.0174 47.6051,4.1364 47.8671,5.1334 C48.1521,6.2254 48.4451,8.5084 48.5001,9.6244 C48.6221,12.1324 47.6061,13.0504 45.9591,14.9734 C45.5841,15.3474 45.4761,16.0914 45.4121,16.6134 C45.2331,18.0644 46.5871,18.4514 47.5101,19.0554 C48.4871,19.6964 50.8531,20.7704 51.5001,21.6244 C53.8851,24.7754 53.4371,30.5044 54.0001,34.3594" id="Stroke-1" stroke="#0667C6" stroke-width="3" stroke-linejoin="round"></path>
                    <path d="M21.5,12.9571 C21.5,11.6691 20.455,10.6241 19.167,10.6241 L14.5,10.6241 L14.5,5.9571 C14.5,4.6691 13.455,3.6241 12.167,3.6241 L9.833,3.6241 C8.545,3.6241 7.5,4.6691 7.5,5.9571 L7.5,10.6241 L3.5,10.6241 C2.396,10.6241 1.5,11.6691 1.5,12.9571 L1.5,15.2911 C1.5,16.5791 2.396,17.6241 3.5,17.6241 L7.5,17.6241 L7.5,22.2911 C7.5,23.5791 8.545,24.6241 9.833,24.6241 L12.167,24.6241 C13.455,24.6241 14.5,23.5791 14.5,22.2911 L14.5,17.6241 L19.167,17.6241 C20.455,17.6241 21.5,16.5791 21.5,15.2911 L21.5,12.9571 Z" id="Stroke-3" stroke="#0667C6" stroke-width="3" stroke-linecap="round" stroke-linejoin="round"></path>
                    <path d="M13.3125,44.9532 C16.3405,44.9532 18.7965,42.3952 18.7965,39.2402 C18.7965,36.0862 16.3405,33.5272 13.3125,33.5272 C10.2835,33.5272 7.8285,36.0862 7.8285,39.2402 C7.8285,42.3952 10.2835,44.9532 13.3125,44.9532 Z" id="Stroke-5" stroke="#0667C6" stroke-width="3" stroke-linecap="round" stroke-linejoin="round"></path>
                    <path d="M3.5,39.6241 L3.5,60.6241" id="Stroke-7" stroke="#0667C6" stroke-width="3" stroke-linecap="round" stroke-linejoin="round"></path>
                    <path d="M53.5,39.6241 L53.5,60.6241" id="Stroke-9" stroke="#0667C6" stroke-width="3" stroke-linecap="round" stroke-linejoin="round"></path>
                    <mask id="mask-12" fill="white">
                        <use xlink:href="#path-11"></use>
                    </mask>
                    <g id="Clip-12"></g>
                    <polygon id="Stroke-11" stroke="#0667C6" stroke-width="3" stroke-linecap="round" stroke-linejoin="round" mask="url(#mask-12)" points="3.5 51.6241 53.5 51.6241 53.5 44.6241 3.5 44.6241"></polygon>
                    <path d="M23.5,44.6241 L49.5,44.6241 L49.5,38.0241 C49.5,35.5941 47.56,33.6241 45.167,33.6241 L24.583,33.6241 C23.985,33.6241 23.5,34.1161 23.5,34.7241 L23.5,44.6241 Z" id="Stroke-13" stroke="#0667C6" stroke-width="3" stroke-linecap="round" stroke-linejoin="round" mask="url(#mask-12)"></path>
                </g>
                <g id="Group-14-Copy-10" transform="translate(718.000000, 206.000000)">
                    <path d="M32.2881,28.6954 C33.2441,22.5404 32.7871,22.3374 34.5001,20.6244 C36.1411,18.9834 38.2461,18.9194 38.3041,18.8004 C38.3041,18.8004 39.9431,18.2534 39.9431,16.0664 C39.9441,15.0794 38.3781,14.2224 37.9611,13.3584 C37.5491,12.5044 37.3281,11.6864 37.2511,10.7424 C37.0801,8.6734 37.3691,6.4534 38.3041,4.5844 C39.3971,2.3964 43.2251,0.2094 46.4311,2.4234 C47.2921,3.0174 47.6051,4.1364 47.8671,5.1334 C48.1521,6.2254 48.4451,8.5084 48.5001,9.6244 C48.6221,12.1324 47.6061,13.0504 45.9591,14.9734 C45.5841,15.3474 45.4761,16.0914 45.4121,16.6134 C45.2331,18.0644 46.5871,18.4514 47.5101,19.0554 C48.4871,19.6964 50.8531,20.7704 51.5001,21.6244 C53.8851,24.7754 53.4371,30.5044 54.0001,34.3594" id="Stroke-1" stroke="#0667C6" stroke-width="3" stroke-linejoin="round"></path>
                    <path d="M21.5,12.9571 C21.5,11.6691 20.455,10.6241 19.167,10.6241 L14.5,10.6241 L14.5,5.9571 C14.5,4.6691 13.455,3.6241 12.167,3.6241 L9.833,3.6241 C8.545,3.6241 7.5,4.6691 7.5,5.9571 L7.5,10.6241 L3.5,10.6241 C2.396,10.6241 1.5,11.6691 1.5,12.9571 L1.5,15.2911 C1.5,16.5791 2.396,17.6241 3.5,17.6241 L7.5,17.6241 L7.5,22.2911 C7.5,23.5791 8.545,24.6241 9.833,24.6241 L12.167,24.6241 C13.455,24.6241 14.5,23.5791 14.5,22.2911 L14.5,17.6241 L19.167,17.6241 C20.455,17.6241 21.5,16.5791 21.5,15.2911 L21.5,12.9571 Z" id="Stroke-3" stroke="#0667C6" stroke-width="3" stroke-linecap="round" stroke-linejoin="round"></path>
                    <path d="M13.3125,44.9532 C16.3405,44.9532 18.7965,42.3952 18.7965,39.2402 C18.7965,36.0862 16.3405,33.5272 13.3125,33.5272 C10.2835,33.5272 7.8285,36.0862 7.8285,39.2402 C7.8285,42.3952 10.2835,44.9532 13.3125,44.9532 Z" id="Stroke-5" stroke="#0667C6" stroke-width="3" stroke-linecap="round" stroke-linejoin="round"></path>
                    <path d="M3.5,39.6241 L3.5,60.6241" id="Stroke-7" stroke="#0667C6" stroke-width="3" stroke-linecap="round" stroke-linejoin="round"></path>
                    <path d="M53.5,39.6241 L53.5,60.6241" id="Stroke-9" stroke="#0667C6" stroke-width="3" stroke-linecap="round" stroke-linejoin="round"></path>
                    <mask id="mask-14" fill="white">
                        <use xlink:href="#path-13"></use>
                    </mask>
                    <g id="Clip-12"></g>
                    <polygon id="Stroke-11" stroke="#0667C6" stroke-width="3" stroke-linecap="round" stroke-linejoin="round" mask="url(#mask-14)" points="3.5 51.6241 53.5 51.6241 53.5 44.6241 3.5 44.6241"></polygon>
                    <path d="M23.5,44.6241 L49.5,44.6241 L49.5,38.0241 C49.5,35.5941 47.56,33.6241 45.167,33.6241 L24.583,33.6241 C23.985,33.6241 23.5,34.1161 23.5,34.7241 L23.5,44.6241 Z" id="Stroke-13" stroke="#0667C6" stroke-width="3" stroke-linecap="round" stroke-linejoin="round" mask="url(#mask-14)"></path>
                </g>
                <g id="Group-14-Copy-11" transform="translate(1672.000000, 206.000000)">
                    <path d="M32.2881,28.6954 C33.2441,22.5404 32.7871,22.3374 34.5001,20.6244 C36.1411,18.9834 38.2461,18.9194 38.3041,18.8004 C38.3041,18.8004 39.9431,18.2534 39.9431,16.0664 C39.9441,15.0794 38.3781,14.2224 37.9611,13.3584 C37.5491,12.5044 37.3281,11.6864 37.2511,10.7424 C37.0801,8.6734 37.3691,6.4534 38.3041,4.5844 C39.3971,2.3964 43.2251,0.2094 46.4311,2.4234 C47.2921,3.0174 47.6051,4.1364 47.8671,5.1334 C48.1521,6.2254 48.4451,8.5084 48.5001,9.6244 C48.6221,12.1324 47.6061,13.0504 45.9591,14.9734 C45.5841,15.3474 45.4761,16.0914 45.4121,16.6134 C45.2331,18.0644 46.5871,18.4514 47.5101,19.0554 C48.4871,19.6964 50.8531,20.7704 51.5001,21.6244 C53.8851,24.7754 53.4371,30.5044 54.0001,34.3594" id="Stroke-1" stroke="#0667C6" stroke-width="3" stroke-linejoin="round"></path>
                    <path d="M21.5,12.9571 C21.5,11.6691 20.455,10.6241 19.167,10.6241 L14.5,10.6241 L14.5,5.9571 C14.5,4.6691 13.455,3.6241 12.167,3.6241 L9.833,3.6241 C8.545,3.6241 7.5,4.6691 7.5,5.9571 L7.5,10.6241 L3.5,10.6241 C2.396,10.6241 1.5,11.6691 1.5,12.9571 L1.5,15.2911 C1.5,16.5791 2.396,17.6241 3.5,17.6241 L7.5,17.6241 L7.5,22.2911 C7.5,23.5791 8.545,24.6241 9.833,24.6241 L12.167,24.6241 C13.455,24.6241 14.5,23.5791 14.5,22.2911 L14.5,17.6241 L19.167,17.6241 C20.455,17.6241 21.5,16.5791 21.5,15.2911 L21.5,12.9571 Z" id="Stroke-3" stroke="#0667C6" stroke-width="3" stroke-linecap="round" stroke-linejoin="round"></path>
                    <path d="M13.3125,44.9532 C16.3405,44.9532 18.7965,42.3952 18.7965,39.2402 C18.7965,36.0862 16.3405,33.5272 13.3125,33.5272 C10.2835,33.5272 7.8285,36.0862 7.8285,39.2402 C7.8285,42.3952 10.2835,44.9532 13.3125,44.9532 Z" id="Stroke-5" stroke="#0667C6" stroke-width="3" stroke-linecap="round" stroke-linejoin="round"></path>
                    <path d="M3.5,39.6241 L3.5,60.6241" id="Stroke-7" stroke="#0667C6" stroke-width="3" stroke-linecap="round" stroke-linejoin="round"></path>
                    <path d="M53.5,39.6241 L53.5,60.6241" id="Stroke-9" stroke="#0667C6" stroke-width="3" stroke-linecap="round" stroke-linejoin="round"></path>
                    <mask id="mask-16" fill="white">
                        <use xlink:href="#path-15"></use>
                    </mask>
                    <g id="Clip-12"></g>
                    <polygon id="Stroke-11" stroke="#0667C6" stroke-width="3" stroke-linecap="round" stroke-linejoin="round" mask="url(#mask-16)" points="3.5 51.6241 53.5 51.6241 53.5 44.6241 3.5 44.6241"></polygon>
                    <path d="M23.5,44.6241 L49.5,44.6241 L49.5,38.0241 C49.5,35.5941 47.56,33.6241 45.167,33.6241 L24.583,33.6241 C23.985,33.6241 23.5,34.1161 23.5,34.7241 L23.5,44.6241 Z" id="Stroke-13" stroke="#0667C6" stroke-width="3" stroke-linecap="round" stroke-linejoin="round" mask="url(#mask-16)"></path>
                </g>
            </g>
        </g>
    </g>
</svg>